<svg xmlns="http://www.w3.org/2000/svg" width="18" height="18" viewBox="0 0 18 18">
    <g fill="none" fill-rule="evenodd">
        <path d="M0 0h18v18H0z"/>
        <path fill="#6A7070" d="M17.2 14.492c-.57-1.054-2.446-1.69-5.042-2.573l-1.146-.392H11V9.808c.407-.442.83-1.167.97-1.906.765-.41 1.014-1.963.405-2.338.281-.59.625-1.665.625-2.769C13 .424 10.338 0 8.734 0 7 0 6.375.487 5.828 1.095 4.688 1.048 4 2.055 4 3.061c0 .82.187 1.802.458 2.497-.646.265-.423 1.89.573 2.353.09.671.593 1.388.97 1.833v2.122l-.162.055c-2.595.881-4.47 1.517-5.039 2.571A6.95 6.95 0 0 0 0 17.5a.5.5 0 0 0 .5.5h17a.5.5 0 0 0 .5-.5 6.95 6.95 0 0 0-.8-3.008"/>
    </g>
</svg>
