<svg xmlns="http://www.w3.org/2000/svg" width="20" height="20" viewBox="0 0 20 20">
    <g fill="none" fill-rule="evenodd">
        <path d="M-2-2h26v26H-2z"/>
        <path fill="#6A7070" d="M3.778 8.111A4.339 4.339 0 0 1 8.11 3.778a4.339 4.339 0 0 1 4.333 4.333 4.339 4.339 0 0 1-4.333 4.333 4.339 4.339 0 0 1-4.333-4.333m15.465 9.09l-5.11-5.112a7.18 7.18 0 0 0 1.2-3.978 7.223 7.223 0 1 0-7.222 7.222 7.17 7.17 0 0 0 3.978-1.201l5.112 5.111a1.443 1.443 0 0 0 2.042 0 1.443 1.443 0 0 0 0-2.042"/>
    </g>
</svg>
