<svg xmlns="http://www.w3.org/2000/svg" width="18" height="13" viewBox="0 0 18 13">
    <g fill="none" fill-rule="evenodd">
        <path d="M0-3h18v18H0z"/>
        <path fill="#6A7070" d="M9 5c-.827 0-1.5.672-1.5 1.5C7.5 7.327 8.173 8 9 8s1.5-.674 1.5-1.5C10.5 5.673 9.827 5 9 5"/>
        <path fill="#6A7070" d="M9 10a3.5 3.5 0 1 1 0-7.001 3.5 3.5 0 0 1 0 7m8.774-4.4C16.479 3.196 13.113 0 9 0 4.887 0 1.521 3.197.226 5.598a1.915 1.915 0 0 0 0 1.804C1.521 9.803 4.887 13 9 13c4.113 0 7.479-3.197 8.774-5.598a1.915 1.915 0 0 0 0-1.804"/>
    </g>
</svg>
