<svg xmlns="http://www.w3.org/2000/svg" width="18" height="18" viewBox="0 0 18 18">
    <g fill="#888" fill-rule="evenodd">
        <path d="M4 3h1V1H4v2zm9 0h1V1h-1v2zm5 2V1.5a.5.5 0 0 0-.5-.5H15V.5a.5.5 0 0 0-.5-.5h-2a.5.5 0 0 0-.5.5V1H6V.5a.5.5 0 0 0-.5-.5h-2a.5.5 0 0 0-.5.5V1H.5a.5.5 0 0 0-.5.5V5h18zM14.076 15h-3.25a.5.5 0 0 1 0-1H12V9.707l-.625.624a.5.5 0 0 1-.707-.707l1.478-1.478A.5.5 0 0 1 13 8.5V14h1.076a.5.5 0 0 1 0 1zM9 14.5a.5.5 0 0 1-.5.5h-4a.5.5 0 0 1-.5-.5v-1a.5.5 0 1 1 1 0v.5h3v-2H5.7a.5.5 0 0 1 0-1H8V9H5v.5a.5.5 0 0 1-1 0v-1a.5.5 0 0 1 .5-.5h4a.5.5 0 0 1 .5.5v6zM0 6v11.5a.5.5 0 0 0 .5.5h17a.5.5 0 0 0 .5-.5V6H0z"/>
    </g>
</svg>
