<svg xmlns="http://www.w3.org/2000/svg" width="21" height="21" viewBox="0 0 21 21">
    <g fill="#047A9C" fill-rule="evenodd">
        <path d="M3.063 11.375a.438.438 0 0 1 0-.875h5.25a.438.438 0 0 1 0 .875h-5.25zM7.436 14H3.063a.438.438 0 0 1 0-.875h4.376a.438.438 0 0 1 0 .875zM3.063 7.875h7a.438.438 0 0 1 0 .875h-7a.438.438 0 0 1 0-.875zm0-2.625H7a.438.438 0 0 1 0 .875H3.062a.438.438 0 0 1 0-.875zM9.625.875L14 5.25H9.625V.875zM8.537 17.457c-.348-.6-.236-1.379.657-1.894a5.25 5.25 0 0 1 0-.498c-.875-.507-1.02-1.274-.66-1.896l1.313-2.274c.346-.6 1.107-.875 1.974-.376.14-.087.282-.17.429-.246 0-1.014.598-1.523 1.313-1.523h1.312V4.812a.438.438 0 0 0-.129-.31L10.371.129A.439.439 0 0 0 10.062 0H.438A.438.438 0 0 0 0 .438v18.375c0 .241.196.437.438.437h9.134l-1.035-1.793z"/>
        <path d="M14.875 17.5a2.19 2.19 0 0 1-2.188-2.188 2.19 2.19 0 0 1 2.188-2.187 2.19 2.19 0 0 1 2.188 2.188 2.19 2.19 0 0 1-2.188 2.187m5.42-1.077l-.668-.387c.08-.536.08-.913.001-1.445l.67-.388a.434.434 0 0 0 .16-.597l-1.313-2.274a.436.436 0 0 0-.598-.16l-.668.387a4.794 4.794 0 0 0-1.254-.725v-.771a.438.438 0 0 0-.438-.438h-2.625a.438.438 0 0 0-.437.438v.771a4.794 4.794 0 0 0-1.254.725l-.668-.386a.438.438 0 0 0-.598.16l-1.313 2.273a.434.434 0 0 0 .16.597l.67.388c-.079.532-.08.909 0 1.445l-.668.387a.435.435 0 0 0-.16.597l1.313 2.274c.12.21.39.28.597.159l.669-.386c.375.301.797.545 1.252.725v.77c0 .242.196.438.438.438h2.624a.438.438 0 0 0 .438-.438v-.77c.455-.18.877-.424 1.252-.725l.669.386c.208.12.477.05.597-.16l1.313-2.273a.435.435 0 0 0-.16-.597"/>
    </g>
</svg>
