<svg xmlns="http://www.w3.org/2000/svg" width="19" height="17" viewBox="0 0 19 17">
    <g fill="#6A7070" fill-rule="evenodd">
        <path d="M4.355 10.045c-.657 0-1.188-.518-1.188-1.159 0-.64.531-1.159 1.188-1.159h6.729V.387A.391.391 0 0 0 10.688 0H.396A.391.391 0 0 0 0 .386v16.228c0 .213.178.386.396.386h10.292a.391.391 0 0 0 .396-.386v-6.569h-6.73z"/>
        <path d="M4.354 9.273H17.65l-3.283 3.203a.38.38 0 0 0 0 .548c.155.15.405.15.56 0l3.958-3.864a.38.38 0 0 0 0-.547l-3.959-3.864a.402.402 0 0 0-.559 0 .379.379 0 0 0 0 .547L17.649 8.5H4.354a.391.391 0 0 0-.396.386c0 .214.178.387.396.387"/>
    </g>
</svg>
