<svg xmlns="http://www.w3.org/2000/svg" width="16" height="16" viewBox="0 0 16 16">
    <path fill="#6A7070" fill-rule="evenodd" d="M8 10.667A2.67 2.67 0 0 1 5.333 8 2.67 2.67 0 0 1 8 5.333 2.67 2.67 0 0 1 10.667 8 2.67 2.67 0 0 1 8 10.667m7.667-4h-1.904c-.133-.527-.302-1.112-.518-1.555l1.354-1.355c.131-.13.131-.34 0-.471l-1.886-1.885a.331.331 0 0 0-.471 0l-1.355 1.354c-.444-.216-1.028-.385-1.554-.518V.333A.333.333 0 0 0 9 0H7a.333.333 0 0 0-.333.333v1.904c-.527.133-1.112.302-1.554.518L3.757 1.401a.331.331 0 0 0-.471 0L1.4 3.286c-.13.13-.13.34 0 .471l1.355 1.356c-.214.442-.385 1.026-.518 1.554H.333A.333.333 0 0 0 0 7v2c0 .184.15.333.333.333h1.904c.133.528.304 1.112.518 1.555L1.4 12.243c-.13.13-.13.341 0 .471l1.886 1.885a.342.342 0 0 0 .471 0l1.356-1.354c.441.215 1.026.384 1.554.519v1.903c0 .184.149.333.333.333h2c.184 0 .333-.15.333-.333v-1.903c.527-.135 1.112-.304 1.554-.52l1.356 1.355c.13.131.341.131.471 0l1.885-1.885c.131-.13.131-.34 0-.47l-1.354-1.356c.215-.443.385-1.027.518-1.555h1.904c.184 0 .333-.149.333-.333V7a.333.333 0 0 0-.333-.333"/>
</svg>
