<svg xmlns="http://www.w3.org/2000/svg" xmlns:xlink="http://www.w3.org/1999/xlink" width="24" height="24" viewBox="0 0 24 24">
    <defs>
        <path id="a" d="M0 12c0 6.627 5.373 12 12 12s12-5.373 12-12S18.627 0 12 0 0 5.373 0 12z"/>
    </defs>
    <g fill="none" fill-rule="evenodd">
        <mask id="b" fill="#fff">
            <use xlink:href="#a"/>
        </mask>
        <g mask="url(#b)">
            <path fill="#009B3A" d="M-8 23.96h39.28V-.8H-8z"/>
            <path fill="#FEDF00" d="M-4.434 11.882L11.86 2.617l16.295 9.329-16.295 9.263z"/>
            <path fill="#002776" d="M12.822 10.909c-3.292-1.053-6.025-.764-7.163-.56a6.085 6.085 0 0 0-.197 1.541c0 3.42 2.835 6.13 6.331 6.13 2.827 0 5.221-1.749 6.037-4.25-.629-.632-2.07-1.779-5.008-2.861"/>
            <path fill="#002776" d="M12.554 9.905c2.7.772 4.681 2.141 5.519 2.794.034-.264.055-.536.055-.809 0-3.423-2.838-6.099-6.335-6.099-2.595 0-4.827 1.432-5.805 3.618 1.285-.15 3.795-.277 6.566.496"/>
            <path fill="#FFF" d="M12.554 9.905c-2.77-.773-5.281-.646-6.566-.496a6.063 6.063 0 0 0-.329.94c1.138-.204 3.871-.493 7.163.56 2.939 1.082 4.38 2.229 5.008 2.861.11-.345.193-.703.243-1.071a16.747 16.747 0 0 0-5.519-2.794"/>
        </g>
    </g>
</svg>
