<svg xmlns="http://www.w3.org/2000/svg" width="15" height="15" viewBox="0 0 15 15">
    <path fill="#6A7070" fill-rule="evenodd" d="M10 12.083a.417.417 0 0 1-.833 0v-7.5a.417.417 0 0 1 .833 0v7.5zm-2.5 0a.417.417 0 0 1-.833 0v-7.5a.417.417 0 0 1 .833 0v7.5zM5 1.667h4.167V.833H5v.834zm0 10.416a.417.417 0 0 1-.833 0v-7.5a.417.417 0 0 1 .833 0v7.5zm8.75-10.416H10V.417A.417.417 0 0 0 9.583 0h-5a.417.417 0 0 0-.416.417v1.25H.417a.417.417 0 0 0 0 .833h1.25v12.083c0 .23.186.417.416.417h10c.23 0 .417-.187.417-.417V2.5h1.25a.417.417 0 0 0 0-.833z"/>
</svg>
