<svg xmlns="http://www.w3.org/2000/svg" width="25" height="25" viewBox="0 0 25 25">
    <g fill="#EA7600" fill-rule="nonzero">
        <circle cx="10.728" cy="14.269" r="2.146"/>
        <path d="M24.989 3.86a.106.106 0 0 0-.1-.066l-3.18.063-.568-.568.063-3.179a.107.107 0 0 0-.183-.078l-3.13 3.13a.107.107 0 0 0-.032.074l-.05 2.588-7.763 7.762 1.365 1.366 7.763-7.762 2.588-.051a.108.108 0 0 0 .074-.032l3.13-3.13c.03-.03.04-.077.023-.118z"/>
        <path d="M18.18 10.005a8.534 8.534 0 0 1 1.133 4.265 8.53 8.53 0 0 1-2.514 6.07 8.53 8.53 0 0 1-6.07 2.514 8.53 8.53 0 0 1-6.071-2.514c-3.347-3.348-3.347-8.794 0-12.141a8.531 8.531 0 0 1 6.07-2.514c1.521 0 2.98.395 4.265 1.133l1.562-1.561a10.656 10.656 0 0 0-5.826-1.718c-2.866 0-5.561 1.116-7.588 3.142-4.184 4.185-4.185 10.992-.001 15.176A10.66 10.66 0 0 0 10.728 25a10.66 10.66 0 0 0 7.588-3.143 10.658 10.658 0 0 0 3.143-7.587c0-2.1-.601-4.106-1.718-5.826l-1.561 1.56z"/>
        <path d="M15.077 13.108a4.506 4.506 0 0 1-1.162 4.348 4.477 4.477 0 0 1-3.187 1.32 4.48 4.48 0 0 1-3.187-1.32 4.512 4.512 0 0 1 0-6.373 4.48 4.48 0 0 1 4.352-1.164l1.67-1.671a6.625 6.625 0 0 0-2.835-.632 6.611 6.611 0 0 0-4.704 1.95 6.61 6.61 0 0 0-1.95 4.704 6.61 6.61 0 0 0 1.95 4.704 6.613 6.613 0 0 0 4.704 1.95 6.608 6.608 0 0 0 4.704-1.95c2.036-2.034 2.473-5.07 1.316-7.536l-1.671 1.67z"/>
    </g>
</svg>
