<svg xmlns="http://www.w3.org/2000/svg" width="30" height="30" viewBox="0 0 30 30">
    <g fill="none" fill-rule="evenodd">
        <path fill="#005A70" d="M0 0h30v28a2 2 0 0 1-2 2H2a2 2 0 0 1-2-2V0z"/>
        <path d="M8 25h14V11H8z"/>
        <path fill="#FFF" d="M21.736 21.694a.785.785 0 0 1-1.102-.068L15 15.286l-5.634 6.34a.783.783 0 0 1-1.102.068.774.774 0 0 1-.068-1.097l6.219-7a.782.782 0 0 1 1.17 0l6.219 7a.774.774 0 0 1-.068 1.097"/>
        <g>
            <path d="M8 18h14V4H8z"/>
            <path fill="#FFF" d="M21.736 14.694a.785.785 0 0 1-1.102-.068L15 8.286l-5.634 6.34a.783.783 0 0 1-1.102.068.774.774 0 0 1-.068-1.097l6.219-7a.782.782 0 0 1 1.17 0l6.219 7a.774.774 0 0 1-.068 1.097"/>
        </g>
    </g>
</svg>
