<svg xmlns="http://www.w3.org/2000/svg" width="30" height="41" viewBox="0 0 30 41">
    <g fill="none" fill-rule="evenodd">
        <rect width="30" height="41" fill="#005A70" rx="2"/>
        <path d="M8 23h14v14H8z"/>
        <path fill="#FFF" d="M21.736 26.306a.785.785 0 0 0-1.102.068L15 32.714l-5.634-6.34a.783.783 0 0 0-1.102-.068.774.774 0 0 0-.068 1.097l6.219 7a.782.782 0 0 0 1.17 0l6.219-7a.774.774 0 0 0-.068-1.097"/>
        <g>
            <path d="M8 16h14v14H8z"/>
            <path fill="#FFF" d="M21.736 19.306a.785.785 0 0 0-1.102.068L15 25.714l-5.634-6.34a.783.783 0 0 0-1.102-.068.774.774 0 0 0-.068 1.097l6.219 7a.782.782 0 0 0 1.17 0l6.219-7a.774.774 0 0 0-.068-1.097"/>
        </g>
    </g>
</svg>
