<svg xmlns="http://www.w3.org/2000/svg" width="250" height="174" viewBox="0 0 250 174">
    <g fill="none" fill-rule="evenodd">
        <path fill="#FFB655" d="M176.07 158.679l-1.433 6.804c-.673 3.2-3.916 5.761-7.242 5.72l-140.032-1.7c-3.326-.042-5.477-2.668-4.803-5.868l.186-.883-.104-.002c6.58-31.36 11.585-54.968 15.013-70.823l1.066-5.06c.046-.22.104-.436.174-.65 2.072-9.505 3.405-15.369 3.997-17.592 2.35-8.823 8.249-8.054 17.394-7.895l23.412.409c6.724.326 1.85 5.576 1.97 12.96 12.437.218 97.471 1.552 101.13 1.616 3.657.064 6.1 3.666 5.45 7.702-2.477 15.391-7.87 40.479-16.179 75.262z"/>
        <path fill="#007FA3" d="M168.743 86.873c7.564-5.5 8.572-13.498 3.025-23.997-8.32-15.748-9.077-30.746 2.27-46.493C185.383.635 212.616-6.864 232.283 8.134c10.706 8.163 16.589 21.36 17.199 34.593.447 9.71-3.567 19.056-9.581 26.663-20.013 25.312-51.456 20.29-71.16 17.483"/>
        <path fill="#FFDAAA" d="M5.516 82.868l145.009.431c3.444.01 6.75 2.656 7.382 5.909l15.169 78.04c.632 3.252-1.648 5.88-5.092 5.87l-145.009-.43c-3.444-.01-6.75-2.656-7.382-5.909L.424 88.74c-.632-3.252 1.648-5.88 5.092-5.87z"/>
        <text fill="#D4EAE4" font-family="OpenSans-Extrabold, Open Sans" font-size="54" font-weight="600" transform="translate(-1)">
            <tspan x="195.26" y="63.25">?</tspan>
        </text>
    </g>
</svg>
