<svg xmlns="http://www.w3.org/2000/svg" width="24" height="16" viewBox="0 0 24 16">
    <path fill="#EA7600" fill-rule="evenodd" d="M23.361 7.841a.58.58 0 0 0-.033-.105c-.004-.013-.012-.024-.018-.037a.79.79 0 0 0-.042-.08c-.01-.014-.022-.026-.033-.04a.742.742 0 0 0-.05-.06l-.009-.01-7.57-7.334a.608.608 0 0 0-.892.04.693.693 0 0 0 .04.943l6.374 6.175H.767c-.35 0-.631.299-.631.667 0 .369.282.667.63.667h20.362l-6.374 6.175a.693.693 0 0 0-.04.942.609.609 0 0 0 .891.04l7.571-7.333.01-.01c.018-.02.034-.04.05-.06.01-.014.022-.026.032-.041a.724.724 0 0 0 .042-.08c.006-.011.014-.023.018-.035a.618.618 0 0 0 .033-.107c.001-.007.005-.013.006-.021a.696.696 0 0 0 0-.274c0-.007-.005-.014-.006-.022z"/>
</svg>
