<svg xmlns="http://www.w3.org/2000/svg" xmlns:xlink="http://www.w3.org/1999/xlink" width="272" height="115" viewBox="0 0 272 115">
    <defs>
        <path id="a" d="M.094.03h64.06v69.768H.093z"/>
    </defs>
    <g fill="none" fill-rule="evenodd">
        <path fill="#00485D" d="M269.975 114.647a31.333 31.333 0 0 0 1.051-5.466c1.162-12.071-10.007-21.81-12.168-33.749-2.793-15.41.026-33.762-9.528-46.16-8.202-10.646-22.204-21.597-35.511-23.356-13.307-1.759-27.258 5.704-37.934 13.849-10.745 8.201-17.883 20.308-28.085 29.175-13.55 11.776-31.494 17.022-49.086 20.527-17.592 3.506-35.66 5.664-52.214 12.596-8.759 3.663-17.53 9.27-20.948 18.132-1.801 4.672-1.825 9.67-.567 14.461l244.99-.009z"/>
        <path fill="#003548" d="M247 115a52.914 52.914 0 0 0-3.512-8.922c-5.786-11.539-14.4-21.937-17.137-34.549-2.952-13.606 1.008-29.304-7.12-40.616-7.708-10.73-22.98-12.508-36.132-11.113-13.15 1.395-26.645 4.948-39.339 1.267C127.395 16.324 114.857.17 97.831 0 87.417-.1 77.823 6.118 70.981 13.961c-6.843 7.844-11.504 17.29-16.852 26.214-5.347 8.924-11.723 17.674-20.742 22.87-7.648 4.403-16.868 6.048-23.668 11.667-11.267 9.325-12.07 27.047-5.83 40.283L247 115z"/>
        <g transform="translate(115.236 25.196)">
            <mask id="b" fill="#fff">
                <use xlink:href="#a"/>
            </mask>
            <path fill="#F0EFEF" d="M64.153 69.798V5.104c0-2.802-2.257-5.074-5.04-5.074H5.134C2.35.03.095 2.302.095 5.104v64.694h64.058z" mask="url(#b)"/>
        </g>
        <path fill="#FFF" d="M162.059 94.994V40.25c-.001-2.801-2.258-5.071-5.04-5.071H103.04c-2.783 0-5.04 2.27-5.04 5.071v54.745h64.058z"/>
        <g fill="#787878">
            <path d="M119.317 46.212h32.546v-.952h-32.546zM119.317 48.329h32.546v-.953h-32.546z"/>
        </g>
        <g fill="#787878">
            <path d="M119.317 57.271h32.546v-.952h-32.546zM119.317 59.39h32.546v-.953h-32.546z"/>
        </g>
        <g fill="#787878">
            <path d="M119.317 68.786h32.546v-.952h-32.546zM119.317 70.902h32.546v-.952h-32.546z"/>
        </g>
        <g fill="#787878">
            <path d="M119.317 80.3h32.546v-.952h-32.546zM119.317 82.417h32.546v-.952h-32.546z"/>
        </g>
        <path fill="#DCDBDB" d="M108.69 43.866h2.748c.6 0 1.085.489 1.085 1.092v2.766c0 .602-.486 1.09-1.085 1.09h-2.747a1.088 1.088 0 0 1-1.085-1.09v-2.766c0-.603.486-1.092 1.085-1.092M108.69 55.381h2.748c.6 0 1.085.489 1.085 1.091v2.766c0 .603-.486 1.091-1.085 1.091h-2.747a1.088 1.088 0 0 1-1.085-1.09v-2.767c0-.602.486-1.09 1.085-1.09M108.69 66.894h2.748c.6 0 1.085.488 1.085 1.091v2.766c0 .602-.486 1.091-1.085 1.091h-2.747a1.088 1.088 0 0 1-1.085-1.091v-2.766c0-.603.486-1.091 1.085-1.091M108.69 78.408h2.748c.6 0 1.085.489 1.085 1.092v2.765c0 .603-.486 1.092-1.085 1.092h-2.747a1.088 1.088 0 0 1-1.085-1.092V79.5c0-.603.486-1.092 1.085-1.092"/>
        <g fill="#787878">
            <path d="M119.317 91.273h32.546v-.952h-32.546zM119.317 93.39h32.546v-.953h-32.546z"/>
        </g>
        <path fill="#DCDBDB" d="M108.69 89.381h2.748c.6 0 1.085.489 1.085 1.091v2.766c0 .603-.486 1.091-1.085 1.091h-2.747a1.088 1.088 0 0 1-1.085-1.09v-2.767c0-.602.486-1.09 1.085-1.09"/>
        <path fill="#84BE41" d="M111.356 48.337l-2.058-2.072.777-.783 1.281 1.29 3.612-3.638.777.785zM111.356 59.397l-2.058-2.071.777-.785 1.281 1.289 3.612-3.635.777.783z"/>
        <path fill="#0FB2A6" d="M180.233 61.721l4.762-4.79a3.082 3.082 0 0 1 4.365 0l2.58 2.594a3.131 3.131 0 0 1 0 4.393l-4.772 4.793L168.65 87.35l-10.031 3.103 3.086-10.087 18.527-18.644z"/>
        <path fill="#FFF" d="M167.107 82.548a.638.638 0 1 1-.447-1.085l16.59-16.696a.629.629 0 0 1 .891.042c.22.243.22.614 0 .856l-16.588 16.697a.628.628 0 0 1-.446.186"/>
        <path fill="#FFF" d="M168.65 87.984a.628.628 0 0 1-.446-.185l-1.543-1.556a.635.635 0 0 1-.185-.447v-3.248h-3.227a.63.63 0 0 1-.447-.186l-1.543-1.553a.639.639 0 0 1 .001-.899.629.629 0 0 1 .893.001l1.357 1.366h3.608c.348 0 .63.284.63.635v3.62l1.358 1.367a.638.638 0 0 1 0 .899.629.629 0 0 1-.445.187h-.01zM189.483 67.017a.627.627 0 0 1-.447-.188l-6.943-6.99a.638.638 0 0 1 .041-.897.628.628 0 0 1 .851 0l6.943 6.99a.637.637 0 0 1-.445 1.085"/>
        <path fill="#EA7600" d="M87.733 51.093c-2.972-2.157-3.368-5.294-1.189-9.411 3.269-6.175 3.566-12.057-.891-18.233-4.458-6.175-15.157-9.116-22.883-3.234-4.206 3.2-6.517 8.376-6.757 13.565-.175 3.808 1.402 7.474 3.764 10.457 7.862 9.926 20.215 7.957 27.956 6.856"/>
        <g>
            <path fill="#FFF" d="M77.556 28.691h-.723v-1c0-.184-.162-.333-.36-.333h-8.667c-.2 0-.362.15-.362.333 0 .184.162.334.362.334h8.305v.666h-8.305c-.598 0-1.084-.448-1.084-1 0-.55.486-1 1.084-1h9.75v2zm1.083 0h-.361v-2.333c0-.184-.163-.333-.361-.333H67.806c-.996 0-1.806.748-1.806 1.666v12.667c0 .919.81 1.667 1.806 1.667h10.833c.199 0 .361-.15.361-.334V29.025c0-.184-.162-.334-.361-.334z"/>
            <path fill="#EA7600" d="M71.398 35.93l1.095-3.185 1.099 3.184h-2.194zm4.01 2.37h-.276l-2.316-6.713c-.104-.305-.542-.306-.647 0L69.86 38.3h-.268a.34.34 0 0 0-.342.339.34.34 0 0 0 .342.338h1.033a.34.34 0 0 0 .342-.338c0-.183-.13-.34-.384-.34l.582-1.692h2.66l.584 1.693c-.246 0-.377.159-.377.339a.34.34 0 0 0 .342.338h1.034a.34.34 0 0 0 .342-.338.34.34 0 0 0-.342-.34z"/>
        </g>
        <path fill="#D4EAE4" d="M198 47.372c2.808-1.004 5.314-1.004 7.52 0 3.31 1.507 10.228 3.314 15.642 2.41 5.415-.903 7.821-4.218 7.821-6.93V32.007c0-3.013.602-9.642-5.414-10.546-6.016-.904-15.943-.301-18.049.904-2.105 1.205-4.813 2.41-4.813 9.039V42.25L198 47.372z"/>
        <g fill="#005A70">
            <path d="M215.633 39.43l-.469-1.338-.6 1.715h-.167a.616.616 0 0 0-.625.609c0 .337.279.609.625.609h.888c-.34-.568-.158-1.238.348-1.594M221.375 39.807h-.178l-2.728-7.784c-.191-.546-.991-.547-1.183.001l-.803 2.295.661 1.886.733-2.099.933 2.658h-1.47l.427 1.217h1.47l.656 1.874a.609.609 0 0 0-.383.561c0 .337.28.609.625.609h1.24a.616.616 0 0 0 .625-.609.616.616 0 0 0-.625-.609"/>
            <path d="M210.925 35.547l2-5.723 2.007 5.723h-4.007zm7.325 4.26h-.504l-4.23-12.066c-.19-.546-.991-.548-1.183 0l-4.218 12.066h-.49a.616.616 0 0 0-.625.61c0 .336.28.608.625.608h1.888a.616.616 0 0 0 .625-.609c0-.327-.238-.609-.703-.609l1.064-3.043h4.86l1.067 3.043c-.45 0-.689.286-.689.61 0 .336.28.608.625.608h1.888a.617.617 0 0 0 .625-.609.617.617 0 0 0-.625-.609z"/>
        </g>
        <path fill="#F5F5F5" d="M83 78.025c-.56-13.334-5.792-20-15.693-20-14.1 0-14.1 7.6-12.736 10.6 1.364 3 4.094 5.6 10.007 5 5.913-.6 10.917-2.2 13.873 0 1.971 1.466 3.488 2.933 4.549 4.4z"/>
        <g fill="#007FA3">
            <path d="M60 62.215v6.286c0 .105.088.19.196.19 2.313 0 4.108.615 4.108 1.143v-6.922c-.745-.565-2.446-.887-4.108-.887a.193.193 0 0 0-.196.19M68.804 62.025c-1.662 0-3.364.322-4.108.887v6.922c0-.528 1.794-1.143 4.108-1.143a.193.193 0 0 0 .196-.19v-6.286a.193.193 0 0 0-.196-.19"/>
        </g>
    </g>
</svg>
