<svg xmlns="http://www.w3.org/2000/svg" width="24" height="16" viewBox="0 0 24 16">
    <path fill="#007FA3" fill-rule="evenodd" d="M23.98 7.841a.567.567 0 0 0-.035-.105c-.004-.013-.012-.024-.019-.037a.784.784 0 0 0-.043-.08c-.01-.014-.022-.026-.033-.04a.749.749 0 0 0-.052-.06c-.004-.002-.006-.007-.01-.01L15.972.175a.642.642 0 0 0-.92.04.677.677 0 0 0 .04.943l6.581 6.175H.651A.659.659 0 0 0 0 8c0 .369.291.667.651.667h21.022l-6.58 6.175a.677.677 0 0 0-.041.942.64.64 0 0 0 .92.04l7.816-7.333.01-.01c.019-.02.035-.04.052-.06l.033-.041a.718.718 0 0 0 .043-.08c.007-.011.015-.023.02-.035a.604.604 0 0 0 .033-.107c.001-.007.005-.013.007-.021a.675.675 0 0 0 0-.274c-.002-.007-.006-.014-.007-.022z"/>
</svg>
