<svg xmlns="http://www.w3.org/2000/svg" width="24" height="24" viewBox="0 0 24 24">
    <g fill="#FFB81C" fill-rule="evenodd">
        <path d="M3 4.5V16c0 .551-.449 1-1 1-.551 0-1-.449-1-1V1h4v1.5a.5.5 0 0 0 .5.5H18v1H3.5a.5.5 0 0 0-.5.5zm16.94 6.94c.292-.294.676-.44 1.06-.44V4.5a.5.5 0 0 0-.5-.5H19V2.5a.5.5 0 0 0-.5-.5H6V.5a.5.5 0 0 0-.5-.5h-5a.5.5 0 0 0-.5.5V16c0 1.103.897 2 2 2h11.379l6.561-6.56zM18.294 14.501L13.5 19.295l3.207 3.207 4.794-4.794zM23.855 14.646l-2.5-2.5a.5.5 0 0 0-.707 0l-1.646 1.647L22.209 17l1.646-1.646a.502.502 0 0 0 0-.707M15.848 23.067L12.93 20.15l-.911 3.226a.491.491 0 0 0 .12.484.496.496 0 0 0 .484.122l3.224-.915z"/>
    </g>
</svg>
