<svg xmlns="http://www.w3.org/2000/svg" width="35" height="22" viewBox="0 0 35 22">
    <path fill="#FFF" fill-rule="evenodd" d="M.932 10.782a.764.764 0 0 1 .048-.145c.006-.018.017-.033.026-.05.019-.037.039-.075.062-.11.015-.02.031-.036.047-.056.023-.028.047-.056.073-.082.005-.004.009-.01.013-.015L12.241.241a.924.924 0 0 1 1.3.056.914.914 0 0 1-.057 1.295L4.19 10.083h29.693a.917.917 0 0 1 0 1.833H4.189l9.295 8.492A.914.914 0 0 1 12.862 22a.917.917 0 0 1-.62-.241L1.201 11.675l-.014-.014c-.027-.026-.05-.054-.074-.083-.016-.018-.031-.035-.046-.056a.978.978 0 0 1-.062-.109c-.009-.016-.02-.032-.026-.048a.814.814 0 0 1-.048-.148l-.01-.03a.905.905 0 0 1 0-.375c.003-.01.008-.02.01-.03z"/>
</svg>
