<svg xmlns="http://www.w3.org/2000/svg" width="23" height="17" viewBox="0 0 23 17">
    <g fill="#EA7600" fill-rule="evenodd">
        <path d="M14.043 4.909c.104 1.982-.738 3.926-2.02 5.106v.296l3.081 1.056c1.596.547 2.668 2.012 2.668 3.645V17h4.705c.29 0 .523-.224.523-.5v-1.488c0-1.212-.794-2.298-1.976-2.704l-3.774-1.293v-1.46c1.24-.963 2.056-2.591 2.025-4.44-.58.23-1.37.295-1.624.295-.992 0-1.772-.399-2.433-1.236-.316.292-.73.536-1.175.734"/>
        <path d="M12.297.736a6.415 6.415 0 0 1 1.617 3.122c.13.594.13 1.05.13 1.05s.848-.088 1.04-.092c.199.017.524.096.702.199 2.094 1.204 3.489.1 3.489.1s-.028-.577-.108-1.019C18.703 1.756 16.852 0 14.637 0c-.859 0-1.653.276-2.34.736zM5.203 5.871c1.026 0 3.228-.677 3.585-1.334.089-.163 1.744 1.143 1.935 1.139 1.21.195 2.28-.561 2.28-.561s0-.446-.108-1.019C12.43 1.756 10.579 0 8.364 0 6.273 0 4.522 1.573 3.938 3.714c-.246 1.189-.182 1.05-.182 1.05L5.203 5.87z"/>
        <path d="M14.751 12.309l-3.774-1.293v-1.46c1.24-.964 2.056-2.593 2.025-4.441-.58.229-1.37.295-1.624.295-.991 0-1.771-.4-2.433-1.236-.74.683-1.955 1.17-3.069 1.17-.67 0-1.245-.105-2.12-.58-.185 2.037.683 3.78 1.994 4.789v1.463l-3.774 1.293C.795 12.714 0 13.799 0 15.012V16.5c0 .277.234.5.523.5h15.682a.51.51 0 0 0 .522-.5v-1.488c0-1.212-.793-2.298-1.976-2.703"/>
    </g>
</svg>
