<svg xmlns="http://www.w3.org/2000/svg" width="23" height="21" viewBox="0 0 23 21">
    <g fill="#EA7600" fill-rule="evenodd">
        <path d="M2.533 13.501c2.6.176 4.96.627 6.646 1.272a.5.5 0 0 1-.358.934c-1.596-.61-3.853-1.039-6.355-1.208a.499.499 0 0 1-.465-.533.495.495 0 0 1 .532-.465m0-3c2.6.176 4.96.627 6.646 1.272a.5.5 0 0 1-.358.934c-1.596-.61-3.853-1.039-6.355-1.208a.499.499 0 0 1-.465-.533.496.496 0 0 1 .532-.465m0-3c2.6.176 4.96.627 6.646 1.272a.5.5 0 0 1-.358.934c-1.596-.61-3.853-1.039-6.355-1.208a.499.499 0 0 1-.465-.533.495.495 0 0 1 .532-.465m0-3c2.6.176 4.96.627 6.646 1.272a.5.5 0 0 1-.358.934c-1.596-.61-3.853-1.039-6.355-1.208a.499.499 0 0 1-.465-.533.496.496 0 0 1 .532-.465M0 .5V17a.5.5 0 0 0 .5.5c5.913 0 10.5 1.613 10.5 3V2.329C9.095.847 4.747 0 .5 0a.5.5 0 0 0-.5.5M20.533 11.498c-2.5.17-4.758.599-6.354 1.209a.5.5 0 1 1-.358-.934c1.688-.646 4.047-1.096 6.645-1.272a.5.5 0 0 1 .067.998zm0 3c-2.5.17-4.758.598-6.354 1.208a.5.5 0 1 1-.358-.933c1.688-.646 4.047-1.096 6.645-1.272a.493.493 0 0 1 .533.466.5.5 0 0 1-.466.531zM17 1.52c.69-.11 2.084-.327 3-.426v6.91l-1.118-1.326a.5.5 0 0 0-.736-.032L17 7.793V1.519zM22.5 0C19.31 0 14.277.558 12 2.33V20.5c0-1.387 4.586-3 10.5-3a.5.5 0 0 0 .5-.5V.5a.5.5 0 0 0-.5-.5z"/>
    </g>
</svg>
