<svg xmlns="http://www.w3.org/2000/svg" width="24" height="24" viewBox="0 0 24 24">
    <g fill="#C7C7C7" fill-rule="evenodd">
        <path d="M23.5 23H23V8.5a.5.5 0 0 0-.5-.5h-3a.5.5 0 0 0-.5.5V23h-2v-7.5a.5.5 0 0 0-.5-.5h-3a.5.5 0 0 0-.5.5V23h-2v-9.5a.5.5 0 0 0-.5-.5h-3a.5.5 0 0 0-.5.5V23H5v-4.5a.5.5 0 0 0-.5-.5h-3a.5.5 0 0 0-.5.5V23H.5a.5.5 0 0 0 0 1h23a.5.5 0 0 0 0-1"/>
        <path d="M3 13c1.011 0 1.776-1.005 1.402-2.018l3.836-3.197a1.471 1.471 0 0 0 1.938-.366l3.327 1.108A1.5 1.5 0 0 0 15 10c1.117 0 1.889-1.21 1.295-2.244l4.167-4.86c1.004.39 2.038-.368 2.038-1.396C22.5.672 21.826 0 21 0c-1.122 0-1.886 1.214-1.296 2.243l-4.166 4.861a1.475 1.475 0 0 0-1.715.476l-3.326-1.108A1.501 1.501 0 0 0 9 5C7.977 5 7.225 6.021 7.598 7.018l-3.837 3.196C2.742 9.61 1.5 10.36 1.5 11.5c0 .827.673 1.5 1.5 1.5"/>
    </g>
</svg>
