<svg xmlns="http://www.w3.org/2000/svg" xmlns:xlink="http://www.w3.org/1999/xlink" width="280" height="247" viewBox="0 0 280 247">
    <defs>
        <path id="a" d="M271.19 90.856c-9.97-20.575-33.597-69.58-107.895-84.616C88.996-8.797 31.786 4.006 10.239 37.518c-21.546 33.513-16.345 121.39 87.673 187.67 54.755 34.89 125.348 25.769 158.256-14.894 29.607-36.585 27.653-93.373 15.022-119.438z"/>
    </defs>
    <g fill="none" fill-rule="evenodd">
        <mask id="b" fill="#fff">
            <use xlink:href="#a"/>
        </mask>
        <use fill="#D4EAE4" transform="rotate(-180 139.954 123.391)" xlink:href="#a"/>
        <g mask="url(#b)">
            <path fill="#12B2A6" d="M288.838 50.829c-.063.293-.122.587-.191.877-2.16 9.974-5.69 19.586-10.94 28.413a81.634 81.634 0 0 1-12.86 16.467c-2.616 2.586-5.468 5.042-8.86 6.813-4.752 2.486-10.308 3.495-15.768 4.32-5.671.86-11.421 1.579-17.155 2.354-2.037.27-4.062.557-6.076.86-5.54.821-11.039 1.771-16.407 3.03-6.636 1.554-13.068 3.588-19.144 6.45-.485.22-.965.453-1.439.7a78.599 78.599 0 0 0-3.514 1.853c-.234.135-.464.253-.692.385-.685.383-1.356.775-2.028 1.171l-.027.016a73.4 73.4 0 0 0-1.317.795c-2.483 1.51-4.913 3.086-7.344 4.673l-1.528.989-2.368 1.533c-.46.3-.932.6-1.396.897-.33.218-.659.435-1.018.66a132.812 132.812 0 0 1-6.553 3.9 72.951 72.951 0 0 1-11.336 5.118l-.053.02a51.655 51.655 0 0 1-6.02 1.7 44.599 44.599 0 0 1-3.547.63 37.978 37.978 0 0 1-9.616.136c-6.28-.729-12.166-3.142-18.443-3.957-12.922-1.649-25.473 3.663-37.625 7.825a218.65 218.65 0 0 1-9.03 2.872 232.81 232.81 0 0 1-6.077 1.705 228.373 228.373 0 0 1-38.103 6.69c-5.379.528-10.79.648-16.187.36a59.368 59.368 0 0 1-6.072-.66c-6.817-1.055-13.174-3.268-18.304-7.32-4.203-3.327-7.21-7.663-9.498-12.2a53.285 53.285 0 0 1-5.24-16.781 51.984 51.984 0 0 1-.369-3.607 51.694 51.694 0 0 1 2.266-19.076c2.174-6.898 5.796-13.519 7.39-20.47.066-.294.129-.588.188-.88.218-1.056.38-2.123.484-3.195.813-8.54-2.305-16.867-4.752-25.219a134.282 134.282 0 0 1-1.011-3.657c-2.266-8.83-2.895-18.284-.876-27.097.062-.294.138-.587.21-.878a39.694 39.694 0 0 1 7.45-15.276c3.78-4.749 8.744-8.702 14.046-12.174a103.152 103.152 0 0 1 8.016-4.745c1.976-1.055 4-2.055 6.072-2.998 16.615-7.584 35.568-11.286 54.31-10.469.988.043 1.976.096 2.964.168.988.073 2.068.159 3.102.254 12.074 1.174 23.82 4.007 35.486 7.103 3.909 1.039 7.811 2.104 11.71 3.149 1.736.462 3.468.923 5.204 1.372 8.5 2.199 17.125 4.19 25.859 5.678 2.022.35 4.046.668 6.073.956a173.74 173.74 0 0 0 21.238 1.804c2.764.055 5.53.03 8.296-.073 1.396-.05 2.794-.126 4.192-.227 14.441-1.02 28.398-4.429 42.378-7.614 2.022-.462 4.048-.917 6.076-1.365a347.583 347.583 0 0 1 7.996-1.679c16.641-3.274 31.474-1.391 46.946 5.365 3.518 1.534 7.031 3.387 9.185 6.265 2.154 2.879 2.694 6.414 3.096 9.826.57 4.86.942 9.784 1.083 14.733 0 .29 0 .584.02.877.224 9.998-.52 20.091-2.552 29.855z" opacity=".1"/>
            <path fill="#12B2A6" fill-rule="nonzero" d="M177.972 79.81h-1.086v.878h1.23l-.144-.878zm-12.321 0a.056.056 0 0 0 0 .023c-.03.24-.063.48-.096.724v.132h9.415v-.053l.658-.826h-9.977zm-25.232 0V51.442h10.83c-.115-.076-.233-.155-.355-.228l-.158-.102-.204-.125c-.119-.069-.237-.138-.362-.204-.125-.066-.201-.112-.307-.168l-.072-.04h-9.372v-1.563l-.253.099-.267.125h-.02l-.055.03-.168.088-.168.09a9.62 9.62 0 0 0-.494.289l-.158.105-.33.211c-.424.283-.842.58-1.273.856-.109.069-.217.138-.33.2-.233.139-.473.27-.72.39a2.75 2.75 0 0 1-.33.14l-.177.07-.165.056a7.709 7.709 0 0 1-1.185.31v27.732h-16.238c0 .033.023.06.033.092.089.264.178.524.263.787h15.965v30.406h.247l.287.017.516.03.827.098.378.036.412.043h.062l.728.089.154.02.353.05.503.072 1.208-.053.165.03c.066 0 .135.02.204.032V80.69h25.13v-.132c.032-.244.065-.484.095-.724a.056.056 0 0 1 0-.023h-25.199zm37.553 0h-1.086v.878h1.23l-.144-.878zm-13 0l-.114.879h10.497l.714-.88h-11.096zm-24.553 0V51.442h10.83c-.115-.076-.233-.155-.355-.228l-.158-.102-.204-.125c-.119-.069-.237-.138-.362-.204-.125-.066-.201-.112-.307-.168l-.072-.04h-9.372v-1.563l-.253.099-.267.125h-.02l-.055.03-.168.088-.168.09a9.62 9.62 0 0 0-.494.289l-.158.105-.33.211c-.424.283-.842.58-1.273.856-.109.069-.217.138-.33.2-.233.139-.473.27-.72.39a2.75 2.75 0 0 1-.33.14l-.177.07-.165.056a7.709 7.709 0 0 1-1.185.31v27.732h-16.238c0 .033.023.06.033.092.089.26.18.524.266.787h15.962v30.403h.247l.287.016.516.03.827.102.378.036.412.043h.062l.728.089.154.02.353.05.503.072 1.208-.053.165.03c.066 0 .135.02.204.032V80.69h24.471c.04-.293.076-.586.115-.88h-24.56zm82.144-59.074h68.294c0-.293 0-.586-.02-.876h-68.274v-34.442a411 411 0 0 0-6.074 1.363v33.08h-74.276l-.187-.169.283-.25 27.628-24.83c-2.765.106-5.53.13-8.292.073L140.416 13.76V-7.11a202.775 202.775 0 0 1-6.07-.955V12.8l-31.038-27.901c-3.898-1.044-7.798-2.107-11.706-3.144l42.21 37.938-.187.168H56.137v-45.168a134.097 134.097 0 0 0-3.101-.253 99.225 99.225 0 0 0-2.963-.168v45.59H-4.222v-35.138a119.65 119.65 0 0 0-6.07 2.993V19.86h-29.497c-.073.29-.148.583-.211.876h29.708v29.83h-28.075c.082.293.168.586.253.876h27.822V79.81h-23.556c-.059.292-.121.585-.187.879h23.743v79.317c1.975.306 4.02.52 6.07.658V80.69h54.285v72.93a232.91 232.91 0 0 0 6.074-1.702V80.69h78.212v63.719a51.677 51.677 0 0 0 6.018-1.699l.052-.02v-62h76.07v29.886c2.02-.297 4.044-.58 6.074-.853V80.689h54.09c.178-.293.352-.586.527-.88h-54.617V51.443h65.552c.07-.29.128-.583.191-.876h-65.743v-29.83zm-226.785 0h54.285v29.83H-4.222v-29.83zm0 59.074V51.442h54.285V79.81H-4.222zm60.359-59.074h78.212v29.83H56.137v-29.83zm0 59.074V51.442h78.212V79.81H56.137zm160.352 0h-76.07V51.442h76.07V79.81zm0-29.244h-76.07v-29.03l1.067-.8h75.003v29.83zM165.651 79.81a.056.056 0 0 0 0 .023c-.03.24-.063.48-.096.724v.132h9.415v-.053l.658-.826h-9.977zm12.321 0h-1.086v.878h1.23l-.144-.878zm-37.553 0V51.442h10.83c-.115-.076-.233-.155-.355-.228l-.158-.102-.204-.125c-.119-.069-.237-.138-.362-.204-.125-.066-.201-.112-.307-.168l-.072-.04h-9.372v-1.563l-.253.099-.267.125h-.02l-.055.03-.168.088-.168.09a9.62 9.62 0 0 0-.494.289l-.158.105-.33.211c-.424.283-.842.58-1.273.856-.109.069-.217.138-.33.2-.233.139-.473.27-.72.39a2.75 2.75 0 0 1-.33.14l-.177.07-.165.056a7.709 7.709 0 0 1-1.185.31v27.732h-16.238c0 .033.023.06.033.092.089.264.178.524.263.787h15.965v30.406h.247l.287.017.516.03.827.098.378.036.412.043h.062l.728.089.154.02.353.05.503.072 1.208-.053.165.03c.066 0 .135.02.204.032V80.69h25.13v-.132c.032-.244.065-.484.095-.724a.056.056 0 0 1 0-.023h-25.199z" opacity=".1"/>
            <path fill="#12B2A6" d="M38.504 6.65h.589a1.194 1.194 0 0 1-.72-.96c0-.757 1.131-1.375 2.513-1.375H58.48c1.383 0 2.51.618 2.51 1.376 0 .753-1.127 1.375-2.51 1.375h-.588c.395.164.67.53.72.955 0 .647-.823 1.19-1.922 1.335h5.065c1.379 0 2.51.617 2.51 1.375s-1.131 1.375-2.51 1.375H44.157c-1.378 0-2.51-.622-2.51-1.375 0-.647.824-1.186 1.922-1.334h-5.065c-1.382 0-2.51-.618-2.51-1.376 0-.757 1.128-1.37 2.51-1.37zM229.187 19.733h.588a1.194 1.194 0 0 1-.716-.96c0-.758 1.128-1.375 2.51-1.375h17.594c1.382 0 2.514.617 2.514 1.375 0 .754-1.132 1.371-2.514 1.371h-.584c.393.169.666.535.716.96 0 .646-.823 1.19-1.922 1.334h5.065c1.383 0 2.51.618 2.51 1.375 0 .758-1.127 1.376-2.51 1.376h-17.594c-1.382 0-2.513-.622-2.513-1.376 0-.646.822-1.19 1.921-1.334h-5.065c-1.378 0-2.51-.618-2.51-1.375 0-.758 1.132-1.371 2.51-1.371zM11.5 75.719h.585a1.19 1.19 0 0 1-.716-.96c0-.753 1.131-1.375 2.51-1.375h17.598c1.378 0 2.51.622 2.51 1.375 0 .758-1.132 1.376-2.51 1.376h-.589c.394.165.668.53.716.955 0 .647-.823 1.19-1.921 1.334h5.065c1.382 0 2.514.622 2.514 1.376 0 .753-1.132 1.375-2.514 1.375H17.17c-1.382 0-2.51-.618-2.51-1.375 0-.643.823-1.186 1.922-1.335h-5.081c-1.383 0-2.514-.617-2.514-1.375s1.148-1.371 2.514-1.371z" opacity=".1"/>
            <path fill="#585B8A" d="M150.958 140.419s-1.008 6.716 2.016 6.802c3.024.087 5.044-5.18 5.044-5.18l-1.234-4.213-5.826 2.59z"/>
            <path fill="#EE936F" d="M125.201 160.913l3.74 7.49s5.382 7.61-.934 10.534c-6.316 2.924-6.196-16.85-6.196-16.85l3.39-1.174z"/>
            <path fill="#005A70" d="M109.529 95.958s4.094 1.874 6.55 9.714c2.456 7.84 5.732 21.186 5.732 21.186s2.221 15.096 1.868 18.844a24.315 24.315 0 0 0 .119 6.201l3.156 10.534-6.316 2.223-9.706-37.217-1.403-31.485z"/>
            <path fill="#505759" d="M120.988 248.228c-2.806 5.847.588 9.13.588 9.13-3.41 7.728-15.005 4.862-18.227 3.89-.53-.156-.823-.263-.823-.263s.234-8.08-.584-11.942c-.82-3.862-.704-20.128-.235-22.117.47-1.989.7-5.855.7-5.855s-.35-4.563.234-6.786a3.506 3.506 0 0 0-.872-3.451l-.062-.062s-2.571 8.78-3.51 10.295c-.938 1.515-1.283 9.129-1.403 10.533-.119 1.404-4.912 13.111-4.912 13.111s-1.868 5.382-2.218 6.902c-.35 1.52-1.757 5.855-1.757 5.855l-5.637 10.888c-2.69 1.17-9.356.235-9.356.235s-1.284-1.647-3.04-4.332c-1.758-2.685-2.572-12.168-2.572-12.168s6.43-.12 4.793-6.321c-1.638-6.202 1.403-11.003 1.288-13.112-.115-2.108 1.403-9.01 2.222-10.064.818-1.054.7-5.501.465-7.96-.235-2.458-.116-11.118-.116-11.118s.235-3.862 1.403-5.616c1.169-1.755.704-6.79.704-6.79s2.218-1.17.7-12.523c-1.519-11.353 2.468-26.099 2.468-26.099l.136-2.059.214-3.335s33.447-2.109 36.138.465a8.878 8.878 0 0 1 1.707 2.45 24.392 24.392 0 0 1 1.934 6.23l1.403 35.463 1.403 26.1-.469 19.662s.103 4.908-2.707 10.764z"/>
            <path fill="#EE936F" d="M90.528 77.177s2.979 7.198 1.403 10.887c-1.576 3.69 17.014 10.007 17.014 10.007s-5.436-14.046-.173-21.949c5.262-7.902-18.244 1.055-18.244 1.055z"/>
            <path fill="#000" d="M166.832 168.729l.177 25.716s.613 19.312.613 21.948c0 2.635.086 8.511.086 8.511s1.317 7.199 2.107 9.57c.79 2.372 1.403 13.178 1.403 13.178s1.843 2.985 1.053 4.117c-.79 1.133 3.07 3.6 3.07 3.6s-2.47 3.425-2.63 5.707c-.16 2.281 19.643 5.522 19.643 5.522l-7.715-79.174-6.143-19.836-11.664 1.14z"/>
            <path fill="#000" d="M203.496 272.482c-5.616 14.413-19.56 3.6-19.56 3.6s-.44-7.462.44-10.884c.88-3.422-.967-13.696-.967-13.696s-1.053-9.13-2.016-11.234c-.963-2.104-.877-6.32-.877-6.67 0-.35.35-3.163-.44-5.095-.79-1.93-1.234-6.67-1.234-6.67s0-6.671-.79-10.62l-2.72-13.59-4.913-27.828 1.535-.263 27.497-4.826s5.177 26.354 3.42 29.055c-.379.593-.712 1.89-.988 3.562-1.004 5.98-1.378 16.714-1.378 16.714s3.419 5.354 2.106 9.13c-1.312 3.776 1.235 10.006 1.235 10.006s.79 24.58-.704 27.038c-1.493 2.458.354 12.271.354 12.271z"/>
            <path fill="#EE936F" d="M200.863 92.8s-24.91 17.554-19.297 8.775c3.024-4.727 2.468-10.748 1.283-15.294a36.108 36.108 0 0 0-2.468-6.708s21.165-9.01 18.359-.935a15.14 15.14 0 0 0-.823 5.864 15.656 15.656 0 0 0 2.946 8.298zM156.015 133.002s-10.525-3.043-12.278-.057c-1.753 2.985.527 9.537 3.703 10.59 3.176 1.055 10.467-3.57 10.467-3.57l-1.892-6.963zM111.75 69.447a13.15 13.15 0 0 1-10.89 12.967 13.14 13.14 0 0 1-14.624-8.527 13.157 13.157 0 0 1 5.898-15.876 13.134 13.134 0 0 1 16.638 3.106 13.184 13.184 0 0 1 2.979 8.33z"/>
            <path fill="#005A70" d="M121.05 147.662c-.264 1.49-5.703 3.772-5.703 3.772s-6.666-.964-7.629.177c-.962 1.14-9.463 1.581-9.463 1.581s-12.981-.618-14.91-2.285c-1.93-1.668-6.23-2.471-6.23-2.471s-2.193-15.623-1.313-19.045c.88-3.422-1.316-12.819-1.843-16.154-.527-3.336 1.49-12.552 3.946-14.042 2.456-1.49 5.966-6.498 8.068-7.989 1.774-1.256 3.732-2.882 4.304-3.372l.169-.14s.354-2.722 1.757-4.118c1.403-1.396 14.293 8.865 14.293 8.865s.091.791.967-.7c.198-.333 1.897 2.121 2.193 3.159 0 0 7.016 12.292 7.456 14.824.44 2.533 2.28 10.797 2.63 12.815.09.519.238 2.339.41 4.777.033.477.062.984.1 1.51.258 4.045.538 9.208.707 13.112 0 .445.037.873.05 1.285.088 1.478.102 2.96.04 4.439z"/>
            <path fill="#000" d="M105.525 93.063l-1.448 3.509 2.411 1.14 2.37 6.63s6.534 13.078 6.27 19.881c-.263 6.803 1.186 17.027 1.186 17.027l3.769-.7-1.778-20.008a28.88 28.88 0 0 0-2.296-8.981c-3.012-6.902-8.616-19.643-8.97-19.643-.48 0-.143.178-.143.178l-1.37.967z" opacity=".1"/>
            <path fill="#FFF" d="M105.875 92.71l-1.448 3.512 2.415 1.14 2.366 6.63s6.534 13.078 6.27 19.881c-.263 6.803 1.185 17.027 1.185 17.027l3.773-.7-1.781-20.008a28.77 28.77 0 0 0-2.292-8.981c-3.012-6.906-8.616-19.643-8.965-19.643-.486 0-.149.178-.149.178l-1.374.963z"/>
            <path fill="#000" d="M156.015 133.002s-10.525-3.043-12.278-.057c-1.753 2.985.527 9.537 3.703 10.59 3.176 1.055 10.467-3.57 10.467-3.57l-1.892-6.963z" opacity=".09"/>
            <path fill="#003057" d="M168.062 127.826l-4.386 4.04s-7.633.7-9.826.173c0 0 2.02 13.519-.876 15.186l17.717-3.599-2.63-15.8z"/>
            <path fill="#000" d="M94.7 70.975c.309.26.465.663.749.951a2.41 2.41 0 0 0 1.74.577c1.617.025 3.39-.667 4.033-2.154.204-.541.328-1.11.366-1.688l.56-4.909c.106-.947.287-2.021 1.09-2.54 1.308-.824 3.044.47 4.571.136a2.236 2.236 0 0 0 1.646-2.578c-.177-.787-.778-1.409-1.086-2.158a14.109 14.109 0 0 1-.449-1.758c-.852-3.196-4.6-4.991-7.859-4.456-1.81.3-3.493 1.166-5.307 1.43-1.3.188-2.63.065-3.942.205a9.943 9.943 0 0 0-3.497 1.034c-.287.127-.54.318-.741.56a3.094 3.094 0 0 0-.37 1.054c-.44 1.647-1.856 2.862-2.88 4.25a10.131 10.131 0 0 0-1.95 5.48c-.041.506.006 1.014.14 1.503.086.288.221.569.287.865.202.902-.26 1.804-.485 2.701a5.407 5.407 0 0 0 .288 3.435c1.58 3.636 6.784 4.85 7.867 8.668.96.46 1.998.74 3.06.823 1.062.02 2.206-.436 2.7-1.38 1.296-2.47-1.798-4.389-2.67-6.349-.548-1.206.065-5.431 2.14-3.702z"/>
            <path fill="#EE936F" d="M202.735 73.372c0 7.564-6.127 13.696-13.685 13.696-7.558 0-13.685-6.132-13.685-13.696s6.127-13.696 13.685-13.696a13.675 13.675 0 0 1 9.678 4.01 13.697 13.697 0 0 1 4.007 9.686z"/>
            <path fill="#FFF" d="M202.15 95.843s-2.575 2.808-2.925 3.039c-.35.23-7.817 31.707-7.95 32.074-.13.366-8.89 28.788-8.89 28.788l-14.035 6.905 1.173-34.763 10.286-28.668s3.394-3.863 4.443-5.267c1.05-1.404 14.15-9.833 14.15-9.833l2.239 4.616 1.51 3.109z"/>
            <path fill="#000" d="M200.295 93.438l-16.137 11.563-.26-6.35c1.054-1.404 14.15-9.83 14.15-9.83l2.247 4.617z" opacity=".1"/>
            <path fill="#EE936F" d="M148.588 144.298c-1.835-.14-6.238-2.368-7.986-3.295l-.741-.412.09-6.798c.433-.255.88-.481 1.342-.68 2.337-1.02 7.13-2.408 9.533 2.06 3.242 5.99.087 9.281-2.238 9.125z"/>
            <path fill="#FFF" d="M200.645 92.734l-16.137 11.563-.251-6.346c1.053-1.408 14.15-9.833 14.15-9.833l2.238 4.616z"/>
            <path fill="#003057" d="M183.718 95.126l.539 2.825-3.609 3.67 2.88-6.454s-6.171 4.304-8.023 5.444c-1.852 1.14-3.703 5.003-3.773 6.058-.07 1.054-2.983 16.94-2.983 16.94s-2.193 5.88-1.576 7.548c.617 1.668-3.333 54.25-3.333 54.25a7.818 7.818 0 0 1 5.275-4.049l-1.407-31.073s1.712-20.672 1.798-20.935l3.991-12.247 10.22-21.977z"/>
            <path fill="#007FA3" d="M184.257 97.951l-.276 5.765s-3.905 12.333-5.221 14.35c-1.317 2.019-5.304 14.047-5.304 14.047l-2.238 20.89-3.86 1.754-1.93-3.509 3.16-20.177s5.962-17.031 6.839-18.786l4.431-9.26 4.399-5.074z"/>
            <path fill="#EE936F" d="M138.767 141.954l7.541 5.226s5.32-2.985 2.222-4.917c-3.098-1.93-5.846-2.223-6.842-2.223-.996 0-2.921 1.914-2.921 1.914z"/>
            <path fill="#000" d="M138.767 141.954l7.541 5.226s5.32-2.985 2.222-4.917c-3.098-1.93-5.846-2.223-6.842-2.223-.996 0-2.921 1.914-2.921 1.914z" opacity=".09"/>
            <path fill="#EE936F" d="M144.4 132.294c-.343.213-.55.589-.548.992 0 1.602.181 5.844 1.522 3.929 1.646-2.343 1.346-4.447 3.86-2.928 1.562.974 2.93 2.23 4.032 3.706l-.7-5.032s-5.167-2.553-8.167-.667z"/>
            <path fill="#000" d="M144.4 132.294c-.343.213-.55.589-.548.992 0 1.602.181 5.844 1.522 3.929 1.646-2.343 1.346-4.447 3.86-2.928 1.562.974 2.93 2.23 4.032 3.706l-.7-5.032s-5.167-2.553-8.167-.667z" opacity=".09"/>
            <path fill="#003057" d="M218.666 115.18c-.7 2.286-.436 6.935-.436 6.935l-6.316 29.846s-3.07 22.998-3.596 26.07c-.526 3.072-1.403 16.59-1.403 16.59-17.894 8.78-31.682-3.158-31.682-3.158a134.663 134.663 0 0 1-3.332-14.046c-.88-5.213 1.711-26.099 2.937-35.376.367-2.747.614-4.476.614-4.476l4.604-17.118s5.657-14.441 7.764-18.654c2.106-4.212 10.566-13.675 10.566-13.675 1.049-.667 2.728 1.688 3.974 3.833a44.562 44.562 0 0 1 1.646 3.13s10.525 4.563 12.101 7c1.576 2.438 1.317 7.462 1.494 7.725.176.264 1.769 3.093 1.065 5.374z"/>
            <path fill="#003057" d="M193.498 104.21s.786 4.653-1.235 6.058c-2.02 1.404-16.499 29.986-17.416 31.773.366-2.747.613-4.476.613-4.476l4.604-17.118s5.657-14.441 7.764-18.654c2.107-4.212 10.566-13.675 10.566-13.675 1.05-.667 2.728 1.688 3.975 3.833-1.872 3.904-5.798 11.296-8.871 12.26z"/>
            <path fill="#D4EAE4" d="M214.37 146.258l-4.95 25.773v.004l-.472 2.467v.004l-1.066 5.547-4.546-.964-2.12-.449-29.324-6.218-2.156-.457-4.92-1.041.962-6.4.4-2.66 3.55-23.595z"/>
            <path fill="#EE936F" d="M187.005 167.325s-11.665 4.212-9.122 9.215c2.543 5.004 18.857-3.862 18.857-3.862l-9.735-5.353z"/>
            <path fill="#000" d="M202.735 73.372a13.694 13.694 0 0 1-6.86 11.871 7.284 7.284 0 0 1-2.056-1.717c-.597-.724-1.062-1.713-.704-2.577.288-.696 1.05-1.137 1.234-1.858.088-.44.065-.896-.065-1.326-.153-.679-.297-1.358-.445-2.034-.127-.576-.354-1.256-.925-1.396-.572-.14-1.05.338-1.498.692-1.099.869-3.205 1.458-4.526.745-1.32-.712-.95-3.096-1.165-4.385a.766.766 0 0 0-.288-.58 1.2 1.2 0 0 0-.596-.042c-.712 0-1.284-.638-1.49-1.322a11.387 11.387 0 0 1-.238-2.12c-.078-.713-.338-1.466-.947-1.833a2.923 2.923 0 0 0-1.559-.255l-2.58.029a13.679 13.679 0 0 1 15.275-4.867 13.695 13.695 0 0 1 9.412 12.987l.02-.012z" opacity=".1"/>
            <path fill="#000" d="M191.782 75.027c.448-.354.942-.824 1.498-.688.555.136.794.824.921 1.392l.445 2.03c.131.431.155.888.07 1.33-.21.725-.967 1.162-1.26 1.858-.357.864.112 1.853.704 2.573a7.405 7.405 0 0 0 4.234 2.533c.433.104.884.114 1.32.028.98-.226 1.647-1.128 2.173-1.972 2.72-4.241 5.061-8.89 5.538-13.906a8.926 8.926 0 0 0-.14-3.068 10.3 10.3 0 0 0-.938-2.244 18.12 18.12 0 0 0-2.645-4.007c-1.872-2.017-4.456-3.257-7.11-3.99a24.06 24.06 0 0 0-9.18-.72c-.823.094-1.612.23-2.423.284-1.018.047-2.037.03-3.053-.05l-6.057-.362c-.345.704 0 1.54.412 2.199.411.659.922 1.342.889 2.125-.033.782-.589 1.4-1.017 2.059-.428.658-.753 1.51-.325 2.153s1.3.684 2.058.676l3.053-.033a2.915 2.915 0 0 1 1.55.267c.61.367.869 1.124.947 1.833.017.712.097 1.422.239 2.12.21.684.777 1.33 1.49 1.322.198-.04.405-.024.596.045.177.14.282.351.288.577.214 1.289-.181 3.669 1.164 4.385 1.346.717 3.46.12 4.559-.749z"/>
            <path fill="#003057" d="M209.874 102.077a6.706 6.706 0 0 0-7.049 4.51c-1.645 4.69-4.39 13.152-3.703 16.495.963 4.74 2.103 12.642 2.103 12.642s4.999 2.883 2.469 5.79-3.243 7.025-3.243 7.025-3.246 1.404-3.95 4.39c-.703 2.985-5.435 7.107-5.435 7.107l-7.106 7.112s11.751 11.941 14.121 12.55l7.279-8.515 8.575-11.41 7.455-7.824s1.757-4.118.876-11.942c-.88-7.824-4.295-15.273-4.295-15.273l.263-2.636s.819-18.88-8.36-20.02z"/>
            <path fill="#000" d="M183.54 95.517l-2.892 6.453 3.613-3.669z" opacity=".1"/>
            <path fill="#FFF" d="M183.54 95.167l-2.892 6.453 3.613-3.669z"/>
            <path fill="#12B2A6" d="M171.892 172.422l-2.156-.457-3.958-7.44.4-2.66zM209.42 172.035l-.472 2.467v.004l-5.612 4.583-2.12-.449z" opacity=".3"/>
            <path fill="#005A70" d="M85.175 97.976s-9.821 1.845-5.349 14.132c4.473 12.288 19.997 25.284 19.997 25.284s12.718 6.317 18.07 5.617c5.354-.7 13.504-2.545 14.558-2.282 1.053.264 8.159.264 8.159.264l.35-8.236-8.23-.44-4.209-.877s-1.493-1.236-2.37-1.055c-.876.182-2.715-1.054-2.715-1.054s-1.407-1.14-2.469-1.14c-1.061 0-3.07-.264-3.07-.964s-1.58-1.235-2.88-1.14c-1.3.094-4.406-1.141-4.768-2.653-.362-1.51-.613-2.28-1.753-3.158-1.14-.877-5.789-8.956-5.789-8.956s-2.72-2.018-2.633-3.595c.086-1.577-.877-4.04-2.016-5.008-1.14-.967-9.205-6.843-12.883-4.74zM106.488 92.446s-1.839 6.057-2.543 6.057c-.555 0-9.813-7.503-13.676-10.657l.169-.14s.353-2.722 1.756-4.118c1.403-1.396 14.294 8.858 14.294 8.858z"/>
            <g fill="#000" opacity=".15">
                <path d="M81.649 72.87c1.234 2.82 4.633 4.187 6.604 6.435-1.173-2.763-4.6-4.117-6.604-6.436zM94.227 79.367c-.49.943-1.646 1.4-2.7 1.38a7.87 7.87 0 0 1-2.706-.692c.31.457.545.96.699 1.49.96.463 1.999.742 3.061.824 1.066.025 2.21-.432 2.7-1.38.785-1.502-.034-2.787-.992-4.002.362.757.34 1.643-.062 2.38z"/>
            </g>
            <path fill="#FFD037" d="M14.38 218.588c0 .519-.06.939-.13.939s-.133-.412-.133-.94c0-.526.075-.271.144-.271.07 0 .12-.247.12.272zM4.239 218.588c0 .519.057.939.127.939s.132-.412.132-.94c0-.526-.074-.271-.144-.271-.07 0-.115-.247-.115.272z"/>
        </g>
    </g>
</svg>
