<svg xmlns="http://www.w3.org/2000/svg" xmlns:xlink="http://www.w3.org/1999/xlink" width="280" height="247" viewBox="0 0 280 247">
    <defs>
        <path id="a" d="M271.224 90.886c-9.972-20.582-33.601-69.602-107.91-84.644C89.008-8.8 31.79 4.007 10.242 37.53-11.31 71.054-6.107 158.96 97.924 225.262c54.762 34.902 125.364 25.778 158.276-14.899 29.61-36.596 27.656-93.403 15.024-119.477z"/>
    </defs>
    <g fill="none" fill-rule="evenodd">
        <mask id="b" fill="#fff">
            <use xlink:href="#a"/>
        </mask>
        <use fill="#FFB81C" opacity=".104" transform="rotate(-180 139.971 123.432)" xlink:href="#a"/>
        <g mask="url(#b)">
            <g transform="translate(-15.714 18.51)">
                <g fill="#3F3D56" opacity=".1" transform="translate(118 138.366)">
                    <path d="M1.464 36.274c.015.336.04.665.075.987 2.779-1.108 5.506-2.3 8.182-3.575a6.63 6.63 0 0 0 3.783-1.851c.782-.394 1.56-.805 2.332-1.216a9.59 9.59 0 0 0-.593-1.072c-1.504-2.377-3.79-3.864-6.307-3.782-2.518.082-4.697 1.716-6.043 4.179a12.327 12.327 0 0 0-1.429 6.33z"/>
                    <path d="M1.054 23.774c.053 2.19.688 4.327 1.839 6.191 1.507 2.37 3.793 3.857 6.31 3.775.176 0 .358-.025.518-.04a6.63 6.63 0 0 0 3.783-1.851 9.103 9.103 0 0 0 1.739-2.28 12.814 12.814 0 0 0-.407-12.511c-1.507-2.378-3.793-3.865-6.311-3.782-2.518.082-4.693 1.715-6.04 4.178a12.33 12.33 0 0 0-1.431 6.32z"/>
                    <ellipse cx="8.456" cy="11.012" rx="7.811" ry="10.234" transform="rotate(-1.88 8.456 11.012)"/>
                </g>
                <g opacity=".1" transform="translate(6.786 160.557)">
                    <path fill="#3F3D56" d="M31.057 71.033a8.795 8.795 0 0 1-1.3 4.407c-1.071 1.687-2.696 2.749-4.486 2.692l-.357-.029a4.716 4.716 0 0 1-2.693-1.312 6.434 6.434 0 0 1-1.239-1.623 9.133 9.133 0 0 1 .279-8.897c1.071-1.694 2.696-2.752 4.485-2.695 1.79.057 3.343 1.215 4.304 2.967a8.764 8.764 0 0 1 1.007 4.49z"/>
                    <ellipse cx="25.791" cy="61.976" fill="#3F3D56" rx="7.281" ry="5.557" transform="rotate(-88.19 25.791 61.976)"/>
                    <ellipse cx="26.069" cy="53.081" fill="#3F3D56" rx="7.281" ry="5.557" transform="rotate(-88.19 26.069 53.08)"/>
                    <ellipse cx="26.35" cy="44.182" fill="#3F3D56" rx="7.281" ry="5.557" transform="rotate(-88.19 26.35 44.182)"/>
                    <path fill="#000" d="M54.468.604a26.562 26.562 0 0 1-6.21 16.289c8.234 11.189 6.494 26.833-3.998 35.936-10.492 9.102-26.212 8.605-36.109-1.142C-1.746 41.94-2.496 26.217 6.43 15.57 3.004 10.923 54.568-2.388 54.468.604z"/>
                </g>
                <g opacity=".1" transform="translate(192.857 114.088)">
                    <path fill="#3F3D56" d="M30.696 79.912c0 .24-.025.472-.05.715a101.739 101.739 0 0 1-5.825-2.528 4.734 4.734 0 0 1-2.696-1.311c-.554-.283-1.11-.572-1.66-.865.125-.261.266-.514.42-.758 1.072-1.695 2.694-2.753 4.486-2.695 1.793.057 3.343 1.215 4.286 2.966a8.764 8.764 0 0 1 1.04 4.476z"/>
                    <path fill="#3F3D56" d="M30.996 71.015a8.795 8.795 0 0 1-1.303 4.407C28.62 77.11 27 78.171 25.207 78.114l-.357-.029a4.734 4.734 0 0 1-2.696-1.312 6.548 6.548 0 0 1-1.24-1.623 9.133 9.133 0 0 1 .279-8.897c1.071-1.69 2.696-2.752 4.486-2.695 1.789.057 3.346 1.216 4.303 2.967a8.764 8.764 0 0 1 1.014 4.49z"/>
                    <ellipse cx="25.721" cy="61.956" fill="#3F3D56" rx="7.281" ry="5.557" transform="rotate(-88.19 25.721 61.956)"/>
                    <ellipse cx="26.002" cy="53.06" fill="#3F3D56" rx="7.281" ry="5.557" transform="rotate(-88.19 26.002 53.06)"/>
                    <ellipse cx="26.283" cy="44.165" fill="#3F3D56" rx="7.281" ry="5.557" transform="rotate(-88.19 26.283 44.165)"/>
                    <path fill="#000" d="M54.39.586a26.537 26.537 0 0 1-6.215 16.285c8.234 11.188 6.495 26.83-3.996 35.932-10.49 9.102-26.208 8.605-36.104-1.142C-1.821 41.915-2.57 26.194 6.354 15.55 2.925 10.905 54.482-2.41 54.389.586z"/>
                </g>
                <path fill="#007FA3" d="M45 164.442v80.784a893.264 893.264 0 0 1-17.675-1.04l-2.682-.19v-79.554a3.154 3.154 0 0 1 3.15-3.153H41.85a3.149 3.149 0 0 1 3.15 3.153zM71.071 245.158V109.394a3.151 3.151 0 0 1 3.15-3.153H88.28a3.149 3.149 0 0 1 3.15 3.153v136.118l-20.358-.354zM117.5 245.226v-107.95a3.151 3.151 0 0 1 3.15-3.153h14.057c1.74 0 3.15 1.411 3.15 3.152v107.719l-20.357.232zM184.286 58.278v186.716c-6.786.193-13.572.374-20.357.543V58.278a3.151 3.151 0 0 1 3.15-3.152h14.057c1.74 0 3.15 1.411 3.15 3.152zM230.714 96.883v147.628c-6.785.33-13.571.561-20.357.769V96.883a3.151 3.151 0 0 1 3.15-3.153h14.057c1.74 0 3.15 1.412 3.15 3.153z"/>
                <path stroke="#505759" stroke-linecap="round" stroke-width="2.5" d="M34.821 116.04L81.25 64.207l46.429 26.094 46.428-80.069 46.429 38.247"/>
                <ellipse cx="34.643" cy="116.039" fill="#12B2A6" rx="10" ry="10.009"/>
                <ellipse cx="81.071" cy="64.208" fill="#12B2A6" rx="10" ry="10.009"/>
                <ellipse cx="127.5" cy="90.302" fill="#12B2A6" rx="10" ry="10.009"/>
                <ellipse cx="173.929" cy="10.233" fill="#12B2A6" rx="10" ry="10.009"/>
                <ellipse cx="263.214" cy="95.307" fill="#12B2A6" rx="10" ry="10.009"/>
                <path fill="#000" d="M259.679 173.274c3.973-.4 7.97-.511 11.96-.336.264-.002.525.039.775.122.879.357 1.015 1.508 1.097 2.449.357 3.817 2.021 7.374 2.857 11.113.49 2.35.713 4.748.664 7.149a25.659 25.659 0 0 0 .057 3.217c.107.954.357 1.89.493 2.842.15 1.277.207 2.564.168 3.85a39.529 39.529 0 0 1-.34 6.03c-.55 3.406.411 6.791.669 10.237.128 2.41.398 4.81.81 7.188.197 1.005.443 1.999.579 3.01.4 3.006-.186 6.102.446 9.069.293 1.387.822 2.945.043 4.132-.243.357-.6.661-.864 1.022a1.277 1.277 0 0 0-.25 1.255c.153.325.51.54.6.886.14.547-.432.994-.947 1.226-3.875 1.752-8.871.519-11.485-2.838.45-.071 1-.396 1.01-.854a4.83 4.83 0 0 0-.292-1.33 5.366 5.366 0 0 1-.104-2.366c.104-.55.29-1.072.404-1.626.107-.608.178-1.222.214-1.838.193-2.214.628-4.4 1.296-6.52.65-2.055-.235-4.135-.468-6.28-.107-1.015-.06-2.063-.414-3.02-.214-.565-.56-1.073-.771-1.638-.49-1.319-.197-2.784.1-4.157-2.111-3.814-2.815-8.36-3.611-12.647l-1.34-7.22c-.2-1.073-.417-2.184-1.07-3.05a37.264 37.264 0 0 0-.811 9.713 14.31 14.31 0 0 1-.036 2.82c-.164 1.037-.597 2.012-.85 3.028-.554 2.24-.229 4.593-.357 6.898-.05.933-.168 1.86-.207 2.792-.175 4.118 1.21 8.122 2.578 12.007.84 2.384 1.025 5.094 1.429 7.589.357 2.391.753 4.782.943 7.195.175 2.217.253 4.615 1.632 6.356-1.261.818-2.561 1.651-4.036 1.934a7.445 7.445 0 0 1-4.971-.965 15.643 15.643 0 0 1-3.929-3.343c.29-.1.393-.522.421-.825.429-4.526-1.289-8.937-1.939-13.44a28.979 28.979 0 0 1-.171-6.814c.082-.854.2-1.708.232-2.566.171-4.472-1.982-8.78-1.904-13.255.036-2.098-1.071-4.164-1.614-6.19-.468-1.788-.482-3.682-.493-5.541l-.09-14.656c0-1.98 0-4.01.64-5.88.786-2.252-.114-4.836-.25-7.217a29.697 29.697 0 0 0 11.497 1.283z"/>
                <path fill="#EE936F" d="M246.946 131.167a46.71 46.71 0 0 0-5.467-8.64 13.7 13.7 0 0 1-1.215-1.659c-.768-1.333-.996-2.899-1.482-4.357-1.357-4.09-4.743-7.374-5.568-11.603-.3-1.537-1.278-2.86-1.95-4.29-.453-.954-.953-1.962-1.86-2.502-1.168-.715-2.783-.385-3.754.572a4.467 4.467 0 0 0-1.15 3.771c.067.623.315 1.212.714 1.695.518.582 1.293.847 1.99 1.197a7.819 7.819 0 0 1 3.842 4.393c1.19 3.45 1.343 7.103 2.858 10.434 1.514 3.332 3.292 6.527 4.6 9.934.742 1.934 1.335 3.932 2.425 5.72 1.089 1.787 2.789 3.284 4.842 3.552a11.966 11.966 0 0 1 .583-3.817c.446-1.409 1.239-3.067.592-4.4zM269.057 133.84a19.768 19.768 0 0 1 1.16-7.428c.33-.911.715-1.837.683-2.806-.046-.9-.475-1.726-.864-2.541-1.343-2.806-2.286-5.78-3.215-8.747l-1.785-5.594a8.685 8.685 0 0 1-1.568-1.484 7.903 7.903 0 0 1-1.818-3.881 5.455 5.455 0 0 1 1.004-4.104c.385-.566.995-.94 1.675-1.022.599.013 1.167.271 1.571.715a7.047 7.047 0 0 1 1.343 2.294c.582 1.373 1.175 2.803 1.121 4.29-.05 1.237-.51 2.616.215 3.62 2.371 3.297 4.167 7.082 6.046 10.682.48.857.888 1.753 1.221 2.677.46 1.498.676 3.059.643 4.625 0 2.928-.385 5.845-.785 8.747-.254 1.82-.586 3.8-1.961 5.004-1.429-1.83-2.864-3.617-4.686-5.047z"/>
                <ellipse cx="259.971" cy="127.817" fill="#EE936F" rx="7.411" ry="7.417"/>
                <path fill="#EE936F" d="M263.56 135.628c.18 1.34.897 2.541 1.597 3.7.422.714.96 1.475 1.786 1.554a35.978 35.978 0 0 1-6.732 2.71 7.61 7.61 0 0 1-2.457.396 6.008 6.008 0 0 1-2.047-.525 10.181 10.181 0 0 1-5.782-6.763c.923.024 1.845-.046 2.754-.211a2.024 2.024 0 0 0 1.35-.665c.207-.362.303-.777.278-1.194.036-1.237.04-2.477 0-3.714a14.63 14.63 0 0 1 5.386.665c.714.232 1.428.511 2.143.694.45.114 1.689 0 2.021.26.547.369-.421 2.181-.296 3.093z"/>
                <path fill="#003057" d="M260.304 140.135a4.667 4.667 0 0 1 3.55-4.15c.764-.172 1.592-.15 2.275-.53 1.171-.653 1.525-2.247 2.65-2.98 1.125-.733 2.721-.325 3.7.6.978.926 1.475 2.245 1.875 3.536.597 1.744.92 3.571.96 5.415.015.337-.038.674-.157.99-.212.369-.48.703-.793.99a4.385 4.385 0 0 0-1.071 3.493 10.017 10.017 0 0 1-.318 3.503c-.714 3.152-1.429 6.301-2.004 9.483a5.892 5.892 0 0 0-.132 1.787c.111.862.586 1.677.482 2.538a9.612 9.612 0 0 0-.225 1.219c.024.31.096.616.215.904.81 2.356 3 7.753 2.978 10.248-3.803-.975-9.41-1.193-13.339-1.211-1.08-.012-2.16.036-3.236.143-2.582.278-5.225 1.033-7.728.336-2.325-.647-4.382-2.503-6.786-2.27-.521-1.366.093-5.923.582-7.303a31.281 31.281 0 0 0 1.072-16.918c-.44-2.023.164-4.172-.325-6.18a3.687 3.687 0 0 0-.536-1.334 1.428 1.428 0 0 0-1.222-.64 45.574 45.574 0 0 1 .893-9.626c.236-1.126.715-2.456 1.868-2.649 1.022-.175 1.879.69 2.7 1.323a7.25 7.25 0 0 0 2.857 1.344c.419.05.82.197 1.172.429.489.407.56 1.14.96 1.637.715.89 2.311.815 2.818 1.84.111.307.2.62.268.937.24.61.649 1.138 1.179 1.523a6.627 6.627 0 0 0 2.818 1.573z"/>
                <path fill="#000" d="M253.95 119.932c-.129-.49-.107-1.073.286-1.401.196-.154.453-.211.664-.358.297-.25.54-.557.714-.904a3.877 3.877 0 0 1 4.854-1.233c1.29.675 2.068 2.026 3.214 2.938.582.472 1.257.822 1.843 1.294a7.583 7.583 0 0 1 2.39 3.867c.379 1.493.6 3.022.66 4.562.061.462.043.93-.054 1.386a3.883 3.883 0 0 1-.525 1.073c-1.178 1.787-2.732 3.41-4.678 4.332-1.947.922-4.314 1.072-6.236.107a1.072 1.072 0 0 1-.478-.382 1.377 1.377 0 0 1-.075-.826 5.656 5.656 0 0 0-.622-3.163c-.357-.715-.893-1.33-1.178-2.07a7.216 7.216 0 0 1-.336-2.566c-.032-2.249.121-4.49-.443-6.656z"/>
            </g>
        </g>
    </g>
</svg>
