<svg xmlns="http://www.w3.org/2000/svg" xmlns:xlink="http://www.w3.org/1999/xlink" width="280" height="247" viewBox="0 0 280 247">
    <defs>
        <path id="a" d="M271.123 90.797c-9.968-20.562-33.589-69.534-107.869-84.561C88.974-8.792 31.778 4.003 10.237 37.493c-21.541 33.491-16.342 121.31 87.65 187.548 54.742 34.867 125.318 25.751 158.218-14.885 29.599-36.56 27.646-93.311 15.018-119.36z"/>
        <linearGradient id="c" x1="49.996%" x2="49.996%" y1="100%" y2="0%">
            <stop offset="0%" stop-color="gray" stop-opacity=".25"/>
            <stop offset="54%" stop-color="gray" stop-opacity=".12"/>
            <stop offset="100%" stop-color="gray" stop-opacity=".1"/>
        </linearGradient>
        <linearGradient id="d" x1="70.482%" x2="29.507%" y1="95.689%" y2="4.351%">
            <stop offset="0%" stop-color="gray" stop-opacity=".25"/>
            <stop offset="54%" stop-color="gray" stop-opacity=".12"/>
            <stop offset="100%" stop-color="gray" stop-opacity=".1"/>
        </linearGradient>
        <linearGradient id="e" x1="50%" x2="50%" y1="99.991%" y2="0%">
            <stop offset="0%" stop-color="gray" stop-opacity=".25"/>
            <stop offset="54%" stop-color="gray" stop-opacity=".12"/>
            <stop offset="100%" stop-color="gray" stop-opacity=".1"/>
        </linearGradient>
        <linearGradient id="f" x1="71.364%" x2="40.849%" y1="96.801%" y2="14.943%">
            <stop offset="0%" stop-color="gray" stop-opacity=".25"/>
            <stop offset="54%" stop-color="gray" stop-opacity=".12"/>
            <stop offset="100%" stop-color="gray" stop-opacity=".1"/>
        </linearGradient>
    </defs>
    <g fill="none" fill-rule="evenodd">
        <mask id="b" fill="#fff">
            <use xlink:href="#a"/>
        </mask>
        <use fill="#D4EAE4" xlink:href="#a"/>
        <g mask="url(#b)">
            <path fill="#005A70" d="M26.915 72.894L160.293 12.02l84.063 184.39-133.379 60.875z"/>
            <path fill="#FFF" d="M29.23 73.478l129.984-59.325 82.205 180.316-129.985 59.325z" opacity=".953"/>
            <path fill="url(#c)" d="M70.631 35.349l70.882-.015-.003 17.176-70.883.015z" transform="rotate(-24.52 107.505 69.025)"/>
            <path fill="url(#d)" fill-rule="nonzero" d="M95.543 20.84c-4.977 2.273-7.128 8.249-4.803 13.349 2.326 5.1 8.247 7.393 13.224 5.12 4.977-2.272 7.128-8.248 4.803-13.348-2.326-5.1-8.247-7.393-13.224-5.12zm6.639 14.563a5.853 5.853 0 0 1-6.47-.915 5.86 5.86 0 0 1 3.674-10.21 5.855 5.855 0 0 1 5.568 3.423 5.793 5.793 0 0 1-2.772 7.704v-.002z" transform="translate(-10.286 2.859)"/>
            <path fill="#005A70" d="M60.663 53.39l63.125-28.81 6.812 14.941-63.126 28.81z"/>
            <path fill="#005A70" fill-rule="nonzero" d="M85.566 24.38a9.706 9.706 0 0 0 .63 17.922 9.696 9.696 0 0 0 10.49-2.475 9.71 9.71 0 0 0 1.73-10.644c-2.224-4.876-7.976-7.026-12.85-4.802zm6.347 13.924a5.594 5.594 0 0 1-7.411-2.77 5.6 5.6 0 0 1 2.768-7.416 5.594 5.594 0 0 1 7.412 2.768 5.6 5.6 0 0 1-2.769 7.415v.003z"/>
            <path fill="url(#e)" d="M63.909 89.309l30.592-.006-.006 30.603-30.593.007z" transform="rotate(-24.52 80.637 129.704)"/>
            <path fill="#69F0AE" d="M50.135 100.448l25.793-11.772 11.765 25.807L61.9 126.255z"/>
            <path fill="#12B2A6" d="M75.06 155.118l25.793-11.772 11.765 25.807-25.793 11.772z"/>
            <path fill="#D4EAE4" d="M96.53 88.899l35.354-16.136 1.125 2.468-35.354 16.136zM98.22 92.6l58.375-26.642 1.125 2.469-58.375 26.642zM99.904 96.303l54.264-24.766 1.126 2.468-54.264 24.766z"/>
            <path fill="#E0E0E0" d="M121.455 143.571l35.355-16.136 1.125 2.469-35.354 16.136zM123.144 147.27l58.376-26.642 1.125 2.469-58.376 26.642zM124.83 150.976l54.264-24.767 1.126 2.469-54.264 24.766z"/>
            <path fill="url(#f)" d="M72.645 105.74l6.642 2.157 2.185-12.79 3.233.884-3.636 15.813-10.017-4.393z" transform="translate(-10.286 2.859)"/>
            <path fill="#FFF" d="M63.206 108.43l5.775 1.874 1.9-11.122 2.809.77-3.161 13.75-8.71-3.819zM88.286 163.44l5.776 1.875 1.899-11.122 2.809.77-3.161 13.75-8.71-3.819z"/>
            <path fill="#D4EAE4" d="M116.692 202.37l82.472-37.64 12.54 27.506-82.472 37.64z"/>
            <path fill="#005A70" fill-rule="nonzero" d="M187.208 186.651c-3.169-.904-6.413-.732-7.422 2.894-.34 1.222-.38 3.12-1.69 3.75-1.929.926-4.254-.928-5.928-1.684-3.118-1.408-6.318-.45-8.123 2.51-.916 1.5-1.308 3.226-1.62 4.934-.134.742-.15 1.657-.463 2.356-.598 1.336-2.468 1.216-3.695 1.165-.27 0-.544-.032-.818-.06a7.252 7.252 0 0 0 1.373-4.617c-.08-2.71-1.84-5.675-4.915-5.343-2.754.286-4.694 2.948-4.385 5.64.263 2.29 1.754 4.065 3.664 5.152-.938.415-1.939.739-2.826 1.168-.414.2-.816.425-1.204.673-2.68-1.294-6.201-1.537-8.613-.218-1.167.638-.314 2.536.859 1.892 1.836-1.005 3.861-.753 5.78-.115l.16.058a5.17 5.17 0 0 0-.5.775c-1.084 2.107 0 5.438 2.637 5.667 3.719.318 3.893-4.6 1.874-6.557a5.24 5.24 0 0 0-.263-.24c.835-.404 1.739-.707 2.537-1.048a10.55 10.55 0 0 0 1.974-1.099l.143.037c2.84.644 7.274.845 8.295-2.598.875-2.988.958-9.333 5.678-8.747 1.925.238 3.504 1.718 5.335 2.253 1.639.49 3.535.51 4.88-.699 1.11-.996 1.358-2.467 1.699-3.84.174-.71.346-1.557.923-2.064 1.045-.913 2.77-.375 3.934-.043 1.272.36 2.01-1.585.72-1.952zm-36.9 24.21c-.626.621-1.29.129-1.624-.52-.406-.79-.232-1.57.286-2.265.085-.113.176-.222.272-.326 1.239.801 2.251 1.95 1.078 3.111h-.011zm2.198-15.455c1.287-1.196 3.08-.933 3.847.71.767 1.643.429 3.961-.646 5.41-.143.19-.3.367-.472.532a6.026 6.026 0 0 1-2.04-1.165c-1.522-1.374-2.383-3.913-.678-5.495l-.011.008z"/>
            <path fill="#EE936F" d="M200.478 131.786l-25.464 22.645-19.802-36.8 45.266-11.322z"/>
            <path fill="#000" d="M200.478 131.786l-25.464 22.645-19.802-36.8 45.266-11.322z" opacity=".097"/>
            <path fill="#EE936F" d="M78.824 72.34s8.172 11.322 56.582 8.491l28.293 42.46 18.958 21.343c2.978 3.354 3.147 8.44.224 11.84-1.777 2.064-4.331 3.148-7.867.787 0 0 0 14.153-14.144 8.492 0 0-5.658 11.322-16.974 5.66 0 0 0 5.662-8.487 2.831-8.487-2.83-53.756-39.627-53.756-39.627L61.85 120.464 78.824 72.34z"/>
            <path fill="#EE936F" d="M180.672 86.495s-12.225 0-24.313-5.492c-10.993-4.989-23.793-4.353-33.936 2.195-8.267 5.338-15.43 14.175-15.295 28.772 0 0 11.001 11.322 22.632-11.322h8.487s8.172 28.308 31.12 25.472c22.95-2.837 28.293-5.661 28.293-5.661l-16.988-33.964zM105.474 141.464l.93.931a6.356 6.356 0 0 1 0 8.977l-6.588 6.592a6.34 6.34 0 0 1-8.971.005c-.001 0-.002-.001 0-.005l-.931-.931a6.356 6.356 0 0 1 0-8.977l6.588-6.592a6.34 6.34 0 0 1 8.972-.005v.005z"/>
            <path fill="#EE936F" d="M96.355 130.77l.931.932a6.356 6.356 0 0 1 0 8.977l-6.588 6.592a6.34 6.34 0 0 1-8.972.005v-.005l-.93-.932a6.356 6.356 0 0 1 0-8.976l6.588-6.592a6.34 6.34 0 0 1 8.971-.005c.001 0 .002.001 0 .005zM118.203 148.538l.931.932a6.356 6.356 0 0 1 0 8.977l-8.002 8.006a6.34 6.34 0 0 1-8.972.005s-.002-.001 0-.005l-.931-.931a6.356 6.356 0 0 1 0-8.977l8.002-8.007a6.34 6.34 0 0 1 8.972-.005c0 .001.002.002 0 .005zM125.182 158.666l.65.65a4.439 4.439 0 0 1 0 6.27l-5.052 5.054a4.428 4.428 0 0 1-6.265.003v-.003l-.65-.65a4.439 4.439 0 0 1 0-6.27l5.051-5.054a4.428 4.428 0 0 1 6.266 0z"/>
            <path fill="#000" d="M180.672 86.495s-12.225 0-24.313-5.492c-10.993-4.989-23.793-4.353-33.936 2.195-8.267 5.338-15.43 14.175-15.295 28.772 0 0 11.001 11.322 22.632-11.322h8.487s8.172 28.308 31.12 25.472c22.95-2.837 28.293-5.661 28.293-5.661l-16.988-33.964zM105.474 141.464l.93.931a6.356 6.356 0 0 1 0 8.977l-6.588 6.592a6.34 6.34 0 0 1-8.971.005c-.001 0-.002-.001 0-.005l-.931-.931a6.356 6.356 0 0 1 0-8.977l6.588-6.592a6.34 6.34 0 0 1 8.972-.005v.005z" opacity=".097"/>
            <path fill="#000" d="M96.355 130.77l.931.932a6.356 6.356 0 0 1 0 8.977l-6.588 6.592a6.34 6.34 0 0 1-8.972.005v-.005l-.93-.932a6.356 6.356 0 0 1 0-8.976l6.588-6.592a6.34 6.34 0 0 1 8.971-.005c.001 0 .002.001 0 .005zM118.203 148.538l.931.932a6.356 6.356 0 0 1 0 8.977l-8.002 8.006a6.34 6.34 0 0 1-8.972.005s-.002-.001 0-.005l-.931-.931a6.356 6.356 0 0 1 0-8.977l8.002-8.007a6.34 6.34 0 0 1 8.972-.005c0 .001.002.002 0 .005zM125.182 158.666l.65.65a4.439 4.439 0 0 1 0 6.27l-5.052 5.054a4.428 4.428 0 0 1-6.265.003v-.003l-.65-.65a4.439 4.439 0 0 1 0-6.27l5.051-5.054a4.428 4.428 0 0 1 6.266 0z" opacity=".097"/>
            <path fill="#4E4E4E" d="M228.767 137.447l-25.46 11.323-25.464-62.275 22.635-8.492z"/>
            <path fill="#007FA3" d="M36.39 123.295l25.46 11.322 25.464-62.275-22.635-8.494z"/>
            <path fill="#4E4E4E" d="M0 33.569l64.68 30.279-36.777 84.922-38.189-17.29L0 38.302z"/>
            <path fill="#003057" d="M200.478 78.003l36.78 84.92 60.24-23-40.438-87.397z"/>
            <g transform="rotate(-25 104.483 -303.033)">
                <path fill="#84BD00" d="M12.876 29.059L9.031 44.43l-2.779-4.86-5.557 2.777 5.33-15.965C2.374 23.733 0 19.433 0 14.579 0 6.527 6.531 0 14.588 0c8.057 0 14.588 6.527 14.588 14.579 0 5.523-3.073 10.328-7.603 12.802l3.435 27.448-4.862-3.471-3.474 4.165-3.473-26.38.147-.037a14.653 14.653 0 0 1-.47-.047z"/>
                <ellipse cx="14.445" cy="14.453" fill="#FFF" opacity=".697" rx="7.58" ry="7.584"/>
            </g>
        </g>
    </g>
</svg>
