<svg xmlns="http://www.w3.org/2000/svg" xmlns:xlink="http://www.w3.org/1999/xlink" width="280" height="247" viewBox="0 0 280 247">
    <defs>
        <path id="a" d="M271.123 90.797c-9.968-20.562-33.589-69.534-107.869-84.561C88.974-8.792 31.778 4.003 10.237 37.493c-21.541 33.491-16.342 121.31 87.65 187.548 54.742 34.867 125.318 25.751 158.218-14.885 29.599-36.56 27.646-93.311 15.018-119.36z"/>
    </defs>
    <g fill="none" fill-rule="evenodd">
        <mask id="b" fill="#fff">
            <use xlink:href="#a"/>
        </mask>
        <use fill="#D4EAE4" xlink:href="#a"/>
        <g mask="url(#b)">
            <g transform="translate(-66.286 41.738)">
                <ellipse cx="201.714" cy="160.489" fill="#4E4E4E" rx="201.714" ry="7.213"/>
                <rect width="285.862" height="156.635" x="58.783" y=".333" fill="#FFF" opacity=".95" rx="7.001"/>
                <path fill="#4E4E4E" d="M344.645 7.347v3.978H58.783V7.347c0-3.873 3.134-7.014 7-7.014h271.863c3.866 0 7 3.14 7 7.014z"/>
                <ellipse cx="66.153" cy="6.001" fill="#DB0020" rx="2.057" ry="2.061"/>
                <ellipse cx="71.294" cy="6.001" fill="#FFB81C" rx="2.057" ry="2.061"/>
                <ellipse cx="76.435" cy="6.001" fill="#84BD00" rx="2.057" ry="2.061"/>
                <rect width="32.905" height="26.793" x="102.314" y="29.531" fill="#D4EAE4" rx="3.185"/>
                <rect width="32.905" height="26.793" x="140.703" y="29.531" fill="#D4EAE4" rx="3.185"/>
                <rect width="32.905" height="26.793" x="179.092" y="29.531" fill="#D4EAE4" rx="3.185"/>
                <rect width="32.905" height="26.793" x="217.481" y="29.531" fill="#D4EAE4" rx="3.185"/>
                <rect width="32.905" height="26.793" x="255.87" y="29.531" fill="#007FA3" rx="3.185"/>
                <rect width="32.905" height="26.793" x="102.314" y="74.529" fill="#D4EAE4" rx="3.185"/>
                <rect width="32.905" height="26.793" x="140.703" y="74.529" fill="#D4EAE4" rx="3.185"/>
                <rect width="32.905" height="26.793" x="179.092" y="74.529" fill="#007FA3" rx="3.185"/>
                <rect width="32.905" height="26.793" x="217.481" y="74.529" fill="#D4EAE4" rx="3.185"/>
                <rect width="32.905" height="26.793" x="255.87" y="74.529" fill="#D4EAE4" rx="3.185"/>
                <rect width="32.905" height="26.793" x="102.314" y="119.527" fill="#D4EAE4" rx="3.185"/>
                <rect width="32.905" height="26.793" x="140.703" y="119.527" fill="#D4EAE4" rx="3.185"/>
                <rect width="32.905" height="26.793" x="179.092" y="119.527" fill="#D4EAE4" rx="3.185"/>
                <rect width="32.905" height="26.793" x="217.481" y="119.527" fill="#007FA3" opacity=".3" rx="3.185"/>
                <rect width="32.905" height="26.793" x="255.87" y="119.527" fill="#D4EAE4" rx="3.185"/>
                <path fill="#84BD00" d="M297.763 24.598l-1.735-1.748a.918.918 0 0 0-1.306 0l-10.886 10.816-4.603-4.65a.91.91 0 0 0-1.296 0l-1.751 1.734a.936.936 0 0 0 0 1.312l6.989 7.06a.93.93 0 0 0 1.309 0l13.279-13.212a.922.922 0 0 0 0-1.312zM219.613 69.253l-1.734-1.749a.918.918 0 0 0-1.306 0l-10.886 10.817-4.603-4.65a.91.91 0 0 0-1.296 0l-1.752 1.734a.936.936 0 0 0 0 1.312l6.99 7.059a.93.93 0 0 0 1.309 0l13.278-13.211a.922.922 0 0 0 0-1.312zM257.66 115.969l-1.735-1.749a.918.918 0 0 0-1.306 0l-10.886 10.817-4.603-4.651a.91.91 0 0 0-1.296 0l-1.751 1.718a.936.936 0 0 0 0 1.312l6.989 7.059a.93.93 0 0 0 1.31 0l13.278-13.211a.922.922 0 0 0 0-1.295z"/>
                <path stroke="#000" stroke-width="1.371" d="M347.01 159.174c-1.028-1.893.137-4.215 1.47-5.901 1.334-1.687 2.952-3.435 2.918-5.596-.052-3.091-3.325-4.919-5.94-6.557a28.803 28.803 0 0 1-5.334-4.298 7.83 7.83 0 0 1-1.638-2.198c-.542-1.21-.528-2.583-.494-3.906.117-4.41.335-8.817.655-13.22"/>
                <path fill="#005A70" d="M333.677 117.257a4.81 4.81 0 0 1 2.4-3.95l1.075 2.136-.034-2.586a4.864 4.864 0 0 1 1.587-.193 4.805 4.805 0 0 1 4.56 5.03 4.803 4.803 0 0 1-5.012 4.577 4.805 4.805 0 0 1-4.576-5.014zM342.246 149.886a4.795 4.795 0 0 0 5.536 2.432 4.808 4.808 0 0 0 3.518-4.926 4.805 4.805 0 0 0-4.082-4.468 4.797 4.797 0 0 0-5.205 3.08l3.006 2.45-3.308-.767c.001.765.185 1.519.535 2.199zM344.645 140.525a4.801 4.801 0 0 0 4.987-4.042 4.81 4.81 0 0 0-3.479-5.4l.028 1.985-1.09-2.16a4.792 4.792 0 0 0-3.466 1.247 4.813 4.813 0 0 0-1.562 3.342 4.8 4.8 0 0 0 4.583 5.029zM332.95 132.738a4.798 4.798 0 0 0 4.63-3.017 4.816 4.816 0 0 0-1.27-5.387 4.79 4.79 0 0 0-5.488-.62l.85 2.336-1.748-1.683a4.813 4.813 0 0 0-1.553 3.329c-.023.446.018.894.12 1.329a4.801 4.801 0 0 0 4.46 3.713z"/>
                <path fill="#000" d="M334.321 118.541c1.11.12 2.19.468 3.304.536 1.114.069 2.338-.196 3.044-1.065.377-.467.57-1.058.888-1.57a3.43 3.43 0 0 1 1.213-1.143 4.817 4.817 0 0 1-.57 5.065 4.793 4.793 0 0 1-8.424-1.864c.183.007.365.02.545.041zM332.95 132.738a4.795 4.795 0 0 0 4.235-2.133 4.818 4.818 0 0 0 .341-4.737c-.382.257-.71.586-.966.969-.343.519-.552 1.12-.953 1.594-.751.883-2.03 1.171-3.191 1.12-1.162-.052-2.283-.385-3.428-.492-.161 0-.322-.024-.487-.027a4.801 4.801 0 0 0 4.45 3.706zM344.645 140.525a4.795 4.795 0 0 0 4.209-2.095 4.818 4.818 0 0 0 .405-4.692c-.4.261-.748.593-1.029.979-.373.529-.606 1.137-1.028 1.625-.812.906-2.176 1.226-3.403 1.198-1.227-.027-2.341-.32-3.524-.412a4.8 4.8 0 0 0 4.37 3.397zM342.246 149.886a4.8 4.8 0 0 0 6.348 2.428 4.82 4.82 0 0 0 2.423-6.361c-.398.259-.754.577-1.056.944-.459.557-.76 1.192-1.288 1.718-.984.968-2.571 1.374-3.987 1.405-.815.004-1.63-.041-2.44-.134z" opacity=".1"/>
                <path fill="#000" d="M354.266 156.993s-3.797-.117-4.942-.935c-1.145-.817-5.827-1.79-6.122-.48-.295 1.308-5.707 6.526-1.422 6.547 4.284.02 9.96-.687 11.105-1.374 1.145-.687 1.381-3.758 1.381-3.758z"/>
                <path stroke="#000" stroke-width="1.371" d="M63.167 157.484c-1.504-2.79.202-6.21 2.163-8.7 1.96-2.491 4.353-5.078 4.305-8.245-.075-4.558-4.901-7.248-8.76-9.666a42.728 42.728 0 0 1-7.864-6.334 11.605 11.605 0 0 1-2.4-3.243c-.798-1.782-.774-3.81-.722-5.764a408.39 408.39 0 0 1 .96-19.493"/>
                <path fill="#005A70" d="M56.151 143.792a7.086 7.086 0 0 0 8.18 3.603 7.106 7.106 0 0 0 5.205-7.28 7.101 7.101 0 0 0-6.036-6.604 7.09 7.09 0 0 0-7.692 4.558l4.429 3.61-4.881-1.13a7.092 7.092 0 0 0 .795 3.243zM59.654 129.99a7.099 7.099 0 0 0 7.325-5.969 7.11 7.11 0 0 0-5.077-7.977l.038 2.927-1.607-3.184h-.018a7.09 7.09 0 0 0-6.393 3.227 7.124 7.124 0 0 0-.334 7.166 7.094 7.094 0 0 0 6.066 3.81z"/>
                <path fill="#000" d="M59.654 129.99a7.087 7.087 0 0 0 6.195-3.098 7.12 7.12 0 0 0 .609-6.911 5.726 5.726 0 0 0-1.498 1.446c-.552.78-.895 1.676-1.543 2.404-1.196 1.337-3.208 1.807-5.021 1.766-1.755-.041-3.448-.47-5.193-.605a7.101 7.101 0 0 0 6.451 4.998zM56.151 143.792a7.088 7.088 0 0 0 9.206 3.234 7.116 7.116 0 0 0 3.726-9.036c-.583.38-1.109.843-1.56 1.374-.685.825-1.117 1.759-1.898 2.528-1.45 1.426-3.791 2.013-5.875 2.061a30.461 30.461 0 0 1-3.599-.161z" opacity=".1"/>
                <path fill="#000" d="M73.865 154.272s-5.597-.172-7.287-1.374c-1.69-1.202-8.61-2.641-9.029-.71-.418 1.93-8.414 9.617-2.094 9.655 6.32.038 14.687-.986 16.37-2.016 1.683-1.03 2.04-5.555 2.04-5.555z"/>
                <g transform="translate(230.335 39.159)">
                    <path fill="#EE936F" d="M32.578 13.166l-2.316.827-.841-1.406a370.923 370.923 0 0 0-2.194-3.636c-1.162-1.89.358-4.772.358-4.772s.275-2.892 1.253-3.783c.978-.89 1.25 3.783 1.25 3.783 3.927 1.8 1.823 6.033 1.823 6.033l.382 1.678.285 1.276z"/>
                    <path fill="#12B2A6" d="M28.838 22.64l1.16-.99-.581-8.916s3.002-2.072 5.224 1.17c0 0-.09 1.981 0 2.522.09.54-.624 1.081 0 1.62.624.539 0 2.343 0 2.343s.706 1.26 1.152 1.62c.446.359.894 3.333 0 3.962-.895.63-2.572 2.072-2.572 2.702 0 .63-2.144 2.163-2.144 2.163l-1.883-2.512-.356-5.684z"/>
                    <path fill="#EE936F" d="M3.745 76.762C-.583 74.911.378 70.388 1.193 68.11c.163-.461.354-.912.573-1.35l2.428-1.486s.495 1.274 1.025 2.983c1.229 3.976 2.642 10.268-1.474 8.505zM9.695 118.03a7.395 7.395 0 0 0-.644 1.82 13.262 13.262 0 0 0-.279 3.1c.018.72.078 1.192.078 1.192l-4.822 3.344s.028-.392.075-.967c.125-1.531.384-4.374.629-4.741.17-.256.287-1.28.362-2.232.075-.952.105-1.787.105-1.787s5.802-2.193 4.496.27zM21.08 120.428s0 .93-.034 2.012c-.034 1.081-.098 2.357-.234 2.952-.124.545-.133 1.547-.109 2.47a47.01 47.01 0 0 0 .11 2.055s-4.923-4.694-4.42-5.066c.134-.1.267-.5.39-1.031.15-.65.285-1.515.386-2.25.12-.876.195-1.581.195-1.581l3.716.439z"/>
                    <path fill="#000" d="M31.158 74.422c-1.964 4.326-2.769 9.456-2.769 9.456l-.714 4.326s.358 1.89 0 2.61c-.358.721-1.072 1.893-1.072 1.893s.536 4.413 0 4.863c-.536.45 0 3.151 0 3.151l-1.787 9.085-2.5 11.706c-2.41 1.983-5.62-.539-5.62-.539l.709-7.655s1.072-13.41.626-13.96c-.446-.549.178-2.251.178-2.251s.626-1.622.18-2.252c-.446-.63.088-1.981.088-1.981s-.178-5.494.358-6.755c.536-1.261 0-9.06 0-9.06l-.214-2.43-.125-1.345-.01-.132s-.082.539-.215 1.374c-.395 2.541-1.235 7.808-1.568 8.891-.226.781-.533 1.536-.916 2.252 0 0 .464 2.702 0 3.422-.463.72-.07 1.531-.07 1.531s.446 2.252-.895 3.152c-1.34.9 0 1.352 0 1.352s-.982 2.163-1.338 3.06c-.356.898 0 2.163 0 2.163l-.714 7.294s-.626 3.06-.536 5.132c.09 2.073-.804 6.844-.804 6.844s-6.876 0-7.936-.811c-1.06-.811 1.77-8.723 1.77-8.723s.804-13.87.624-14.228c-.18-.36 0-3.063.626-3.602.626-.538 0-1.622 0-1.622s-.178-2.163 0-2.701c.178-.539-.028-2.343-.028-2.343s-.598-4.412-.686-6.934c-.088-2.522-.536-8.194-.536-8.194s.467-3.508.538-5.178c.026-.614.298-1.382.643-2.104a18.82 18.82 0 0 1 1.33-2.354s21.157-6.307 22.045-5.68c.236.167.579 1.298.918 2.935.943 4.575 1.866 13.162.42 16.342z"/>
                    <ellipse cx="18.123" cy="13.166" fill="#A1616A" rx="6.162" ry="6.214"/>
                    <path fill="#000" d="M30.738 58.085c-.71.367-1.186.62-1.186.62s-10 4.774-12.844 4.504c-2.2-.216-7.818-.093-10.265-.033a18.82 18.82 0 0 1 1.33-2.353s21.159-6.305 22.047-5.678c.236.171.579 1.298.918 2.94z" opacity=".1"/>
                    <path fill="#12B2A6" d="M13.836 23.09s-5.707.909-7.054 1.8c-1.347.89-4.015 2.613-4.015 6.305 0 3.692-.624 7.475-.982 8.554-.358 1.08 5.626 9.816 5.626 9.816l-2.145 13.24s8.578-.271 11.435 0c2.857.27 12.853-4.504 12.853-4.504s5.893-3.151 7.144-3.244c1.25-.093-2.5-6.935-2.5-6.935s-5.806-11.074-4.824-12.876c.982-1.802 1.703-4.412 1.703-4.412l-1.073-9.184s-1.606-.541-2.946.45c-1.34.99-5.894.45-5.894.45l-7.328.54z"/>
                    <path fill="#12B2A6" d="M4.013 39.12l-2.232.63-.624 8.474s.804 2.251 0 2.972c-.805.72-.983 16.12-.983 16.12s2.593 1.889 5.626.442c0 0-.446-1.711.892-7.926 1.338-6.214 1.34-9.365 1.34-9.365s0-7.746.625-9.007c.624-1.26 0-4.412 0-4.412s-1.25-1.711-1.16-2.34c.09-.63-3.484 4.412-3.484 4.412z"/>
                    <path fill="#000" d="M8.524 77.809s2.344-.102 3.515.372l-3.515-.372zM8.858 124.144l-4.821 3.344s.028-.392.075-.967c1.072-2.66 2.469-4.064 2.469-4.064 1.087-.286 1.773-.022 2.2.495.017.718.077 1.192.077 1.192z" opacity=".1"/>
                    <path fill="#000" d="M9.328 127.148a12.156 12.156 0 0 0-1.006 4.975 7.767 7.767 0 0 1-1.02 4.004c-.101.171-.215.335-.34.489 0 0-3.35-.028-4.523-1.008a1.168 1.168 0 0 1-.315-.39c-.671-1.35 1.306-6.517 1.306-6.517 1.038-3.984 3.146-6.112 3.146-6.112 3.756-.98 2.752 4.56 2.752 4.56z"/>
                    <path fill="#000" d="M6.842 129.199l-.234 8.725h1.124s.183-7.654.684-8.725c.502-1.07-1.574 0-1.574 0z"/>
                    <path fill="#000" d="M20.812 129.917s-4.922-4.694-4.42-5.066c.135-.1.268-.5.39-1.031.946-.167 2.574.231 3.921 4.042a47.01 47.01 0 0 0 .11 2.055z" opacity=".1"/>
                    <path fill="#000" d="M21.548 135.151a.497.497 0 0 1-.118.035c-.579.102-2.713.043-3.907 0a.849.849 0 0 1-.818-.85c0-.325 0-.72-.025-1.142-.056-1.333-.215-2.918-.689-3.275-.838-.649-1.501-2.85 0-5.639 0 0 2.878-2.217 4.954 4.447 0 0 .202 1.902 1.105 2.576.903.675-.099 3.656-.502 3.848z"/>
                    <path fill="#000" d="M16.356 129.344l.54 7.26h.687v-7.879z"/>
                    <path fill="#000" d="M18.033 3.264a12.242 12.242 0 0 0-5.495 1.78c-.429.262-.858.58-1.036 1.05-.154.406-.09.865-.083 1.297.058 3.725-4.06 6.543-3.931 10.266.051 1.477.787 2.853.922 4.326.225 2.457-1.216 4.717-2.597 6.752a5.516 5.516 0 0 0 3.914-1.308 30.18 30.18 0 0 1 .547 15.087h1.975c.195-.015.39.01.577.07.173.084.328.2.457.345 1.846 1.854 3.084 4.594 2.378 7.125l4.203-1.59c1.006-.38 2.027-.768 2.902-1.395s1.609-1.538 1.793-2.607c.114-.648.077-1.423.607-1.8.261-.14.54-.243.828-.308 1.154-.411 1.664-1.757 1.9-2.968a17.23 17.23 0 0 0 .268-4.514c-.186-2.53-.929-5.1-.317-7.57.345-1.387 1.113-2.678 1.175-4.11.1-2.36-1.729-4.393-2.001-6.74-.19-1.635.395-3.29.204-4.925a5.29 5.29 0 0 0-2.76-4.017c-.517-.268-1.073-.447-1.583-.744-1.165-.681-1.909-1.908-2.966-2.751-1.058-.844-2.818-1.162-3.614-.065l1.733-.686z" opacity=".1"/>
                    <path fill="#000" d="M18.033 2.994a12.242 12.242 0 0 0-5.495 1.78c-.429.262-.858.58-1.036 1.05-.154.406-.09.864-.083 1.297.058 3.725-4.06 6.543-3.931 10.268.051 1.475.787 2.85.922 4.325.225 2.458-1.216 4.718-2.597 6.755a5.546 5.546 0 0 0 3.914-1.308 30.169 30.169 0 0 1 .547 15.082h1.975a1.49 1.49 0 0 1 .577.074c.173.081.329.197.457.341 1.846 1.856 3.084 4.595 2.378 7.125l4.203-1.59c1.006-.38 2.027-.767 2.902-1.395.875-.627 1.609-1.537 1.793-2.606.114-.649.077-1.423.607-1.8.261-.14.54-.244.828-.309 1.154-.41 1.664-1.756 1.9-2.967a17.23 17.23 0 0 0 .275-4.519c-.187-2.53-.93-5.1-.318-7.57.345-1.387 1.113-2.678 1.175-4.11.101-2.36-1.728-4.393-2-6.74-.191-1.635.394-3.287.203-4.925a5.295 5.295 0 0 0-2.76-4.016c-.517-.269-1.072-.448-1.583-.742-1.164-.684-1.908-1.91-2.966-2.754-1.057-.843-2.818-1.161-3.614-.065l1.727-.681z"/>
                </g>
            </g>
        </g>
    </g>
</svg>
