<svg xmlns="http://www.w3.org/2000/svg" xmlns:xlink="http://www.w3.org/1999/xlink" width="280" height="247" viewBox="0 0 280 247">
    <defs>
        <path id="a" d="M271.123 90.797c-9.968-20.562-33.589-69.534-107.869-84.561C88.974-8.792 31.778 4.003 10.237 37.493c-21.541 33.491-16.342 121.31 87.65 187.548 54.742 34.867 125.318 25.751 158.218-14.885 29.599-36.56 27.646-93.311 15.018-119.36z"/>
    </defs>
    <g fill="none" fill-rule="evenodd">
        <mask id="b" fill="#fff">
            <use xlink:href="#a"/>
        </mask>
        <use fill="#D4EAE4" transform="rotate(-180 139.919 123.31)" xlink:href="#a"/>
        <g mask="url(#b)">
            <g transform="translate(-13.143 -7.433)">
                <path fill="#12B2A6" d="M225.1 42.793c-24.837-.861-48.494-8.892-71.082-17.671-22.587-8.78-44.965-18.509-69.205-23.162-15.594-2.993-33.426-3.408-45.988 4.952-12.092 8.051-15.998 21.964-18.096 34.851-1.58 9.706-2.51 19.906 1.817 29.004 3.007 6.304 8.345 11.607 12.038 17.647 12.84 21.024 3.771 46.945-10.155 67.468-6.515 9.63-14.102 18.814-19.139 29.066-5.036 10.25-7.368 21.991-2.962 32.445 4.371 10.365 14.78 18.148 26.057 23.622 22.906 11.12 49.9 14.305 76.22 16.106 58.27 3.975 116.846 2.259 175.266.543 21.62-.642 43.334-1.29 64.604-4.637 11.808-1.857 24-4.805 32.572-11.926 10.886-9.04 13.584-24.346 6.288-35.692-12.233-19.01-46.063-23.732-54.614-44.135-4.707-11.23.127-23.739 6.967-34.155 14.674-22.345 39.27-41.945 40.567-67.486.891-17.54-10.934-35.108-29.215-43.407-19.166-8.7-45.737-7.605-59.877 6.795-14.55 14.83-40.134 20.534-62.064 19.772z" opacity=".1"/>
                <path fill="#4E4E4E" d="M199.147 230.83l-66.857-.859.196-1.716 3.233-28.313h58.714l4.32 28.313.33 2.145z"/>
                <path fill="#4E4E4E" d="M121.147 228.684h88.714v2.145h-88.714zM294.503 29.882a5.587 5.587 0 0 0-1.615-3.956 5.576 5.576 0 0 0-3.936-1.655H41.2a5.576 5.576 0 0 0-3.939 1.653 5.587 5.587 0 0 0-1.615 3.958v150.32h258.857V29.881z"/>
                <path fill="#4E4E4E" d="M35.646 178.708v17.606c0 3.07 2.486 5.56 5.554 5.56h247.752a5.557 5.557 0 0 0 5.55-5.56v-17.606H35.647z"/>
                <path fill="#003057" d="M46.36 33.709h238.714v135.133H46.36z" opacity=".1"/>
                <path fill="#D4EAE4" d="M166.36 195.192a5.789 5.789 0 0 0 4.553-2.21c.165-.21.315-.432.45-.663l-3.176-.521 3.429.027a5.788 5.788 0 0 0 .11-4.592l-4.605 2.403 4.248-3.123a5.783 5.783 0 0 0-10.256.506 5.794 5.794 0 0 0 .7 5.973 5.782 5.782 0 0 0 4.547 2.2z"/>
                <rect width="156.686" height="94.035" x="53.371" y="58.089" fill="#FFF" rx=".891"/>
                <path fill="#FFF" d="M46.514 33.722h238.629v7.893H46.514z"/>
                <rect width="6.857" height="4.805" x="47.543" y="35.095" fill="#D4EAE4" rx=".267"/>
                <rect width="72" height="4.805" x="129.143" y="35.095" fill="#12B2A6" opacity=".3" rx=".199"/>
                <path fill="#003057" fill-rule="nonzero" d="M199.007 37.992h-.175l-.065-.055a1.46 1.46 0 0 0 .343-.934 1.42 1.42 0 1 0-1.416 1.431c.341-.002.67-.123.932-.343l.065.055v.179l1.098 1.098.342-.343-1.124-1.088zm-1.317 0a.99.99 0 1 1 .988-.989.982.982 0 0 1-.988.989z"/>
                <ellipse cx="281.714" cy="37.498" fill="#D4EAE4" rx="2.4" ry="2.402"/>
                <rect width="22.286" height="15.101" x="221.371" y="50.196" fill="#FFF" rx=".833"/>
                <rect width="28.8" height="2.402" x="249.486" y="50.196" fill="#FFF" rx=".209"/>
                <rect width="28.8" height="2.402" x="249.486" y="55.344" fill="#FFF" rx=".209"/>
                <rect width="28.8" height="2.402" x="249.486" y="60.492" fill="#FFF" rx=".209"/>
                <rect width="22.286" height="15.101" x="221.371" y="73.876" fill="#FFF" rx=".833"/>
                <rect width="28.8" height="2.402" x="249.486" y="73.876" fill="#FFF" rx=".209"/>
                <rect width="28.8" height="2.402" x="249.486" y="79.024" fill="#FFF" rx=".209"/>
                <rect width="28.8" height="2.402" x="249.486" y="84.172" fill="#FFF" rx=".226"/>
                <rect width="22.286" height="15.101" x="221.371" y="97.557" fill="#FFF" rx=".833"/>
                <rect width="28.8" height="2.402" x="249.486" y="97.557" fill="#FFF" rx=".226"/>
                <rect width="28.8" height="2.402" x="249.486" y="102.705" fill="#FFF" rx=".226"/>
                <rect width="28.8" height="2.402" x="249.486" y="107.852" fill="#FFF" rx=".226"/>
                <rect width="22.286" height="15.101" x="221.371" y="121.237" fill="#FFF" rx=".833"/>
                <rect width="28.8" height="2.402" x="249.486" y="121.237" fill="#FFF" rx=".226"/>
                <rect width="28.8" height="2.402" x="249.486" y="126.385" fill="#FFF" rx=".226"/>
                <rect width="28.8" height="2.402" x="249.486" y="131.533" fill="#FFF" rx=".226"/>
                <rect width="22.286" height="15.101" x="221.371" y="144.917" fill="#FFF" rx=".833"/>
                <rect width="28.8" height="2.402" x="249.486" y="144.917" fill="#FFF" rx=".226"/>
                <rect width="28.8" height="2.402" x="249.486" y="150.065" fill="#FFF" rx=".226"/>
                <rect width="28.8" height="2.402" x="249.486" y="155.213" fill="#FFF" rx=".226"/>
                <path fill="#12B2A6" d="M75.973 83.009h35.256v1.829H75.973zM79.106 73.337H82.5v9.671h-3.394zM84.067 73.337h3.394v9.671h-3.394zM89.029 73.337h3.394v9.671h-3.394zM93.99 73.337h3.394v9.671H93.99zM98.951 73.337h3.394v9.671h-3.394zM103.915 73.337h3.394v9.671h-3.394z" opacity=".1"/>
                <path fill="#12B2A6" d="M79.106 75.167H82.5v1.047h-3.394zM84.067 75.167h3.394v1.047h-3.394zM89.029 75.167h3.394v1.047h-3.394zM93.99 75.167h3.394v1.047H93.99zM98.951 75.167h3.394v1.047h-3.394zM103.915 75.167h3.394v1.047h-3.394zM79.106 79.872H82.5v1.047h-3.394zM84.067 79.872h3.394v1.047h-3.394zM89.029 79.872h3.394v1.047h-3.394zM93.99 79.872h3.394v1.047H93.99zM98.951 79.872h3.394v1.047h-3.394zM103.915 79.872h3.394v1.047h-3.394zM153.27 87.714h35.256v1.829H153.27zM156.403 78.043h3.394v9.671h-3.394zM161.365 78.043h3.394v9.671h-3.394zM166.326 78.043h3.394v9.671h-3.394zM171.29 78.043h3.394v9.671h-3.394zM176.251 78.043h3.394v9.671h-3.394zM181.213 78.043h3.394v9.671h-3.394z" opacity=".1"/>
                <path fill="#12B2A6" d="M156.403 79.872h3.394v1.047h-3.394zM161.365 79.872h3.394v1.047h-3.394zM166.326 79.872h3.394v1.047h-3.394zM171.29 79.872h3.394v1.047h-3.394zM176.251 79.872h3.394v1.047h-3.394zM181.213 79.872h3.394v1.047h-3.394zM156.403 84.577h3.394v1.047h-3.394zM161.365 84.577h3.394v1.047h-3.394zM166.326 84.577h3.394v1.047h-3.394zM171.29 84.577h3.394v1.047h-3.394zM176.251 84.577h3.394v1.047h-3.394zM181.213 84.577h3.394v1.047h-3.394zM153.27 101.043h35.256v1.829H153.27zM156.403 91.372h3.394v9.671h-3.394zM161.365 91.372h3.394v9.671h-3.394zM166.326 91.372h3.394v9.671h-3.394zM171.29 91.372h3.394v9.671h-3.394zM176.251 91.372h3.394v9.671h-3.394zM181.213 91.372h3.394v9.671h-3.394z" opacity=".1"/>
                <path fill="#12B2A6" d="M156.403 93.201h3.394v1.047h-3.394zM161.365 93.201h3.394v1.047h-3.394zM166.326 93.201h3.394v1.047h-3.394zM171.29 93.201h3.394v1.047h-3.394zM176.251 93.201h3.394v1.047h-3.394zM181.213 93.201h3.394v1.047h-3.394zM156.403 97.907h3.394v1.047h-3.394zM161.365 97.907h3.394v1.047h-3.394zM166.326 97.907h3.394v1.047h-3.394zM171.29 97.907h3.394v1.047h-3.394zM176.251 97.907h3.394v1.047h-3.394zM181.213 97.907h3.394v1.047h-3.394z" opacity=".1"/>
                <path fill="#6C63FF" d="M168.307 129.961a9.115 9.115 0 0 1-2.468 2.711h-10.087v.265h-10.286a9.263 9.263 0 0 1 5.705-6.548c-.085-.687 1.907-.584 4.564-.138 5.208.875 12.926 3.12 12.572 3.71z" opacity=".1"/>
                <path fill="#EE936F" d="M124.586 105.248s1.269 6.863-1.563 9.105c-2.832 2.24 2.4 15.673 11.033 14.105 8.633-1.569 12.15-12.836 12.15-12.836s-8.646-1.791-5.44-10.896l-16.18.522z"/>
                <ellipse cx="132.229" cy="95.957" fill="#EE936F" rx="14.314" ry="14.328"/>
                <path fill="#003057" d="M155.752 123.197v9.74h-47.266v-9.298a6 6 0 0 1 3.658-5.525l1.354-.577c3.429-1.462 7.595-3.277 8.956-4.032.149-.075.29-.166.418-.271.744-.745.597.223.597.223s-.021.185-.035.504c-.082 2.193.233 10.81 10.324 10.094 9.843-.687 10.285-7.352 10.186-9.311a5.308 5.308 0 0 0-.045-.542c.681.162 1.347.38 1.992.652 2.058.762 5.095 1.983 5.908 2.56.254.178.562.364.898.552.381.213.738.468 1.063.759a6.013 6.013 0 0 1 1.992 4.472z"/>
                <path fill="#000" d="M115.285 96.675a2.45 2.45 0 0 1 2.581.943c.521.731.6 1.613.665 2.458.621.13.97-.573 1.029-1.105.23-2.166.247-4.373.974-6.466.727-2.094 2.314-4.119 4.752-4.918a5.508 5.508 0 0 1 2.595-.247c.518.086 1.005.267 1.519.343 1.783.295 3.72-.55 5.39.038 1.049.37 1.714 1.225 2.204 2.08.214.46.503.881.857 1.245.71.639 1.821.803 2.84 1.002 1.018.2 2.128.546 2.564 1.332.39.71.103 1.53-.028 2.3a5.64 5.64 0 0 0 .58 3.558c.188.343.572.759 1.028.645a.902.902 0 0 0 .487-.394c1.17-1.64 1.139-3.775 2.606-5.255.49-.494 1.125-.878 1.601-1.372a3.118 3.118 0 0 0 .83-2.828c-.264-1.133-1.17-2.06-1.9-3.055a12.017 12.017 0 0 1-2.033-4.224.766.766 0 0 1 0-.553c.139-.18.317-.326.521-.425a1.971 1.971 0 0 0 .666-2.516c-.415-.848-1.327-1.493-2.356-1.877a15.347 15.347 0 0 0-3.212-.687c-.72.103-1.564-.305-1.787-.882-.1-.257-.1-.535-.199-.793a1.817 1.817 0 0 0-1.371-.96 4.008 4.008 0 0 0-1.834.13c-.686.192-1.464.48-2.057.144-.312-.175-.484-.494-.82-.638-.686-.289-1.392.295-1.882.775a4.58 4.58 0 0 1-1.697 1.143 2.525 2.525 0 0 1-2.105-.14c-.47-.3-.707-.78-1.08-1.16a4.064 4.064 0 0 0-2.555-1.03 8.985 8.985 0 0 0-2.883.316c-1.79.436-3.5 1.154-5.064 2.127a5.443 5.443 0 0 0-1.944 1.81 4.122 4.122 0 0 0-.436 1.863c-.075 2.028.597 4.163 2.349 5.583-1.07.447-1.43 1.541-1.68 2.513-.401 1.55-.802 3.126-.651 4.705.075.817.298 1.633.178 2.447-.096.383-.15.775-.158 1.17.103.445.465.783.916.855z"/>
                <g fill="#000" opacity=".1">
                    <path d="M150.136 89.395a3.35 3.35 0 0 1-.617.913c-.477.501-1.111.89-1.601 1.373-1.468 1.469-1.437 3.617-2.606 5.258a.881.881 0 0 1-.487.391c-.446.117-.83-.288-1.028-.645a5.907 5.907 0 0 1-.511-1.373l-.069.343a5.64 5.64 0 0 0 .58 3.56c.188.342.572.758 1.028.644a.902.902 0 0 0 .487-.394c1.17-1.64 1.138-3.775 2.606-5.255.49-.494 1.124-.878 1.6-1.372a3.118 3.118 0 0 0 .83-2.828 3.688 3.688 0 0 0-.212-.615zM146.94 79.237a1.437 1.437 0 0 0-.52.425.76.76 0 0 0 0 .55c.135.533.308 1.056.517 1.565a1.971 1.971 0 0 0 .665-2.516 2.403 2.403 0 0 0-.24-.402 1.976 1.976 0 0 1-.421.378zM116.7 82.418a6.364 6.364 0 0 1-2.245-3.977c-.062.307-.096.62-.103.933a7.15 7.15 0 0 0 1.128 4.245c.246-.536.68-.964 1.22-1.2zM114.547 92.083a6.527 6.527 0 0 0-.113-1.912 8.526 8.526 0 0 0-.065 2.004c0 .172.038.344.062.512.038-.203.089-.402.116-.604z"/>
                </g>
                <path fill="#003057" d="M97.768 146.784v-6.194c0-.097.078-.175.175-.175h.703c.096 0 .175.078.175.175v2.577l2.852-2.646a.466.466 0 0 1 .765.343v5.612a.467.467 0 0 1-.765.343l-2.852-2.63v2.565a.175.175 0 0 1-.175.175h-.703a.175.175 0 0 1-.175-.145zM166.693 140.59v6.194a.175.175 0 0 1-.179.175h-.685a.175.175 0 0 1-.175-.175v-2.577l-2.853 2.643a.47.47 0 0 1-.768-.344v-5.631a.47.47 0 0 1 .768-.344l2.853 2.63v-2.56c0-.098.078-.176.175-.176h.685a.175.175 0 0 1 .179.165z"/>
                <path fill="#003057" fill-rule="nonzero" d="M131.066 147.052h-1.395a.686.686 0 0 1-.686-.686v-5.128c0-.379.307-.686.686-.686h1.395c.379 0 .686.307.686.686v5.128c0 .379-.307.686-.686.686zm4.423-.686v-5.128a.686.686 0 0 0-.686-.686h-1.409a.686.686 0 0 0-.685.686v5.128c0 .379.307.686.685.686h1.396a.685.685 0 0 0 .7-.686z"/>
                <path fill="#444053" d="M91.086 132.24h82.286v1H91.086z" opacity=".6"/>
                <ellipse cx="116.495" cy="132.696" fill="#4E4E4E" rx="2.17" ry="2.172"/>
                <path fill="#4E4E4E" d="M91.086 132.24h25.409v1H91.086z"/>
                <path fill="#007FA3" d="M308.114 181.245c.324-.415.62-.85.885-1.305l-6.24-1.03 6.747.052a11.428 11.428 0 0 0 .216-9.019l-9.044 4.702 8.345-6.14a11.37 11.37 0 0 0-10.393-5.67 11.373 11.373 0 0 0-9.799 6.646 11.393 11.393 0 0 0 1.41 11.764c-.503.639-.937 1.329-1.296 2.059l8.098 4.21-8.633-2.9a11.4 11.4 0 0 0 1.831 10.688 11.388 11.388 0 0 0 1.225 15.393 11.36 11.36 0 0 0 15.427 0 11.388 11.388 0 0 0 1.225-15.393 11.396 11.396 0 0 0 0-14.071l-.004.014z"/>
                <path fill="#005A70" d="M55.552 145.861l-.377 2.914c-.127.988-.254 1.973-.322 2.965-.23 3.302.195 6.617.085 9.925-.089 2.547-.493 5.09-.298 7.633.175 2.244.813 4.427 1.45 6.59l.905 3.088c.031.161.11.31.227.426a.798.798 0 0 0 .58.092l4.017-.363c-.257-1.181-.541-2.403-.685-3.614-.11-.948-.175-1.902-.244-2.856-.212-2.972-.456-5.944-.685-8.923l-.429-5.216c-.182-2.265-.37-4.54-.94-6.74a13.42 13.42 0 0 0-3.284-5.92z"/>
                <path fill="#4E4E4E" d="M62.71 245.051c-.235.465-.441.944-.616 1.435-.46 1.355-.528 2.81-.597 4.242-.03.275-.005.554.076.82.198.515.768.776 1.299.916 2.225.6 4.57.038 6.857-.168 2.287-.206 4.546-.055 6.754-.552.326-.063.642-.173.936-.326a2.92 2.92 0 0 0 1.183-1.545 2.02 2.02 0 0 0 .134-.508c.072-.755-.583-1.407-1.296-1.654-.713-.247-1.491-.21-2.242-.285a7.066 7.066 0 0 1-6.254-5.906c-.027-.165-3.717-.065-4.114.147-.453.25-.727.872-.984 1.294-.405.68-.783 1.376-1.135 2.09z"/>
                <path fill="#4E4E4E" d="M68.83 246.143c-.236.462-.443.94-.616 1.43-.463 1.374-.532 2.812-.597 4.243-.032.275-.006.555.076.82.195.515.764.776 1.296.92 2.225.597 4.573.034 6.857-.172 2.283-.206 4.55-.055 6.754-.552.328-.067.643-.182.936-.344.56-.363.978-.909 1.183-1.544a2.02 2.02 0 0 0 .134-.508c.072-.752-.583-1.407-1.296-1.654-.714-.247-1.492-.206-2.243-.285a7.07 7.07 0 0 1-6.253-5.903c-.028-.165-3.717-.069-4.115.144-.456.25-.73.872-.987 1.294-.391.697-.775 1.397-1.128 2.11z"/>
                <path fill="#000" d="M84.784 209.685c.048 7.417-2.105 14.665-4.632 21.621a198.204 198.204 0 0 1-3.185 8.206c-.665 1.606-1.416 3.39-.703 4.976-2.057-.782-4.149-1.242-6.312-.882.823-1.681.744-3.637.782-5.49.07-2.54.34-5.07.809-7.568a42.241 42.241 0 0 1 3.7-10.945c.349-.73.59-1.506.716-2.306.281-1.764.062-3.576-.305-5.323a31.753 31.753 0 0 0-4.423-10.845l-.02.22a32.039 32.039 0 0 1-.556 3.284c-.484 2.296-1.05 4.596-.964 6.905.09 2.45-.062 4.901-.452 7.32-.126.95-.374 1.88-.737 2.767-.237.532-.545 1.03-.73 1.582a7.214 7.214 0 0 0-.289 1.956c-.274 5.584 0 11.254 1.139 16.727-1.91-.15-3.82.402-5.527 1.26a68.194 68.194 0 0 1-2.914-12.046 40.062 40.062 0 0 1 .445-14.572c.324-1.597.445-3.229.36-4.856-.147-3.244-.943-6.415-1.735-9.565l-1.206-4.805c-.572-2.288-1.143-4.566-1.715-6.833-.38-1.513-.764-3.061-.644-4.62.083-.854.263-1.697.535-2.511a28.047 28.047 0 0 1 3.795-7.77c6.607.37 13.293-.248 19.886-.755.32-.064.651-.007.932.157.225.229.359.531.377.852l2.48 14.07c.4 1.956.636 3.942.702 5.938 0 1.99-.308 3.974-.233 5.961.103 2.677.61 5.21.624 7.89z"/>
                <path fill="#EE936F" d="M76.72 133.084s-3.669 5.852-2.99 7.077c.68 1.225-11.554-1.088-11.554-1.088s6.662-5.852 5.98-8.302c-.683-2.45 8.564 2.313 8.564 2.313z"/>
                <ellipse cx="73.459" cy="126.553" fill="#EE936F" rx="8.294" ry="8.302"/>
                <path fill="#005A70" d="M76.843 139.22a8.422 8.422 0 0 0-3.486-2.807 12.463 12.463 0 0 0-2.48-.61l-3.308-.584c-.809-.144-1.676-.278-2.43.055a3.984 3.984 0 0 0-1.03.758c-1.148 1.067-2.262 2.238-3.706 2.856-.394.168-.805.291-1.2.46-1.614.686-2.821 2.148-3.504 3.775-.72 1.695-.74 3.538-.685 5.38-.001.637.062 1.272.188 1.895.165.594.375 1.175.628 1.737a31.792 31.792 0 0 1 1.145 3.682c.857 3.284 1.57 6.601 2.14 9.953.048.48.188.946.414 1.373.32.427.707.799 1.145 1.101.348.286.669.605.957.951.144.141.25.316.312.508.106.494-.343.92-.686 1.28a6.2 6.2 0 0 0-1.55 2.701c-.172.209-.26.474-.246.745.071.188.098.39.078.59a1.332 1.332 0 0 1-.312.484 1.83 1.83 0 0 0-.342 1.469 23.258 23.258 0 0 0 8.118 1.901c.686.034 1.372.034 2.058.117.486.062.966.161 1.453.22a15.68 15.68 0 0 0 2.126.054c3.693-.075 7.491-.168 10.882-1.633.32-1.74-.37-3.515-.802-5.23-.686-2.746-.857-5.557-1.371-8.326-.343-1.891-.858-3.755-1.149-5.66-.291-1.904-.343-3.878.165-5.731.462-1.64.603-3.315 1.083-4.952s.816-3.412.274-5.032c-.685-2.004-2.767-3.593-4.879-3.48z"/>
                <path fill="#000" d="M80.917 122.15c.404-1.472-.391-3.006-1.338-4.204-1.028-1.287-2.338-2.447-3.946-2.77-1.306-.264-2.66.055-3.99-.051-1.177-.093-2.308-.518-3.477-.687a11.002 11.002 0 0 0-3.182.12c-.996.149-1.969.42-2.897.81-3.532 1.569-5.599 5.433-6.079 9.267-.48 3.833.36 7.698 1.197 11.47l.757 3.41c.789 3.553 1.577 7.118 1.787 10.75.209 3.63-.182 7.358-1.674 10.673a22.949 22.949 0 0 0 10.536-11.94c.535-1.404.933-2.862 1.53-4.242.51-1.187 1.165-2.313 1.618-3.524a11.46 11.46 0 0 0 .723-4.28c-.027-1.098-.209-2.19-.178-3.288.03-1.098.312-2.241 1.07-3.037.685-.704 1.628-1.03 2.496-1.486a10.394 10.394 0 0 0 3.493-2.917c.546-.714.576-1.03.714-1.84.137-.81.627-1.455.84-2.234z"/>
                <path fill="#EE936F" d="M80.927 184.512c.086.854-.069 1.716.116 2.563.141.632.467 1.202.659 1.82.19.713.288 1.447.291 2.186.028.617-.02 1.372-.569 1.66-.24.128-.528.128-.778.237-.25.11-.463.409-.32.642.145.234.392.196.618.24.226.045.47.278.343.467a.39.39 0 0 1-.199.127c-.229.07-.446.175-.645.309a.66.66 0 0 0-.264.628.388.388 0 0 0 .552.254c-.1.215-.155.449-.16.686.877.378 1.861-.116 2.684-.593.356-.199.7-.42 1.028-.66a5.15 5.15 0 0 0 2.003-4.382c-.04-.421-.105-.84-.196-1.252a18.864 18.864 0 0 0-.504-2.132c-.236-.738-.559-1.441-.836-2.165-.59-1.541-.97-3.154-1.505-4.716a.714.714 0 0 0-.258-.408.723.723 0 0 0-.38-.072 6.23 6.23 0 0 0-1.786.164c-.343.103-.93.344-1.09.687-.162.343.095.631.25.916.492.861.814 1.81.946 2.794z"/>
                <path fill="#005A70" d="M80.776 142.536c.176.181.324.388.439.614 1.18 2.142 1.193 4.709 1.248 7.156.062 2.745.212 5.49.363 8.236l.45 8.237c.044.786.085 1.572.198 2.35.528.135.549.821.487 1.374-.377 3.356-1.32 6.809-.343 10.041.038.166.117.32.23.447a2.675 2.675 0 0 0-1.533-.021c-.49.103-.963.285-1.457.395-.624.144-1.33.202-1.755.686a33.732 33.732 0 0 1-1.138-4.455c-.234-1.372-.299-2.783-.854-4.053a16.575 16.575 0 0 0-.799-1.475c-1.44-2.568-2.143-5.471-2.832-8.333a12.168 12.168 0 0 1-.22-4.14 8.932 8.932 0 0 0-.092-3.908c-.291-1.94-.154-3.92.401-5.8.514-1.747.967-3.586 2.057-5.055 1.09-1.47 3.33-2.269 5.15-2.296z"/>
            </g>
        </g>
    </g>
</svg>
