<svg xmlns="http://www.w3.org/2000/svg" width="24" height="24" viewBox="0 0 24 24">
    <g fill="#C7C7C7" fill-rule="evenodd">
        <path d="M10.5 17.662v-1.396c.648-.547.875-1.576.912-2.419.433-.29.632-.935.632-1.46 0-.43-.146-.914-.486-1.175.313-.748.484-1.55.288-2.333C11.56 7.737 10.206 7 8.395 7c-1.189 0-2.74.401-3.289 1.455-.403-.019-.836.116-1.059.455l-.005.006-.005.01c-.395.63.005 1.594.309 2.275-.399.275-.596.811-.596 1.3 0 .568.264 1.162.761 1.392.048.865.302 1.86.989 2.386v1.383C4.497 18.072 0 19.925 0 21v2.5a.5.5 0 0 0 .5.5h14.999a.5.5 0 0 0 .501-.5V21c0-1.077-4.503-2.932-5.5-3.338"/>
        <path d="M16 6h1V5h-1v1zm3 0h1V5h-1v1zm-6 0h1V5h-1v1zm10.499-6H8.5a.5.5 0 0 0-.5.5v5.516c2.505-.131 5.196.978 4.9 3.984H16v3c0 .448.543.665.854.354L20.207 10H23.5a.5.5 0 0 0 .5-.5V.499A.5.5 0 0 0 23.499 0z"/>
    </g>
</svg>
