<svg xmlns="http://www.w3.org/2000/svg" width="26" height="25" viewBox="0 0 26 25">
    <g fill="none" fill-rule="evenodd">
        <path fill="#505759" d="M14.94 19.79c-1.012-.576-1.15-1.51-.732-2.223l1.053-1.803c.424-.721 1.317-1.054 2.313-.483 0-.425.029-.741.343-1.136-1.014-.404-2.457-.888-4.556-1.645v-1.856c.511-.339 1.454-1.207 1.569-3.05.385-.24.629-.758.629-1.418 0-.581-.188-1.051-.496-1.319.256-.662.679-1.822.388-2.973C15.103.494 13.114 0 11.517 0c-1.413 0-3.134.388-3.752 1.442-.738-.042-1.146.27-1.345.532-.547.719-.292 1.847.002 2.86-.346.259-.56.75-.56 1.36 0 .67.258 1.163.664 1.4.115 1.843 1.058 2.711 1.568 3.05V12.5c-5 1.804-6.32 2.06-6.818 3.369-.52 1.55-.554 4.299-.554 4.444 0 .287.237.52.526.52H14.05c.145-.538.454-.794.89-1.042"/>
        <path fill="#EA7600" d="M20.207 21.875c-1.163 0-2.106-.933-2.106-2.083 0-1.15.943-2.084 2.106-2.084 1.163 0 2.107.934 2.107 2.084s-.944 2.083-2.107 2.083m4.895-1.093l-.74-.423c.078-.563.078-.57 0-1.137l.74-.421a.519.519 0 0 0 .192-.712l-1.054-1.805a.529.529 0 0 0-.718-.191l-.74.423a4.183 4.183 0 0 0-.995-.582v-.83a.524.524 0 0 0-.527-.52h-2.106a.524.524 0 0 0-.527.52v.83c-.362.146-.69.348-.995.582l-.74-.421a.53.53 0 0 0-.719.19l-1.053 1.804a.517.517 0 0 0 .193.712l.74.422c-.079.562-.08.57 0 1.135l-.74.422a.52.52 0 0 0-.194.713l1.054 1.804a.53.53 0 0 0 .72.192l.738-.422a4.2 4.2 0 0 0 .996.582v.83c0 .288.236.521.527.521h2.106c.291 0 .527-.233.527-.52v-.831c.363-.146.692-.348.996-.581l.739.42a.53.53 0 0 0 .72-.191l1.052-1.804a.515.515 0 0 0-.192-.71"/>
    </g>
</svg>
