<svg xmlns="http://www.w3.org/2000/svg" width="25" height="19" viewBox="0 0 25 19">
    <g fill="none" fill-rule="evenodd">
        <path fill="#EA7600" d="M15.264 5.486c.113 2.215-.802 4.389-2.196 5.708v.33l3.35 1.18a4.335 4.335 0 0 1 2.9 4.075V19h5.113c.315 0 .569-.25.569-.56V16.78a3.214 3.214 0 0 0-2.148-3.022L18.75 12.31V10.68c1.347-1.077 2.235-2.897 2.2-4.964-.629.257-1.488.33-1.764.33-1.078 0-1.926-.445-2.644-1.38-.345.326-.793.599-1.278.82"/>
        <path fill="#EA7600" d="M13.366.823c.861.93 1.484 2.135 1.758 3.49.14.662.14 1.173.14 1.173s.923-.1 1.13-.104c.218.019.57.108.764.223 2.277 1.346 3.793.111 3.793.111s-.03-.644-.117-1.138C20.33 1.963 18.317 0 15.91 0c-.933 0-1.796.309-2.543.823z"/>
        <path fill="#505759" d="M5.656 6.562c1.114 0 3.508-.757 3.896-1.492.097-.182 1.896 1.278 2.104 1.273 1.314.219 2.477-.626 2.477-.626s0-.5-.117-1.14C13.512 1.964 11.5 0 9.091 0c-2.273 0-4.176 1.758-4.81 4.15-.268 1.33-.198 1.174-.198 1.174l1.573 1.238z"/>
        <path fill="#505759" d="M16.034 13.757l-4.102-1.445V10.68c1.348-1.077 2.234-2.898 2.201-4.963-.63.256-1.489.33-1.766.33-1.077 0-1.925-.447-2.644-1.382-.804.763-2.125 1.308-3.336 1.308-.728 0-1.353-.118-2.304-.649-.201 2.277.742 4.226 2.167 5.353v1.635l-4.102 1.445A3.213 3.213 0 0 0 0 16.778v1.663c0 .31.255.559.568.559h17.046c.314 0 .568-.25.568-.559v-1.663a3.211 3.211 0 0 0-2.148-3.021"/>
    </g>
</svg>
