<svg xmlns="http://www.w3.org/2000/svg" width="24" height="24" viewBox="0 0 24 24">
    <g fill="none" fill-rule="evenodd">
        <path fill="#505759" d="M3.5 13a.5.5 0 0 1 0-1h6a.5.5 0 0 1 0 1h-6zm5 3h-5a.5.5 0 0 1 0-1h5a.5.5 0 0 1 0 1zm-5-7h8a.5.5 0 0 1 0 1h-8a.5.5 0 0 1 0-1zm0-3H8a.5.5 0 0 1 0 1H3.5a.5.5 0 0 1 0-1zM11 1l5 5h-5V1zM9.756 19.951c-.397-.686-.269-1.576.751-2.165a5.999 5.999 0 0 1 0-.569c-1-.579-1.165-1.456-.753-2.167l1.5-2.599c.395-.685 1.265-1 2.256-.429.159-.1.322-.195.49-.282 0-1.158.683-1.74 1.5-1.74H17V5.5a.5.5 0 0 0-.147-.354l-5-5A.501.501 0 0 0 11.5 0H.5a.5.5 0 0 0-.5.5v21a.5.5 0 0 0 .5.5h10.439l-1.183-2.049z"/>
        <path fill="#EA7600" d="M17 20a2.502 2.502 0 0 1-2.5-2.5c0-1.379 1.121-2.5 2.5-2.5s2.5 1.121 2.5 2.5S18.379 20 17 20m6.195-1.231l-.764-.442a5.033 5.033 0 0 0 .001-1.652l.765-.443a.496.496 0 0 0 .183-.682l-1.5-2.599a.498.498 0 0 0-.683-.182l-.764.441A5.479 5.479 0 0 0 19 12.382V11.5a.5.5 0 0 0-.5-.5h-3a.5.5 0 0 0-.5.5v.882a5.479 5.479 0 0 0-1.433.828l-.764-.441a.5.5 0 0 0-.683.182l-1.5 2.599a.496.496 0 0 0 .183.682l.765.443a5.033 5.033 0 0 0 .001 1.652l-.764.442a.497.497 0 0 0-.183.682l1.5 2.599c.137.241.446.32.683.182l.764-.441c.429.344.911.623 1.431.828v.881a.5.5 0 0 0 .5.5h3a.5.5 0 0 0 .5-.5v-.881a5.523 5.523 0 0 0 1.431-.828l.764.441a.499.499 0 0 0 .683-.182l1.5-2.599a.497.497 0 0 0-.183-.682"/>
    </g>
</svg>
