<svg xmlns="http://www.w3.org/2000/svg" width="40" height="40" viewBox="0 0 40 40">
    <g fill="none" fill-rule="evenodd">
        <circle cx="20" cy="20" r="20" fill="#FFE9B6"/>
        <g fill="#FFB81C">
            <path d="M21.511 25.836l-.626-1.816-.799 2.328h-.224c-.46 0-.833.369-.833.826 0 .457.372.826.833.826h1.185c-.452-.77-.212-1.68.464-2.164M29.167 26.348h-.237l-3.638-10.564c-.255-.741-1.322-.744-1.578 0l-1.07 3.116.882 2.559.977-2.848 1.244 3.606h-1.96l.569 1.653h1.959l.876 2.542a.826.826 0 0 0-.511.762c0 .457.372.826.833.826h1.654c.46 0 .833-.37.833-.826a.829.829 0 0 0-.833-.826"/>
            <path d="M15.233 20.565L17.9 12.8l2.676 7.766h-5.343zM25 26.348h-.671L18.688 9.972c-.254-.742-1.322-.744-1.577.001l-5.624 16.375h-.653c-.461 0-.834.37-.834.826 0 .457.373.826.834.826h2.516c.461 0 .834-.37.834-.826 0-.445-.317-.826-.937-.826l1.418-4.13h6.48l1.423 4.13c-.601 0-.919.388-.919.826a.83.83 0 0 0 .834.826H25a.83.83 0 0 0 .834-.826.83.83 0 0 0-.834-.826z"/>
        </g>
    </g>
</svg>
