<svg xmlns="http://www.w3.org/2000/svg" width="40" height="40" viewBox="0 0 40 40">
    <g fill="none" fill-rule="evenodd">
        <circle cx="20" cy="20" r="20" fill="#D7EAAD"/>
        <g fill="#84BD00">
            <path d="M10.293 29.246a.417.417 0 0 0 .5.5s5.459-1.285 5.49-1.302l-4.688-4.688c-.017.031-1.302 5.49-1.302 5.49M27.909 16.844l.59-.59-4.715-4.713-.59.589zM16.886 27.867L27.32 17.433l-4.714-4.713L12.17 23.154zM29.087 15.666l.295-.295a2.086 2.086 0 0 0 0-2.946l-1.768-1.767a2.064 2.064 0 0 0-1.473-.611c-.556 0-1.08.216-1.473.611l-.295.294 4.714 4.714z"/>
        </g>
    </g>
</svg>
