<svg xmlns="http://www.w3.org/2000/svg" width="24" height="24" viewBox="0 0 24 24">
    <g fill="#84BD00" fill-rule="evenodd">
        <path d="M21.448 15.79l-4.068 4.327a.498.498 0 0 1-.707.017l-2.905-2.821a.497.497 0 0 1 .692-.712l2.543 2.469 3.721-3.96a.496.496 0 0 1 .724.68m-4.069-4.866a6.462 6.462 0 0 0-6.455 6.455 6.463 6.463 0 0 0 6.455 6.455 6.463 6.463 0 0 0 6.455-6.455 6.462 6.462 0 0 0-6.455-6.455"/>
        <path d="M9.434 12.91H3.476a.497.497 0 0 1 0-.993h5.958a.497.497 0 0 1 0 .993zm-.993 2.98H3.476a.497.497 0 0 1 0-.993H8.44a.497.497 0 0 1 0 .993zM3.476 8.938h7.945a.497.497 0 0 1 0 .993H3.476a.497.497 0 0 1 0-.993zm0-2.98h4.469a.497.497 0 0 1 0 .994h-4.47a.497.497 0 0 1 0-.993zM10.924.994L15.89 5.96h-4.966V.993zM9.931 17.38c0-3.94 3.077-7.165 6.952-7.422V5.462a.5.5 0 0 0-.145-.351L11.772.145A.502.502 0 0 0 11.421 0H.497A.497.497 0 0 0 0 .497v20.855c0 .274.222.496.497.496h10.939A7.393 7.393 0 0 1 9.93 17.38z"/>
    </g>
</svg>
