<svg xmlns="http://www.w3.org/2000/svg" width="40" height="40" viewBox="0 0 40 40">
    <g fill="none" fill-rule="evenodd">
        <circle cx="20" cy="20" r="20" fill="#F8D4AD"/>
        <path fill="#EA7600" d="M26.222 12.5h-.889v-1.313c0-.241-.2-.437-.444-.437H14.222a.441.441 0 0 0-.444.438c0 .241.199.437.444.437h10.222v.875H14.222a1.325 1.325 0 0 1-1.333-1.313c0-.723.598-1.312 1.333-1.312h12V12.5zm1.334 0h-.445V9.437c0-.241-.2-.437-.444-.437H14.222C12.996 9 12 9.982 12 11.188v16.624c0 1.206.996 2.188 2.222 2.188h13.334a.442.442 0 0 0 .444-.438V12.938c0-.241-.2-.437-.444-.437z"/>
        <path fill="#FFF" d="M18.644 22l1.348-4.18L21.344 22h-2.7zm4.935 3.111h-.34L20.39 16.3a.414.414 0 0 0-.796 0l-2.842 8.811h-.33a.433.433 0 0 0-.421.445c0 .245.188.444.421.444h1.272a.433.433 0 0 0 .42-.444c0-.24-.16-.445-.473-.445l.717-2.222h3.274l.719 2.222c-.304 0-.464.209-.464.445 0 .245.189.444.42.444h1.273a.433.433 0 0 0 .421-.444.433.433 0 0 0-.421-.445z"/>
    </g>
</svg>
