<svg xmlns="http://www.w3.org/2000/svg" xmlns:xlink="http://www.w3.org/1999/xlink" width="50" height="55" viewBox="0 0 50 55">
    <defs>
        <path id="a" d="M.059.083h6.507v9.265H.059z"/>
        <path id="c" d="M0 .032h37.988v9.266H0z"/>
        <path id="e" d="M0 55h50V0H0z"/>
    </defs>
    <g fill="none" fill-rule="evenodd">
        <path fill="#F2F2F2" d="M43.142 3.8c0-1.852 1.486-3.353 3.318-3.353H10.685C7.716.447 5.31 2.88 5.31 5.877v36.538c0 3 2.406 5.43 5.375 5.43h27.082c2.969 0 5.375-2.43 5.375-5.43V3.799z"/>
        <g transform="translate(43.363 .447)">
            <mask id="b" fill="#fff">
                <use xlink:href="#a"/>
            </mask>
            <path fill="#E6E6E6" d="M3.312.083C1.515.083.06 1.592.06 3.453v5.895h6.507V3.453c0-1.861-1.457-3.37-3.254-3.37" mask="url(#b)"/>
        </g>
        <path fill="#FFF" d="M38.435 6.476c0-1.6 1.216-2.899 2.715-2.899h-27.9c-2.43 0-4.4 2.103-4.4 4.697v31.744c0 2.594 1.97 4.697 4.4 4.697h20.785c2.43 0 4.4-2.103 4.4-4.697V6.476z"/>
        <g transform="translate(0 38.455)">
            <mask id="d" fill="#fff">
                <use xlink:href="#c"/>
            </mask>
            <path fill="#E6E6E6" d="M34.665 4.665c0-2.148 1.39-3.969 3.323-4.633H4.658C2.086.032 0 2.107 0 4.665c0 2.559 2.086 4.633 4.658 4.633h33.33c-1.933-.664-3.323-2.485-3.323-4.633" mask="url(#d)"/>
        </g>
        <mask id="f" fill="#fff">
            <use xlink:href="#e"/>
        </mask>
        <path fill="#0FB2A6" d="M12.39 10.732h22.566v-.895H12.389zM12.39 17.439h22.566v-.894H12.389zM12.39 23.7h22.566v-.895H12.389zM12.39 29.96h22.566v-.895H12.389zM12.39 35.325h22.566v-.894H12.389z" mask="url(#f)"/>
        <path fill="#FFF" d="M33.186 47.398c0 2.47-1.981 4.472-4.425 4.472s-4.425-2.002-4.425-4.472c0-2.47 1.981-4.471 4.425-4.471s4.425 2.002 4.425 4.471" mask="url(#f)"/>
        <path fill="#FFCD00" d="M28.54 40.691c-3.3 0-5.974 2.703-5.974 6.037 0 3.333 2.675 6.036 5.974 6.036 3.3 0 5.973-2.703 5.973-6.036 0-3.334-2.674-6.037-5.973-6.037" mask="url(#f)"/>
        <path fill="#FFA300" d="M28.319 40.691c3.42 0 6.194 2.703 6.194 6.037s-2.773 6.036-6.194 6.036V40.691z" mask="url(#f)"/>
        <path fill="#007FA3" d="M26.549 52.283c-1.314-.468-2.42-1.417-3.138-2.649l-1.692 3.115c-.119.22.06.488.29.444l1.93-.348.672 1.959c.08.231.37.27.497.05l1.44-2.57zM30.531 52.283c1.314-.468 2.419-1.417 3.138-2.649l1.691 3.115c.12.22-.06.488-.29.444l-1.929-.348-.672 1.959c-.08.231-.37.27-.497.05l-1.441-2.57z" mask="url(#f)"/>
        <path fill="#FFF" d="M28.471 43.474l.825 1.773c.025.053.073.09.128.098l1.846.284c.14.022.195.203.094.308l-1.335 1.379a.187.187 0 0 0-.05.16l.316 1.947c.024.147-.122.26-.246.19l-1.651-.92a.162.162 0 0 0-.159 0l-1.65.92c-.125.07-.27-.043-.247-.19l.315-1.948a.187.187 0 0 0-.049-.159l-1.335-1.38c-.101-.104-.045-.285.094-.307l1.846-.284a.171.171 0 0 0 .128-.098l.825-1.773a.166.166 0 0 1 .305 0" mask="url(#f)"/>
        <path fill="#FFD839" d="M4.733 13.969l-1.139-1.755a.308.308 0 0 0-.566.152l-.11 2.09a.308.308 0 0 1-.228.282l-2.019.541a.309.309 0 0 0-.03.587l1.95.75c.126.048.205.17.198.304l-.097 1.86 2.175-4.7a.303.303 0 0 1-.134-.111" mask="url(#f)"/>
        <path fill="#FFCD00" d="M7.453 14.367a.308.308 0 0 0 .019-.364.314.314 0 0 0-.343-.13l-2.048.543a.312.312 0 0 1-.207-.018l-2.206 4.72-.013.23a.31.31 0 0 0 .2.306c.127.048.27.01.356-.094l1.334-1.634a.315.315 0 0 1 .355-.094l1.98.753c.126.049.27.01.355-.094a.308.308 0 0 0 .019-.364l-1.155-1.763A.308.308 0 0 1 6.12 16l1.334-1.633z" mask="url(#f)"/>
        <path fill="#FFD839" d="M44.18 13.405l-.569-.819a.16.16 0 0 0-.169-.06.147.147 0 0 0-.114.131l-.055.975a.147.147 0 0 1-.114.132l-1.01.253a.147.147 0 0 0-.113.131.144.144 0 0 0 .098.142l.976.35c.062.023.102.08.099.142l-.049.868 1.088-2.193a.15.15 0 0 1-.067-.052" mask="url(#f)"/>
        <path fill="#FFCD00" d="M45.544 13.648a.144.144 0 0 0 .008-.168.142.142 0 0 0-.156-.06l-.93.25a.14.14 0 0 1-.094-.008l-1.003 2.179-.006.106a.143.143 0 0 0 .091.141.141.141 0 0 0 .161-.044l.607-.753a.142.142 0 0 1 .161-.044l.9.348a.142.142 0 0 0 .161-.044.144.144 0 0 0 .01-.168l-.526-.813a.144.144 0 0 1 .01-.168l.606-.754z" mask="url(#f)"/>
        <path fill="#FF9811" d="M10.108 1.418a.335.335 0 0 0 .02-.377.295.295 0 0 0-.334-.135L8.5 1.274a.278.278 0 0 1-.121.004L6.654 4.693l-.016.336a.321.321 0 0 0 .193.316c.123.05.262.01.344-.098l.844-1.101a.293.293 0 0 1 .343-.096l1.251.507c.123.05.262.012.345-.096a.335.335 0 0 0 .019-.377l-.732-1.19a.335.335 0 0 1 .018-.375l.845-1.101z" mask="url(#f)"/>
        <path fill="#FFAF46" d="M8.182 1.34L7.402.146a.325.325 0 0 0-.594.158l-.076 1.425a.322.322 0 0 1-.24.294l-1.384.369a.323.323 0 0 0-.033.612l1.338.511c.131.05.215.178.208.318l-.058 1.087L8.407 1.48a.322.322 0 0 1-.225-.14" mask="url(#f)"/>
    </g>
</svg>
