<svg xmlns="http://www.w3.org/2000/svg" xmlns:xlink="http://www.w3.org/1999/xlink" width="105" height="114" viewBox="0 0 105 114">
    <defs>
        <path id="a" d="M.123.172h13.665v19.205H.123z"/>
        <path id="c" d="M0 .067h79.774v19.206H0z"/>
        <path id="e" d="M0 114h105V0H0z"/>
    </defs>
    <g fill="none" fill-rule="evenodd">
        <path fill="#F2F2F2" d="M90.598 7.875c0-3.838 3.12-6.948 6.968-6.948H22.44c-6.234 0-11.289 5.04-11.289 11.256v75.732c0 6.216 5.055 11.256 11.29 11.256h56.87c6.235 0 11.288-5.04 11.288-11.256V7.875z"/>
        <g transform="translate(91.062 .927)">
            <mask id="b" fill="#fff">
                <use xlink:href="#a"/>
            </mask>
            <path fill="#E6E6E6" d="M6.956.172C3.182.172.123 3.3.123 7.156v12.22H13.79V7.157C13.788 3.3 10.729.172 6.956.172" mask="url(#b)"/>
        </g>
        <path fill="#FFF" d="M80.713 13.424c0-3.318 2.553-6.01 5.703-6.01H27.824c-5.103 0-9.24 4.36-9.24 9.737v65.796c0 5.377 4.137 9.736 9.24 9.736h43.649c5.103 0 9.24-4.359 9.24-9.736V13.424z"/>
        <g transform="translate(0 79.707)">
            <mask id="d" fill="#fff">
                <use xlink:href="#c"/>
            </mask>
            <path fill="#E6E6E6" d="M72.796 9.67c0-4.452 2.92-8.226 6.978-9.603H9.783C4.38.067 0 4.367 0 9.67s4.38 9.603 9.783 9.603h69.99c-4.058-1.377-6.977-5.151-6.977-9.603" mask="url(#d)"/>
        </g>
        <mask id="f" fill="#fff">
            <use xlink:href="#e"/>
        </mask>
        <path fill="#0FB2A6" d="M26.018 22.244h47.39V20.39h-47.39zM26.018 36.146h47.39v-1.853h-47.39zM26.018 49.122h47.39v-1.854h-47.39zM26.018 62.098h47.39v-1.854h-47.39zM26.018 73.22h47.39v-1.854h-47.39z" mask="url(#f)"/>
        <path fill="#FFF" d="M69.69 98.244c0 5.119-4.16 9.268-9.292 9.268s-9.292-4.15-9.292-9.268c0-5.119 4.16-9.268 9.292-9.268s9.292 4.15 9.292 9.268" mask="url(#f)"/>
        <path fill="#FFCD00" d="M59.934 84.341c-6.929 0-12.545 5.603-12.545 12.513s5.616 12.512 12.545 12.512c6.928 0 12.544-5.602 12.544-12.512S66.862 84.34 59.934 84.34" mask="url(#f)"/>
        <path fill="#FFA300" d="M59.469 84.341c7.185 0 13.009 5.602 13.009 12.513 0 6.91-5.824 12.512-13.009 12.512V84.34z" mask="url(#f)"/>
        <path fill="#007FA3" d="M55.752 108.369c-2.76-.97-5.08-2.937-6.59-5.491l-3.551 6.456c-.25.457.126 1.011.608.92l4.051-.72 1.413 4.059c.168.48.776.56 1.043.105l3.026-5.329zM64.115 108.369c2.76-.97 5.08-2.937 6.59-5.491l3.551 6.456c.251.457-.126 1.011-.608.92l-4.051-.72-1.412 4.059c-.169.48-.777.56-1.044.105l-3.026-5.329z" mask="url(#f)"/>
        <path fill="#FFF" d="M59.79 90.11l1.733 3.674c.052.11.152.187.268.204l3.876.59c.293.044.41.42.198.636l-2.804 2.86a.384.384 0 0 0-.103.33l.662 4.037c.05.305-.256.537-.518.393l-3.467-1.906a.344.344 0 0 0-.332 0l-3.467 1.906c-.262.144-.568-.088-.518-.393l.662-4.037a.384.384 0 0 0-.102-.33l-2.805-2.86c-.212-.216-.095-.592.198-.637l3.876-.589a.359.359 0 0 0 .269-.204l1.733-3.673a.35.35 0 0 1 .64 0" mask="url(#f)"/>
        <path fill="#FFD839" d="M9.939 28.953l-2.39-3.637a.652.652 0 0 0-.712-.27.642.642 0 0 0-.479.585l-.23 4.332a.641.641 0 0 1-.478.584L1.41 31.67a.642.642 0 0 0-.48.584.64.64 0 0 0 .415.632l4.098 1.554c.262.1.43.354.415.631l-.205 3.856 4.568-9.741a.634.634 0 0 1-.282-.233" mask="url(#f)"/>
        <path fill="#FFCD00" d="M15.65 29.779a.632.632 0 0 0 .04-.754.663.663 0 0 0-.72-.271l-4.3 1.127a.662.662 0 0 1-.435-.038l-4.633 9.784-.026.477a.642.642 0 0 0 .42.634c.266.1.568.02.747-.196l2.8-3.385a.666.666 0 0 1 .747-.196l4.156 1.562c.266.1.567.021.747-.195a.633.633 0 0 0 .04-.756l-2.425-3.653a.632.632 0 0 1 .04-.755l2.803-3.385z" mask="url(#f)"/>
        <path fill="#FFD839" d="M92.78 27.785l-1.196-1.698a.338.338 0 0 0-.356-.126.305.305 0 0 0-.24.273l-.114 2.022a.305.305 0 0 1-.24.272l-2.12.524a.305.305 0 0 0-.24.273.299.299 0 0 0 .208.295l2.05.725a.3.3 0 0 1 .207.295l-.103 1.799 2.284-4.546a.315.315 0 0 1-.14-.108" mask="url(#f)"/>
        <path fill="#FFCD00" d="M95.642 28.288c.08-.1.088-.24.018-.348a.3.3 0 0 0-.328-.125l-1.954.52a.296.296 0 0 1-.198-.017l-2.106 4.515-.012.22a.3.3 0 0 0 .53.202l1.274-1.562a.3.3 0 0 1 .339-.09l1.889.72a.3.3 0 0 0 .34-.09c.08-.1.088-.24.018-.348L94.35 30.2a.296.296 0 0 1 .018-.349l1.274-1.562z" mask="url(#f)"/>
        <path fill="#FF9811" d="M21.227 2.939a.686.686 0 0 0 .043-.782.623.623 0 0 0-.702-.28l-2.718.763a.592.592 0 0 1-.254.009l-3.623 7.08-.034.694a.665.665 0 0 0 .407.655.619.619 0 0 0 .722-.202l1.77-2.283a.62.62 0 0 1 .723-.199l2.627 1.052c.258.105.55.023.724-.2a.686.686 0 0 0 .04-.78L19.413 6a.687.687 0 0 1 .039-.78l1.774-2.281z" mask="url(#f)"/>
        <path fill="#FFAF46" d="M17.183 2.78L15.543.3A.686.686 0 0 0 14.8.023a.671.671 0 0 0-.503.604l-.16 2.954a.67.67 0 0 1-.504.61l-2.907.764a.67.67 0 0 0-.504.61c-.016.29.16.556.436.66l2.81 1.058c.275.104.451.37.435.66l-.12 2.252 3.872-7.127a.678.678 0 0 1-.472-.289" mask="url(#f)"/>
    </g>
</svg>
