<svg xmlns="http://www.w3.org/2000/svg" width="17" height="17" viewBox="0 0 17 17">
    <g fill="#007FA3" fill-rule="evenodd">
        <path d="M15.298 11.263l-2.902 3.086a.355.355 0 0 1-.504.012L9.82 12.349a.354.354 0 0 1 .494-.508l1.813 1.76 2.654-2.824a.354.354 0 0 1 .517.486m-2.902-3.471a4.609 4.609 0 0 0-4.605 4.604A4.61 4.61 0 0 0 12.396 17 4.61 4.61 0 0 0 17 12.396a4.609 4.609 0 0 0-4.604-4.604"/>
        <path d="M6.73 9.208H2.48a.354.354 0 0 1 0-.708h4.25a.354.354 0 0 1 0 .708zm-.71 2.125H2.48a.354.354 0 0 1 0-.708h3.54a.354.354 0 0 1 0 .708zM2.48 6.375h5.666a.354.354 0 0 1 0 .708H2.479a.354.354 0 0 1 0-.708zm0-2.125h3.187a.354.354 0 0 1 0 .708H2.479a.354.354 0 0 1 0-.708zM7.791.708l3.541 3.542H7.792V.708zm-.709 11.688c0-2.81 2.195-5.11 4.959-5.294V3.896a.357.357 0 0 0-.104-.25L8.397.102A.358.358 0 0 0 8.146 0H.354A.354.354 0 0 0 0 .354V15.23c0 .196.159.354.354.354h7.802a5.273 5.273 0 0 1-1.073-3.187z"/>
    </g>
</svg>
