<?xml version="1.0" encoding="UTF-8"?>
<!DOCTYPE svg PUBLIC "-//W3C//DTD SVG 1.1//EN" "http://www.w3.org/Graphics/SVG/1.1/DTD/svg11.dtd">
<!-- Creator: CorelDRAW X7 -->
<svg xmlns="http://www.w3.org/2000/svg" xml:space="preserve" width="0.2in" height="0.2in" version="1.1" style="shape-rendering:geometricPrecision; text-rendering:geometricPrecision; image-rendering:optimizeQuality; fill-rule:evenodd; clip-rule:evenodd"
viewBox="0 0 200 200"
 xmlns:xlink="http://www.w3.org/1999/xlink">
 <defs>
  <style type="text/css">
   <![CDATA[
    .fil0 {fill:#FDECC2}
    .fil1 {fill:#FFB81C}
   ]]>
  </style>
 </defs>
 <g id="Layer_x0020_1">
  <metadata id="CorelCorpID_0Corel-Layer"/>
  <path class="fil0" d="M100 0c55,0 100,45 100,100 0,55 -45,100 -100,100 -55,0 -100,-45 -100,-100 0,-55 45,-100 100,-100z"/>
  <g id="_775198048">
   <g>
    <g>
     <path class="fil1" d="M109 141l-4 -10 -5 13 -1 0c-2,0 -5,2 -5,5 0,3 3,5 5,5l7 0c-1,-2 -1,-3 -1,-5 0,-3 1,-6 4,-8l0 0zm44 3l-2 0 -21 -61c-1,-4 -7,-4 -9,0l-6 18 5 15 6 -17 7 21 -11 0 3 10 11 0 5 15c-2,0 -3,2 -3,4 0,3 2,5 5,5l10 0c2,0 4,-2 4,-5 0,-3 -2,-5 -4,-5l0 0zm0 0l0 0 0 0z"/>
    </g>
    <path class="fil1" d="M73 111l15 -45 15 45 -30 0zm56 33l-4 0 -33 -94c-1,-5 -7,-5 -9,0l-32 94 -4 0c-2,0 -4,2 -4,5 0,3 2,5 4,5l15 0c3,0 5,-2 5,-5 0,-3 -2,-5 -6,-5l8 -24 38 0 8 24c-4,0 -6,2 -6,5 0,3 3,5 5,5l15 0c2,0 4,-2 4,-5 0,-3 -2,-5 -4,-5l0 0z"/>
   </g>
  </g>
 </g>
</svg>
