<?xml version="1.0" encoding="UTF-8"?>
<!DOCTYPE svg PUBLIC "-//W3C//DTD SVG 1.1//EN" "http://www.w3.org/Graphics/SVG/1.1/DTD/svg11.dtd">
<!-- Creator: CorelDRAW X7 -->
<svg xmlns="http://www.w3.org/2000/svg" xml:space="preserve" width="0.2in" height="0.2in" version="1.1" style="shape-rendering:geometricPrecision; text-rendering:geometricPrecision; image-rendering:optimizeQuality; fill-rule:evenodd; clip-rule:evenodd"
viewBox="0 0 200 200"
 xmlns:xlink="http://www.w3.org/1999/xlink">
 <defs>
  <style type="text/css">
   <![CDATA[
    .fil0 {fill:#FBE9D4}
    .fil1 {fill:#EA7600}
    .fil2 {fill:white}
   ]]>
  </style>
 </defs>
 <g id="Layer_x0020_1">
  <metadata id="CorelCorpID_0Corel-Layer"/>
  <path class="fil0" d="M100 0c55,0 100,45 100,100 0,55 -45,100 -100,100 -55,0 -100,-45 -100,-100 0,-55 45,-100 100,-100z"/>
  <g id="_775217568">
   <g>
    <path class="fil1" d="M130 65l-4 0 0 -7c0,0 0,0 0,0 0,-1 -1,-2 -2,-2l-52 0c-1,0 -2,1 -2,2 0,0 0,0 0,0 0,2 1,3 2,3l50 0 0 4 -50 0c-4,0 -7,-3 -7,-7 0,0 0,0 0,0 0,-3 3,-6 7,-6l58 0 0 13 0 0zm-52 0l-2 0 0 -15c1,15 13,27 28,27 16,0 28,-13 28,-28 0,-1 0,-1 0,-2l-60 0c-6,0 -11,5 -11,11l0 84c0,6 5,11 11,11l65 0c1,0 2,-1 2,-3 0,0 0,0 0,0l0 -83c0,0 0,0 0,0 0,-1 -1,-2 -2,-2l-59 0z"/>
    <path class="fil2" d="M93 113l7 -21 7 21 -14 0zm24 15l-1 0 -14 -44c0,-1 -1,-2 -2,-2 -1,0 -2,1 -2,2l-14 44 -1 0c-2,0 -2,1 -2,2 0,2 0,3 2,3l6 0c1,0 2,-1 2,-3 0,-1 -1,-2 -2,-2l3 -11 16 0 3 11c-1,0 -2,1 -2,2 0,2 1,3 2,3l6 0c2,0 2,-1 2,-3 0,-1 0,-2 -2,-2l0 0z"/>
   </g>
  </g>
 </g>
</svg>
