<svg xmlns="http://www.w3.org/2000/svg" width="35" height="22" viewBox="0 0 35 22">
    <path fill="#4E4E4E" fill-rule="evenodd" d="M34.068 10.782a.764.764 0 0 0-.048-.145c-.006-.018-.017-.033-.026-.05a1.067 1.067 0 0 0-.062-.11c-.015-.02-.031-.036-.047-.056a1.037 1.037 0 0 0-.073-.082c-.005-.004-.009-.01-.013-.015L22.759.241a.924.924 0 0 0-1.3.056.914.914 0 0 0 .057 1.295l9.295 8.491H1.118a.917.917 0 0 0 0 1.833h29.693l-9.295 8.492A.914.914 0 0 0 22.138 22c.222 0 .444-.08.62-.241l11.04-10.084.014-.014c.027-.026.05-.054.074-.083.016-.018.031-.035.046-.056a.978.978 0 0 0 .062-.109c.009-.016.02-.032.026-.048a.814.814 0 0 0 .048-.148l.01-.03a.905.905 0 0 0 0-.375c-.003-.01-.008-.02-.01-.03z"/>
</svg>
