<svg xmlns="http://www.w3.org/2000/svg" xmlns:xlink="http://www.w3.org/1999/xlink" width="90" height="90" viewBox="0 0 90 90">
    <defs>
        <circle id="b" cx="35" cy="35" r="35"/>
        <filter id="a" width="145.7%" height="145.7%" x="-22.9%" y="-20%" filterUnits="objectBoundingBox">
            <feOffset dy="2" in="SourceAlpha" result="shadowOffsetOuter1"/>
            <feGaussianBlur in="shadowOffsetOuter1" result="shadowBlurOuter1" stdDeviation="5"/>
            <feColorMatrix in="shadowBlurOuter1" values="0 0 0 0 0.896181568 0 0 0 0 0.906579614 0 0 0 0 0.932574728 0 0 0 1 0"/>
        </filter>
    </defs>
    <g fill="none" fill-rule="evenodd">
        <g transform="translate(10 8)">
            <use fill="#000" filter="url(#a)" xlink:href="#b"/>
            <use fill="#FFF" xlink:href="#b"/>
        </g>
        <path fill="#005A70" d="M31.579 46.947c.823 0 1.5.631 1.573 1.436l.006.143v6.316h6.283a1.579 1.579 0 0 1 .144 3.152L39.44 58h-7.862c-.825 0-1.5-.631-1.573-1.435L30 56.42v-7.895c0-.871.706-1.579 1.579-1.579zm26.842 0c.873 0 1.579.708 1.579 1.58v7.894c0 .872-.706 1.579-1.579 1.579h-7.862a1.579 1.579 0 1 1 0-3.158h6.283v-6.316c0-.871.706-1.579 1.579-1.579zM39.441 28a1.579 1.579 0 0 1 .144 3.151l-.144.007h-6.283v6.316a1.58 1.58 0 0 1-3.152.143L30 37.474v-7.895c0-.823.63-1.5 1.435-1.573L31.58 28h7.862zm18.98 0c.825 0 1.5.631 1.573 1.435l.006.144v7.895a1.579 1.579 0 0 1-3.152.143l-.006-.143v-6.316h-6.283a1.579 1.579 0 0 1-.144-3.152L50.56 28h7.862z"/>
    </g>
</svg>
