<svg xmlns="http://www.w3.org/2000/svg" width="27" height="27" viewBox="0 0 27 27">
    <g fill="#EA7600" fill-rule="evenodd">
        <path d="M24.296 17.888l-4.608 4.902a.564.564 0 0 1-.8.019l-3.291-3.196a.563.563 0 0 1 .784-.807l2.88 2.797 4.215-4.487a.562.562 0 0 1 .82.772m-4.609-5.513c-4.032 0-7.312 3.28-7.312 7.313 0 4.032 3.28 7.312 7.312 7.312S27 23.72 27 19.688c0-4.033-3.28-7.313-7.313-7.313"/>
        <path d="M10.688 14.625h-6.75a.563.563 0 0 1 0-1.125h6.75a.563.563 0 0 1 0 1.125zM9.562 18H3.939a.563.563 0 0 1 0-1.125h5.624a.563.563 0 0 1 0 1.125zm-5.624-7.875h9a.563.563 0 0 1 0 1.125h-9a.563.563 0 0 1 0-1.125zm0-3.375H9a.563.563 0 0 1 0 1.125H3.937a.563.563 0 0 1 0-1.125zm8.437-5.625L18 6.75h-5.625V1.125zM11.25 19.688c0-4.463 3.485-8.117 7.875-8.409V6.188c0-.15-.06-.293-.164-.399L13.336.164A.569.569 0 0 0 12.937 0H.563A.563.563 0 0 0 0 .563v23.625c0 .31.252.562.563.562h12.391a8.375 8.375 0 0 1-1.704-5.063z"/>
    </g>
</svg>
