<svg xmlns="http://www.w3.org/2000/svg" xmlns:xlink="http://www.w3.org/1999/xlink" width="272" height="116" viewBox="0 0 272 116">
    <defs>
        <path id="a" d="M.094.03h64.06v69.768H.093z"/>
    </defs>
    <g fill="none" fill-rule="evenodd">
        <path fill="#055A70" fill-opacity=".3" d="M269.975 115.622a31.333 31.333 0 0 0 1.051-5.466c1.162-12.07-10.007-21.81-12.168-33.748-2.793-15.41.026-33.763-9.528-46.161C241.128 19.6 227.126 8.65 213.819 6.89c-13.307-1.758-27.258 5.704-37.934 13.849-10.745 8.202-17.883 20.308-28.085 29.175-13.55 11.777-31.494 17.022-49.086 20.527-17.592 3.506-35.66 5.664-52.214 12.597-8.759 3.662-17.53 9.268-20.948 18.13-1.801 4.674-1.825 9.672-.567 14.463l244.99-.01z" style="mix-blend-mode:multiply"/>
        <path fill="#055A70" fill-opacity=".4" d="M247 115.975a52.914 52.914 0 0 0-3.512-8.922c-5.786-11.538-14.4-21.937-17.137-34.549-2.952-13.605 1.008-29.304-7.12-40.616-7.708-10.73-22.98-12.508-36.132-11.113-13.15 1.396-26.645 4.948-39.339 1.267C127.395 17.299 114.857 1.146 97.831.976c-10.414-.102-20.008 6.118-26.85 13.96-6.843 7.844-11.504 17.29-16.852 26.214-5.347 8.924-11.723 17.675-20.742 22.87-7.648 4.403-16.868 6.048-23.668 11.668-11.267 9.324-12.07 27.046-5.83 40.282l243.111.005z" style="mix-blend-mode:multiply"/>
        <g transform="translate(115.236 26.171)">
            <mask id="b" fill="#fff">
                <use xlink:href="#a"/>
            </mask>
            <path fill="#F0EFEF" d="M64.153 69.798V5.104c0-2.802-2.257-5.074-5.04-5.074H5.134C2.35.03.095 2.302.095 5.104v64.694h64.058z" mask="url(#b)"/>
        </g>
        <path fill="#FFF" d="M162.059 95.97V41.225c-.001-2.802-2.258-5.072-5.04-5.072H103.04c-2.783 0-5.04 2.27-5.04 5.072V95.97h64.058z"/>
        <g fill="#787878">
            <path d="M119.317 47.188h32.546v-.953h-32.546zM119.317 49.304h32.546v-.952h-32.546z"/>
        </g>
        <g fill="#787878">
            <path d="M119.317 58.246h32.546v-.952h-32.546zM119.317 60.365h32.546v-.953h-32.546z"/>
        </g>
        <g fill="#787878">
            <path d="M119.317 69.761h32.546v-.952h-32.546zM119.317 71.877h32.546v-.952h-32.546z"/>
        </g>
        <g fill="#787878">
            <path d="M119.317 81.276h32.546v-.952h-32.546zM119.317 83.392h32.546v-.952h-32.546z"/>
        </g>
        <path fill="#DCDBDB" d="M108.69 44.841h2.748c.6 0 1.085.489 1.085 1.092v2.766c0 .602-.486 1.09-1.085 1.09h-2.747a1.088 1.088 0 0 1-1.085-1.09v-2.766c0-.603.486-1.092 1.085-1.092M108.69 56.356h2.748c.6 0 1.085.489 1.085 1.091v2.766c0 .603-.486 1.091-1.085 1.091h-2.747a1.088 1.088 0 0 1-1.085-1.09v-2.767c0-.602.486-1.09 1.085-1.09M108.69 67.869h2.748c.6 0 1.085.489 1.085 1.091v2.766c0 .603-.486 1.091-1.085 1.091h-2.747a1.088 1.088 0 0 1-1.085-1.091V68.96c0-.602.486-1.091 1.085-1.091M108.69 79.384h2.748c.6 0 1.085.488 1.085 1.09v2.767c0 .602-.486 1.09-1.085 1.09h-2.747a1.088 1.088 0 0 1-1.085-1.09v-2.766c0-.603.486-1.091 1.085-1.091"/>
        <g fill="#787878">
            <path d="M119.317 92.248h32.546v-.952h-32.546zM119.317 94.365h32.546v-.953h-32.546z"/>
        </g>
        <path fill="#DCDBDB" d="M108.69 90.356h2.748c.6 0 1.085.489 1.085 1.091v2.766c0 .603-.486 1.091-1.085 1.091h-2.747a1.088 1.088 0 0 1-1.085-1.09v-2.767c0-.602.486-1.09 1.085-1.09"/>
        <path fill="#84BE41" d="M111.356 49.312l-2.058-2.072.777-.783 1.281 1.29 3.612-3.638.777.785zM111.356 60.373l-2.058-2.072.777-.785 1.281 1.29 3.612-3.636.777.783z"/>
        <path fill="#0FB2A6" d="M180.233 62.697l4.762-4.792a3.082 3.082 0 0 1 4.365 0l2.58 2.595a3.131 3.131 0 0 1 0 4.393l-4.772 4.793-18.517 18.638-10.031 3.103 3.086-10.087 18.527-18.643z"/>
        <path fill="#FFF" d="M167.107 83.523a.638.638 0 1 1-.447-1.085l16.59-16.695a.629.629 0 0 1 .891.041c.22.243.22.614 0 .856l-16.588 16.698a.628.628 0 0 1-.446.185"/>
        <path fill="#FFF" d="M168.65 88.96a.628.628 0 0 1-.446-.186l-1.543-1.555a.635.635 0 0 1-.185-.448v-3.248h-3.227a.63.63 0 0 1-.447-.185l-1.543-1.554a.639.639 0 0 1 .001-.898.629.629 0 0 1 .893 0l1.357 1.366h3.608c.348 0 .63.285.63.636v3.619l1.358 1.367a.638.638 0 0 1 0 .899.629.629 0 0 1-.445.187h-.01zM189.483 67.992a.627.627 0 0 1-.447-.188l-6.943-6.99a.638.638 0 0 1 .041-.897.628.628 0 0 1 .851 0l6.943 6.99a.637.637 0 0 1-.445 1.085"/>
        <path fill="#EA7600" d="M87.733 52.068c-2.972-2.157-3.368-5.294-1.189-9.41 3.269-6.176 3.566-12.058-.891-18.233-4.458-6.176-15.157-9.117-22.883-3.235-4.206 3.201-6.517 8.377-6.757 13.565-.175 3.809 1.402 7.474 3.764 10.457 7.862 9.926 20.215 7.957 27.956 6.856"/>
        <g>
            <path fill="#FFF" d="M77.556 29.667h-.723v-1c0-.184-.162-.334-.36-.334h-8.667c-.2 0-.362.15-.362.334 0 .184.162.333.362.333h8.305v.667h-8.305c-.598 0-1.084-.449-1.084-1 0-.552.486-1 1.084-1h9.75v2zm1.083 0h-.361v-2.334c0-.184-.163-.333-.361-.333H67.806C66.81 27 66 27.748 66 28.667v12.666c0 .919.81 1.667 1.806 1.667h10.833c.199 0 .361-.15.361-.333V30c0-.184-.162-.333-.361-.333z"/>
            <path fill="#EA7600" d="M71.398 36.904l1.095-3.183 1.099 3.183h-2.194zm4.01 2.371h-.276l-2.316-6.713c-.104-.304-.542-.305-.647 0l-2.309 6.713h-.268a.34.34 0 0 0-.342.339.34.34 0 0 0 .342.338h1.033a.34.34 0 0 0 .342-.338c0-.182-.13-.339-.384-.339l.582-1.693h2.66l.584 1.693c-.246 0-.377.16-.377.339a.34.34 0 0 0 .342.338h1.034a.34.34 0 0 0 .342-.338.34.34 0 0 0-.342-.339z"/>
        </g>
        <path fill="#D4EAE4" d="M198 48.347c2.808-1.004 5.314-1.004 7.52 0 3.31 1.507 10.228 3.315 15.642 2.41 5.415-.903 7.821-4.218 7.821-6.93V32.982c0-3.013.602-9.642-5.414-10.546-6.016-.904-15.943-.301-18.049.904-2.105 1.205-4.813 2.41-4.813 9.04v10.846L198 48.347z"/>
        <g fill="#005A70">
            <path d="M215.633 40.406l-.469-1.339-.6 1.716h-.167a.616.616 0 0 0-.625.608c0 .337.279.609.625.609h.888c-.34-.567-.158-1.238.348-1.594M221.375 40.783h-.178l-2.728-7.784c-.191-.546-.991-.548-1.183 0l-.803 2.296.661 1.885.733-2.098.933 2.657h-1.47l.427 1.218h1.47l.656 1.873a.609.609 0 0 0-.383.561c0 .337.28.609.625.609h1.24a.616.616 0 0 0 .625-.609.616.616 0 0 0-.625-.608"/>
            <path d="M210.925 36.522l2-5.723 2.007 5.723h-4.007zm7.325 4.26h-.504l-4.23-12.066c-.19-.546-.991-.548-1.183.001l-4.218 12.066h-.49a.616.616 0 0 0-.625.608c0 .337.28.609.625.609h1.888a.616.616 0 0 0 .625-.609c0-.327-.238-.608-.703-.608l1.064-3.044h4.86l1.067 3.044c-.45 0-.689.286-.689.608 0 .337.28.609.625.609h1.888a.617.617 0 0 0 .625-.609.617.617 0 0 0-.625-.608z"/>
        </g>
        <path fill="#F5F5F5" d="M83 79c-.56-13.333-5.792-20-15.693-20-14.1 0-14.1 7.6-12.736 10.6 1.364 3 4.094 5.6 10.007 5 5.913-.6 10.917-2.2 13.873 0C80.422 76.067 81.94 77.533 83 79z"/>
        <g fill="#007FA3">
            <path d="M60 63.19v6.286c0 .105.088.19.196.19 2.313 0 4.108.615 4.108 1.144v-6.923c-.745-.564-2.446-.887-4.108-.887a.193.193 0 0 0-.196.19M68.804 63c-1.662 0-3.364.323-4.108.887v6.923c0-.529 1.794-1.143 4.108-1.143a.193.193 0 0 0 .196-.19V63.19a.193.193 0 0 0-.196-.19"/>
        </g>
    </g>
</svg>
