<svg xmlns="http://www.w3.org/2000/svg" width="15" height="18" viewBox="0 0 15 18">
    <path fill="#C1C1C1" fill-rule="evenodd" d="M11.25 6h-7.5v-.75A3.755 3.755 0 0 1 7.5 1.5a3.755 3.755 0 0 1 3.75 3.75V6zm-3 5.77v2.48a.75.75 0 0 1-1.5 0v-2.48c-.44-.262-.75-.722-.75-1.27C6 9.673 6.673 9 7.5 9S9 9.673 9 10.5c0 .548-.31 1.008-.75 1.27zm6-5.77h-1.5v-.75A5.256 5.256 0 0 0 7.5 0a5.256 5.256 0 0 0-5.25 5.25V6H.75a.75.75 0 0 0-.75.75v10.5c0 .414.336.75.75.75h13.5a.75.75 0 0 0 .75-.75V6.75a.75.75 0 0 0-.75-.75z"/>
</svg>
