<svg xmlns="http://www.w3.org/2000/svg" width="323" height="165" viewBox="0 0 323 165">
    <g fill="none" fill-rule="evenodd">
        <path fill="#00485D" d="M315.265 162a175.904 175.904 0 0 0 3.778-12.127c3.957-14.578 6.111-31.307.78-46.302-7.41-20.837-26.666-31.298-44.1-34.61-17.434-3.311-35.309-1.889-52.223-9.446-18.186-8.138-33.14-25.686-49.303-39.686-16.164-14-36.356-24.994-53.484-17.29-11.93 5.363-19.931 18.782-26.298 32.432-6.367 13.65-11.886 28.409-21.194 38.897-10.376 11.683-24.398 16.89-37.5 23.408-13.104 6.518-26.354 15.483-32.435 31.464C-.558 138.84-.85 150.55 1.478 162h313.787z"/>
        <path fill="#00394D" d="M62.373 165H301.67c3.435-8.93-.212-19.197-6.04-27.282-6.242-8.667-14.816-15.892-20.93-24.632-6.95-9.934-10.436-21.398-15.326-32.248-4.89-10.852-11.766-21.69-23.09-27.714-12.825-6.825-29.315-6.217-43.41-1.773-14.094 4.444-26.436 12.288-38.859 19.675-12.423 7.387-25.478 14.526-40.131 17.245-10.299 1.914-20.969 1.555-31.374 2.945-10.404 1.391-21.172 4.985-27.145 12.64-5.615 7.195-5.948 16.598-4.886 25.284 1.54 12.448 5.612 24.637 11.894 35.86"/>
        <path fill="#F0EFEF" d="M261.059 152.768V88.073c0-2.801-2.257-5.073-5.04-5.073H202.04c-2.784 0-5.041 2.272-5.041 5.073v64.695h64.059z"/>
        <path fill="#898989" d="M265.903 112.495l4.762-4.791a3.082 3.082 0 0 1 4.365 0l2.58 2.594a3.131 3.131 0 0 1 0 4.394l-4.773 4.793-18.517 18.638-10.03 3.102 3.086-10.086 18.527-18.644z"/>
        <path fill="#FFF" d="M252.777 133.321a.638.638 0 1 1-.447-1.085l16.589-16.695a.629.629 0 0 1 .892.041c.22.243.22.614 0 .857l-16.589 16.697a.627.627 0 0 1-.445.185"/>
        <path fill="#FFF" d="M254.32 138.758a.627.627 0 0 1-.447-.186l-1.543-1.555a.635.635 0 0 1-.184-.448v-3.247h-3.227a.63.63 0 0 1-.447-.186l-1.543-1.553a.639.639 0 0 1 0-.9.629.629 0 0 1 .894.002l1.357 1.366h3.607c.349 0 .631.284.631.635v3.62l1.357 1.367a.638.638 0 0 1 .001.898.629.629 0 0 1-.446.187h-.01zM275.152 117.79a.627.627 0 0 1-.447-.187l-6.942-6.99a.638.638 0 0 1 .04-.898.628.628 0 0 1 .851 0l6.943 6.99a.637.637 0 0 1-.445 1.085"/>
        <path fill="#FFB81C" d="M150 137.347c2.808-1.004 5.314-1.004 7.52 0 3.31 1.507 10.228 3.315 15.642 2.41 5.415-.903 7.821-4.218 7.821-6.93v-10.846c0-3.013.602-9.642-5.414-10.546-6.016-.904-15.943-.301-18.049.904-2.105 1.205-4.813 2.41-4.813 9.04v10.846L150 137.347z"/>
        <path fill="#003057" d="M167 123.664L162.336 119 161 120.336l4.664 4.664-4.664 4.664 1.336 1.336 4.664-4.664 4.664 4.664 1.336-1.336-4.663-4.664 4.663-4.664-1.336-1.336z"/>
        <path fill="#12B2A6" d="M162.383 76.477a4.5 4.5 0 0 0-4.434 1.815 11.053 11.053 0 0 1 5.393 6.761 4.496 4.496 0 0 0 2.691-3.363 4.505 4.505 0 0 0-3.65-5.213M151.61 77.038a4.502 4.502 0 0 0-3.507-3.079 4.505 4.505 0 0 0-5.213 3.65 4.492 4.492 0 0 0 1.063 3.758 11.048 11.048 0 0 1 7.657-4.33"/>
        <path fill="#D4EAE4" d="M153.638 88.643a.5.5 0 0 1-.58.406l-3.939-.695a.5.5 0 0 1 .174-.985l3.447.608.955-5.416a.5.5 0 0 1 .984.173l-1.041 5.91zm.838-10.514c-5.43-.957-10.627 2.681-11.585 8.112-.957 5.43 2.682 10.627 8.112 11.584 5.43.958 10.627-2.681 11.585-8.111.957-5.43-2.682-10.627-8.112-11.585z"/>
        <path fill="#12B2A6" d="M157.96 97.645c-.296.16-.599.31-.91.442l.524.749a.5.5 0 0 0 .82-.574l-.433-.617zM144.527 95.276l-.618.432a.5.5 0 0 0 .574.82l.748-.525c-.247-.231-.48-.475-.704-.727"/>
        <path fill="#EA7600" d="M230.08 119.588c-4.503-3.265-5.103-8.015-1.801-14.25 4.953-9.351 5.403-18.258-1.35-27.61-6.755-9.351-22.965-13.804-34.672-4.898-6.372 4.848-9.874 12.685-10.237 20.543-.266 5.766 2.124 11.316 5.703 15.833 11.913 15.032 30.629 12.05 42.357 10.382"/>
        <path fill="#FFF" d="M215.345 86L203.02 98.577l-4.366-4.456-2.655 2.71 7.021 7.169L218 88.71z"/>
    </g>
</svg>
