<svg xmlns="http://www.w3.org/2000/svg" width="60" height="60" viewBox="0 0 60 60">
    <g fill="none" fill-rule="evenodd">
        <circle cx="30" cy="30" r="30" fill="#B0D6CB"/>
        <g fill="#005A70">
            <path d="M28.501 28.41v.826c0 .293-.23.528-.515.528a.521.521 0 0 1-.516-.528V27.92c0-.291.231-.528.516-.528 1.42 0 2.577-1.167 2.577-2.604 0-1.436-1.157-2.604-2.577-2.604-1.397 0-2.578 1.238-2.578 2.703 0 .291-.23.527-.515.527a.522.522 0 0 1-.516-.527c0-2.073 1.619-3.758 3.609-3.758s3.608 1.64 3.608 3.659c0 1.84-1.346 3.368-3.093 3.622m-.515 4.257c-.57 0-1.031-.472-1.031-1.055 0-.582.462-1.055 1.03-1.055.57 0 1.032.473 1.032 1.055 0 .583-.462 1.055-1.031 1.055m-.516-16.352c-6.821 0-12.37 4.678-12.37 10.426 0 2.716 1.212 5.26 3.427 7.208l-2.485 5.075c-.22.446.242.925.679.713l6.636-3.16c1.318.391 2.7.59 4.113.59 6.822 0 12.371-4.677 12.371-10.426 0-5.748-5.55-10.426-12.37-10.426"/>
            <path d="M40.373 30.731C43.07 31.815 45 34.245 45 36.99c0 1.707-.694 3.206-1.935 4.354.263.542 1.08 2.212 1.365 2.795.211.433-.212.9-.641.73l-3.931-1.51c-4.436 1.907-9.415-.932-10.212-5.18 5.106-.398 9.323-3.42 10.727-7.447z"/>
        </g>
    </g>
</svg>
