<svg xmlns="http://www.w3.org/2000/svg" xmlns:xlink="http://www.w3.org/1999/xlink" width="229" height="113" viewBox="0 0 229 113">
    <defs>
        <path id="a" d="M3.917 6.998C-.707 13.675-.4 20.035 2.993 26.712c2.26 4.452 1.849 7.843-1.234 10.174 8.03 1.191 20.844 3.32 29-7.412 2.452-3.226 4.087-7.189 3.905-11.306-.248-5.61-2.646-11.206-7.01-14.668C24.62 1.09 21.142.051 17.74.051 12.161.051 6.79 2.85 3.917 6.998z"/>
        <path id="c" d="M4.944 2.199C2.062 4.345.478 7.815.314 11.294c-.12 2.553.96 5.01 2.58 7.01 5.388 6.655 13.853 5.334 19.157 4.596-2.036-1.446-2.308-3.548-.814-6.308 2.24-4.141 2.443-8.084-.611-12.224C18.728 1.795 15.179.06 11.494.06 9.248.06 6.95.706 4.944 2.2z"/>
        <path id="e" d="M4.944 2.199C2.062 4.345.478 7.815.314 11.294c-.12 2.553.96 5.01 2.58 7.01 5.388 6.655 13.853 5.334 19.157 4.596-2.036-1.446-2.308-3.548-.814-6.308 2.24-4.141 2.443-8.084-.611-12.224C18.728 1.795 15.179.06 11.494.06c-2.246 0-4.544.645-6.55 2.138z"/>
    </defs>
    <g fill="none" fill-rule="evenodd">
        <path fill="#00485D" d="M144.24.001l.218-.001c8.939 0 17.164 5.375 23.045 12.14 5.928 6.82 9.967 15.034 14.6 22.795 4.633 7.76 10.156 15.37 17.971 19.887 6.626 3.828 14.614 5.26 20.506 10.146 9.761 8.107 10.458 23.519 5.05 35.028L15 100a46.102 46.102 0 0 1 3.042-7.757C23.056 82.209 30.518 73.166 32.89 62.2c2.557-11.832-.873-25.483 6.168-35.32 6.679-9.33 19.91-10.876 31.306-9.663 11.394 1.214 23.085 4.303 34.082 1.102C118.625 14.194 129.488.148 144.24.001z"/>
        <path fill="#003A4D" d="M10.905 113h210.923c3.027-7.862-.187-16.9-5.323-24.017-5.503-7.63-13.06-13.991-18.449-21.685-6.126-8.745-9.199-18.837-13.509-28.39-4.31-9.552-10.371-19.094-20.353-24.397-11.303-6.009-25.838-5.474-38.262-1.561-12.423 3.912-23.301 10.818-34.25 17.321-10.95 6.503-22.458 12.787-35.373 15.182-9.078 1.684-18.483 1.368-27.654 2.592-9.17 1.225-18.661 4.388-23.927 11.127C-.22 65.507-.514 73.785.422 81.432 1.78 92.39 5.369 103.12 10.905 113"/>
        <path fill="#E2E2E2" d="M105.524 96.936l-32.971 2.927a1.473 1.473 0 0 1-1.59-1.353l-3.748-43.49a1.482 1.482 0 0 1 1.333-1.612l32.97-2.927a1.473 1.473 0 0 1 1.59 1.353l3.75 43.49c.07.818-.527 1.54-1.334 1.612M141.433 93.776l-32.971 2.928a1.473 1.473 0 0 1-1.59-1.354l-3.749-43.489a1.483 1.483 0 0 1 1.334-1.613l32.97-2.926a1.473 1.473 0 0 1 1.59 1.353l3.749 43.489c.07.819-.526 1.54-1.333 1.612"/>
        <path stroke="#CCC" stroke-linecap="round" stroke-linejoin="round" stroke-width=".5" d="M74.52 95.295l27.35-2.428M110.923 92.063l27.35-2.428"/>
        <path fill="#FFF" d="M103.427 47.321c3.01-2.036 15.978-10.126 30.701-9.19.668.042 1.21.565 1.268 1.24l3.957 45.89a1.352 1.352 0 0 1-1.16 1.468c-4.767.624-21.677 3.199-29.195 9.16-.834.661-2.058.11-2.15-.96-1.812-21.012-3.638-42.082-4.01-46.363-.042-.495.182-.97.589-1.245M102.04 47.535c-3.313-1.474-17.468-7.157-31.807-3.641-.65.16-1.095.77-1.037 1.446l3.957 45.89a1.343 1.343 0 0 0 1.393 1.24c4.8-.226 21.895-.67 30.319 3.877.934.504 2.045-.254 1.952-1.324-1.81-21.013-3.618-42.084-3.984-46.366a1.35 1.35 0 0 0-.793-1.122"/>
        <path stroke="#E6E6E6" stroke-linecap="round" stroke-linejoin="round" stroke-width=".5" d="M73.731 48.437s17.33-2.614 25.275 4.774"/>
        <path fill="#FFF" d="M74.147 44.259s17.33-2.615 25.274 4.773"/>
        <path stroke="#E6E6E6" stroke-linecap="round" stroke-linejoin="round" stroke-width=".5" d="M74.147 53.259s17.33-2.615 25.274 4.773"/>
        <path fill="#FFF" d="M74.563 49.08s17.33-2.615 25.274 4.773"/>
        <path stroke="#E6E6E6" stroke-linecap="round" stroke-linejoin="round" stroke-width=".5" d="M74.563 58.08s17.33-2.615 25.274 4.773"/>
        <path fill="#FFF" d="M74.978 53.901s17.33-2.615 25.275 4.774"/>
        <path stroke="#E6E6E6" stroke-linecap="round" stroke-linejoin="round" stroke-width=".5" d="M74.978 62.901s17.33-2.615 25.275 4.774"/>
        <path fill="#FFF" d="M75.477 58.715s17.33-2.614 25.274 4.774"/>
        <path stroke="#E6E6E6" stroke-linecap="round" stroke-linejoin="round" stroke-width=".5" d="M75.477 67.715s17.33-2.614 25.274 4.774"/>
        <path fill="#FFF" d="M75.892 63.536s17.33-2.614 25.275 4.774"/>
        <path stroke="#E6E6E6" stroke-linecap="round" stroke-linejoin="round" stroke-width=".5" d="M75.892 72.536s17.33-2.614 25.275 4.774"/>
        <path fill="#FFF" d="M76.308 68.357s17.33-2.614 25.274 4.774"/>
        <path stroke="#E6E6E6" stroke-linecap="round" stroke-linejoin="round" stroke-width=".5" d="M76.308 77.357s17.33-2.614 25.274 4.774"/>
        <path fill="#FFF" d="M76.723 73.179s17.33-2.615 25.275 4.774"/>
        <path stroke="#E6E6E6" stroke-linecap="round" stroke-linejoin="round" stroke-width=".5" d="M76.723 82.179s17.33-2.615 25.275 4.774"/>
        <path fill="#FFF" d="M77.139 78s17.33-2.614 25.275 4.774"/>
        <path stroke="#E6E6E6" stroke-linecap="round" stroke-linejoin="round" stroke-width=".5" d="M77.139 87s17.33-2.614 25.275 4.774M130.774 43.373s-17.515.48-24.074 9.155"/>
        <g>
            <path fill="#FFF" d="M131.19 39.195s-17.515.478-24.074 9.154"/>
            <path stroke="#E6E6E6" stroke-linecap="round" stroke-linejoin="round" stroke-width=".5" d="M131.19 48.195s-17.515.478-24.074 9.154"/>
        </g>
        <g>
            <path fill="#FFF" d="M131.605 44.016s-17.514.479-24.073 9.154"/>
            <path stroke="#E6E6E6" stroke-linecap="round" stroke-linejoin="round" stroke-width=".5" d="M131.605 53.016s-17.514.479-24.073 9.154"/>
        </g>
        <g>
            <path fill="#FFF" d="M132.021 48.837s-17.515.48-24.074 9.154"/>
            <path stroke="#E6E6E6" stroke-linecap="round" stroke-linejoin="round" stroke-width=".5" d="M132.021 57.837s-17.515.48-24.074 9.154"/>
        </g>
        <g>
            <path fill="#FFF" d="M132.354 53.665s-17.514.48-24.073 9.155"/>
            <path stroke="#E6E6E6" stroke-linecap="round" stroke-linejoin="round" stroke-width=".5" d="M132.354 62.665s-17.514.48-24.073 9.155"/>
        </g>
        <g>
            <path fill="#FFF" d="M132.77 58.487s-17.515.479-24.074 9.154"/>
            <path stroke="#E6E6E6" stroke-linecap="round" stroke-linejoin="round" stroke-width=".5" d="M132.77 67.487s-17.515.479-24.074 9.154"/>
        </g>
        <g>
            <path fill="#FFF" d="M133.186 63.308s-17.515.479-24.074 9.154"/>
            <path stroke="#E6E6E6" stroke-linecap="round" stroke-linejoin="round" stroke-width=".5" d="M133.186 72.308s-17.515.479-24.074 9.154"/>
        </g>
        <g fill="#FFF">
            <path d="M133.601 68.13s-17.514.478-24.073 9.153"/>
        </g>
        <g>
            <path fill="#FFF" d="M134.017 72.95s-17.515.48-24.074 9.155"/>
            <path stroke="#E6E6E6" stroke-linecap="round" stroke-linejoin="round" stroke-width=".5" d="M134.017 81.95s-17.515.48-24.074 9.155"/>
        </g>
        <g transform="translate(134 21)">
            <mask id="b" fill="#fff">
                <use xlink:href="#a"/>
            </mask>
            <path fill="#EA7600" d="M-4.743 43.301h44.608V-5.355H-4.743z" mask="url(#b)"/>
        </g>
        <path fill="#0FB2A6" d="M65.117 83.387c-2.071-1.417-2.348-3.478-.829-6.183 2.278-4.058 2.486-7.924-.621-11.982-3.107-4.059-10.563-5.991-15.949-2.126-2.93 2.104-4.542 5.505-4.709 8.915-.122 2.502.978 4.91 2.624 6.871 5.48 6.523 14.09 5.23 19.484 4.505"/>
        <g transform="translate(43 61)">
            <mask id="d" fill="#fff">
                <use xlink:href="#c"/>
            </mask>
            <path fill="#0FB2A6" d="M-124.422 240.738h589.367v-441.13h-589.367z" mask="url(#d)"/>
        </g>
        <g transform="translate(43 61)">
            <mask id="f" fill="#fff">
                <use xlink:href="#e"/>
            </mask>
            <path fill="#0FB2A6" d="M-3.122 27.651h29.468V-2.517H-3.122z" mask="url(#f)"/>
        </g>
        <g>
            <path fill="#002031" d="M59.846 71.308a.896.896 0 0 0-.824-.5H56.38c.19-.152.373-.314.547-.484.759-.765.982-1.677.714-2.71a1.001 1.001 0 0 0-.209-.418.293.293 0 0 0-.412-.061.87.87 0 0 0-.125.099c-.122.12-.232.25-.33.388-.136.179-.26.365-.402.54l-.057.078c-.041.056-.087.112-.133.17a7.03 7.03 0 0 1-.47.537c-.19.212-.395.41-.614.592a4.71 4.71 0 0 1-.328.284c-.227.2-.48.369-.751.504a2.35 2.35 0 0 1-.429.197l-.07.032c-.15.081-.31.143-.475.186l-.024.012c-.025.012-.062.016-.06.057v4.836a.453.453 0 0 0 .398.486c.393.066.795.13 1.193.197.837.134 1.674.262 2.51.404.902.16 1.78-.384 2.044-1.264.232-.774.46-1.549.687-2.325.06-.206.13-.41.176-.62a.01.01 0 0 0 0-.012c.072-.193.13-.39.174-.591a.854.854 0 0 0-.088-.614M51.475 70.56h-1.336v5.803h1.336a.616.616 0 0 0 .613-.615v-4.573a.616.616 0 0 0-.613-.616"/>
            <path fill="#003E4C" d="M75.75 30.789a.542.542 0 0 1-.16.382l-1.92 1.905a.339.339 0 0 1-.479-.003.341.341 0 0 1 .003-.481l1.878-1.865.011-2.056a.34.34 0 0 1 .34-.338h.001a.34.34 0 0 1 .337.342l-.011 2.114zm-.518-4.04h-.023c-2.206 0-4.008 1.796-4.02 4.014-.012 2.226 1.781 4.047 3.998 4.059h.023c2.207 0 4.008-1.796 4.02-4.014.012-2.225-1.781-4.046-3.998-4.059z"/>
            <path fill="#FFB81C" d="M75 37h-.034A6.006 6.006 0 0 1 69 30.966 6.006 6.006 0 0 1 75 25h.034A6.007 6.007 0 0 1 81 31.034 6.006 6.006 0 0 1 75 37m.039-13h-.04A7.007 7.007 0 0 0 68 30.96c-.022 3.86 3.101 7.018 6.96 7.04H75c3.841 0 6.978-3.115 7-6.96.022-3.86-3.101-7.018-6.961-7.04"/>
            <path fill="#FFB81C" d="M75.704 26.786H75.7c-.28 0-.507.25-.508.559l-.017 3.398-2.816 3.08c-.2.219-.2.575-.004.795.1.111.231.168.362.168a.485.485 0 0 0 .357-.163l2.876-3.148a.94.94 0 0 0 .24-.63l.019-3.494c.001-.31-.225-.564-.506-.565"/>
            <path fill="#FFF" d="M154.856 48.017l.47 1.928c.044.2-.16.371-.345.286l-3.32-1.475c-1.035-.493-1.015-.477-.345-1.371l2.25-3.112a.228.228 0 0 1 .404.08l.42 1.722a7.816 7.816 0 0 0 3.72-2.229 7.873 7.873 0 0 0 2.13-5.38c0-3.554-2.33-6.592-5.61-7.56-.06-.01-.093-.023-.174-.05-.53-.201-.8-.789-.6-1.316a1.015 1.015 0 0 1 1.31-.602c4.025 1.17 6.925 4.804 7.095 9.12.19 4.709-3.03 8.745-7.405 9.96M148.413 29.236l-.47-1.927c-.045-.201.16-.372.345-.286l3.32 1.475c1.035.492 1.015.477.345 1.37l-2.25 3.113a.228.228 0 0 1-.405-.08l-.42-1.722a7.82 7.82 0 0 0-3.72 2.228 7.873 7.873 0 0 0-2.13 5.38c0 3.555 2.33 6.592 5.61 7.56.06.01.093.024.175.05.53.202.8.79.6 1.316a1.015 1.015 0 0 1-1.31.603c-4.025-1.17-6.925-4.805-7.095-9.121-.19-4.708 3.03-8.744 7.405-9.959"/>
        </g>
    </g>
</svg>
