<svg xmlns="http://www.w3.org/2000/svg" width="60" height="60" viewBox="0 0 60 60">
    <g fill="none" fill-rule="evenodd">
        <circle cx="30" cy="30" r="30" fill="#FFF0D1"/>
        <g fill="#FFB81C">
            <path d="M45.456 39.733c-1.421 4.016-6.616 5.059-9.677 1.859v.708a.624.624 0 1 1-1.25 0v-2.777c0-.345.28-.625.625-.625h2.777a.624.624 0 1 1 0 1.25h-1.722c1.97 2.995 6.792 2.769 8.07-.834a.624.624 0 1 1 1.177.419m-11.162-3.716c1.418-4.01 6.608-5.063 9.678-1.855v-.71c0-.348.279-.625.625-.625.345 0 .625.277.625.625v2.775c0 .345-.28.625-.625.625H41.82a.625.625 0 0 1 0-1.25h1.723c-1.973-2.994-6.792-2.77-8.071.832a.625.625 0 0 1-1.178-.417m5.582-6.267c-4.48 0-8.125 3.644-8.125 8.125 0 4.48 3.645 8.125 8.125 8.125S48 42.355 48 37.875s-3.645-8.125-8.125-8.125"/>
            <path d="M29.875 32.25h-7.5a.625.625 0 0 1 0-1.25h7.5a.625.625 0 0 1 0 1.25zM28.625 36h-6.25a.625.625 0 0 1 0-1.25h6.25a.625.625 0 0 1 0 1.25zm-6.25-8.75h10a.625.625 0 0 1 0 1.25h-10a.625.625 0 0 1 0-1.25zm0-3.75H28a.625.625 0 0 1 0 1.25h-5.625a.625.625 0 0 1 0-1.25zm9.375-6.25L38 23.5h-6.25v-6.25zM30.5 37.875c0-4.959 3.872-9.019 8.75-9.342v-5.658a.63.63 0 0 0-.183-.442l-6.25-6.25a.632.632 0 0 0-.442-.183h-13.75a.625.625 0 0 0-.625.625v26.25c0 .345.28.625.625.625h13.769a9.305 9.305 0 0 1-1.894-5.625z"/>
        </g>
    </g>
</svg>
