<?xml version="1.0" standalone="no"?>
<!DOCTYPE svg PUBLIC "-//W3C//DTD SVG 1.1//EN" "http://www.w3.org/Graphics/SVG/1.1/DTD/svg11.dtd" >
<svg xmlns="http://www.w3.org/2000/svg">
<metadata></metadata>
<defs>
<font id="arial_mt_stdlight_italic" horiz-adv-x="1138" >
<font-face units-per-em="2048" ascent="1487" descent="-561" />
<missing-glyph horiz-adv-x="569" />
<glyph unicode="&#xfb01;" horiz-adv-x="1024" d="M123 0l211 971h-170l18 90h168l37 162q10 43 19.5 73.5t31 70.5t49.5 64.5t74 42t105 17.5q90 0 182 -25l-23 -104q-105 18 -153 18q-63 0 -100 -32t-58 -119l-39 -168h225l-18 -90h-223l-211 -971h-125zM666 0l225 1061h125l-225 -1061h-125zM938 1274l39 192h125 l-39 -192h-125z" />
<glyph unicode="&#xfb02;" horiz-adv-x="1024" d="M123 0l211 971h-170l18 90h168l37 162q10 43 19.5 73.5t31 70.5t49.5 64.5t74 42t105 17.5q90 0 182 -25l-23 -104q-105 18 -153 18q-63 0 -100 -32t-58 -119l-39 -168h225l-18 -90h-223l-211 -971h-125zM666 0l311 1466h125l-311 -1466h-125z" />
<glyph horiz-adv-x="2048" />
<glyph horiz-adv-x="2048" />
<glyph unicode="&#xd;" horiz-adv-x="2048" />
<glyph unicode=" "  horiz-adv-x="569" />
<glyph unicode="&#x09;" horiz-adv-x="569" />
<glyph unicode="&#xa0;" horiz-adv-x="569" />
<glyph unicode="!" horiz-adv-x="681" d="M164 0l45 195h172l-41 -195h-176zM291 369l112 761l76 336h156l-66 -336l-196 -761h-82z" />
<glyph unicode="&#x22;" horiz-adv-x="569" d="M231 958l27 269l51 239h148l-51 -239l-82 -269h-93zM504 958l26 269l52 239h147l-51 -239l-82 -269h-92z" />
<glyph unicode="#" d="M137 430v92h189l82 398h-271v92h291l86 418h94l-88 -418h387l90 418h97l-88 -418h165v-92h-184l-80 -398h264v-92h-288l-90 -416h-88l88 416h-394l-90 -416h-90l90 416h-172zM418 522h391l82 398h-389z" />
<glyph unicode="$" d="M100 395l125 8q6 -41 11 -66.5t22.5 -69t43 -73t72 -59t109.5 -45.5l129 631q-31 14 -51 23t-58 30.5t-63.5 41t-57.5 51t-51 64.5t-32.5 77.5t-13.5 93.5t14.5 99.5t51 103.5t90 93t139.5 63.5t192 19.5l19 80h75l-18 -91q51 -12 87.5 -25t77 -37.5t67.5 -57.5t49.5 -85 t33.5 -120h-125q-4 20 -6.5 30t-10.5 34.5t-16.5 40t-25 37t-36.5 36t-50 28t-66 19.5l-120 -561q37 -14 60.5 -23.5t65.5 -30.5t70.5 -40.5t63 -51t55 -65t35 -79.5t14.5 -97q0 -103 -54 -205.5t-153 -165.5q-46 -29 -95.5 -47t-89.5 -22.5t-80.5 -7t-68.5 0.5l-32 -168 h-78l39 179q-49 9 -92.5 26t-89.5 49t-81 75.5t-61 110t-35 148.5zM403 1116q0 -48 16 -89.5t36.5 -67.5t57.5 -52.5t60 -38.5t62 -30l117 542q-162 9 -258 -71q-91 -76 -91 -193zM553 80q210 -10 319 115q41 48 60.5 107t19.5 108q0 59 -19 104t-59.5 77.5t-82 53.5 t-107.5 47z" />
<glyph unicode="%" horiz-adv-x="1820" d="M160 1030q0 114 41.5 218t122.5 173.5t182 69.5q65 0 114 -24.5t74 -58.5t40.5 -79.5t19.5 -77.5t4 -63q0 -120 -41 -226.5t-120 -174.5t-179 -68q-48 0 -91.5 16.5t-82 51t-61.5 97t-23 146.5zM262 1008q0 -63 17.5 -107t45 -63.5t50.5 -27t45 -7.5q99 0 167 112t68 299 q0 86 -39.5 138.5t-113.5 52.5q-69 0 -125 -59t-85.5 -149t-29.5 -189zM324 -57l1077 1548h119l-1080 -1548h-116zM1085 254q0 116 43 221t124 172.5t180 67.5q65 0 113.5 -24.5t74 -58.5t41 -79.5t19 -77.5t3.5 -63q0 -120 -41 -226.5t-120 -174.5t-179 -68 q-48 0 -91.5 16.5t-82 51t-61.5 97t-23 146.5zM1188 231q0 -51 12 -90t29.5 -60t41 -34t41 -16.5t34.5 -3.5q99 0 167 112t68 299q0 86 -40 138.5t-114 52.5q-103 0 -171 -121t-68 -277z" />
<glyph unicode="&#x26;" horiz-adv-x="1366" d="M160 381q0 61 17.5 117t42.5 97.5t66.5 81t75 64.5t82.5 52.5t74.5 39.5t65.5 29q-43 80 -65.5 147t-22.5 148q0 82 31 148t81 105.5t109.5 60t120.5 20.5q143 0 228 -79t85 -187q0 -228 -399 -400q95 -197 301 -467q51 65 75.5 104.5t67.5 121.5l111 -60 q-59 -131 -179 -266q98 -121 187 -195l-107 -88q-92 82 -174 187q-58 -45 -96 -71t-94.5 -57t-117 -45t-128.5 -14q-105 0 -190.5 34.5t-138.5 92.5t-81 129.5t-28 149.5zM291 397q0 -128 88 -219.5t231 -91.5q83 0 161 38.5t187 133.5q-87 109 -179.5 256t-145.5 252 q-53 -24 -96 -47.5t-91 -58.5t-80.5 -72t-53.5 -87t-21 -104zM627 1169q0 -108 75 -247q52 23 101 50.5t103 67t87 88t33 97.5q0 26 -9 50.5t-29 49.5t-59.5 40t-94.5 15q-52 0 -91.5 -17.5t-60.5 -42t-34.5 -55.5t-17 -54t-3.5 -42z" />
<glyph unicode="'" horiz-adv-x="454" d="M309 958l27 269l51 239h148l-52 -239l-82 -269h-92z" />
<glyph unicode="(" horiz-adv-x="681" d="M201 272q0 137 28.5 287t88.5 312.5t167 325t250 294.5h90q-123 -137 -217 -288t-146.5 -278.5t-85 -259t-42.5 -223t-10 -176.5q0 -131 30 -331t95 -365h-95q-153 381 -153 702z" />
<glyph unicode=")" horiz-adv-x="681" d="M-84 -430q124 137 217.5 288t146 278.5t85.5 258.5t43 223t10 177q0 130 -30 330.5t-95 365.5h92q156 -372 156 -705q0 -108 -17 -223.5t-57.5 -247.5t-100.5 -257.5t-152.5 -253.5t-207.5 -234h-90z" />
<glyph unicode="*" horiz-adv-x="796" d="M250 1219l37 104l123 -49l122 -55l-12 135l-10 137h113l-7 -137l-10 -135l121 55l123 49l35 -104l-127 -35l-127 -31l174 -205l-88 -65l-76 110l-74 117l-137 -227l-90 65l80 103l90 102l-133 31z" />
<glyph unicode="+" horiz-adv-x="1351" d="M211 674v94h489v489h95v-489h489v-94h-489v-490h-95v490h-489z" />
<glyph unicode="," horiz-adv-x="569" d="M156 -195q72 34 94.5 68.5t40.5 126.5h-90l43 195h174l-41 -195q-12 -57 -30.5 -101t-34 -69.5t-41.5 -46.5t-40.5 -29t-42.5 -22z" />
<glyph unicode="-" horiz-adv-x="681" d="M106 473l23 113h547l-25 -113h-545z" />
<glyph unicode="." horiz-adv-x="569" d="M201 0l43 195h174l-41 -195h-176z" />
<glyph unicode="/" horiz-adv-x="569" d="M90 -37l475 1503h94l-473 -1503h-96z" />
<glyph unicode="0" d="M162 463q0 63 8.5 142.5t30 177.5t53 193t81 185.5t111 159t147 110.5t183.5 42q172 0 273.5 -135t101.5 -369q0 -52 -8 -124t-28 -168t-50 -190.5t-79.5 -188t-111 -164.5t-149.5 -115t-190 -44q-78 0 -141.5 28t-106 75.5t-71 111t-41.5 132t-13 141.5zM287 436 q0 -167 70 -265.5t184 -98.5q70 0 133 34.5t111 93t88.5 137t68 165t47 177.5t28.5 174.5t9 156.5q0 174 -72.5 270t-181.5 96q-96 0 -179 -65.5t-137.5 -168t-94 -230t-57 -249t-17.5 -227.5z" />
<glyph unicode="1" d="M317 967l25 106q81 33 150.5 68.5t117.5 65.5t90.5 65t67 59t49 56t33.5 46.5t24 39.5h64l-315 -1473h-125l252 1176l-5 4q-76 -64 -161 -109t-267 -104z" />
<glyph unicode="2" d="M84 0q35 176 130 295.5t349 312.5q161 121 244 198t122.5 146t39.5 146q0 118 -84 195t-213 77q-51 0 -94.5 -14t-73.5 -33t-56 -51t-40.5 -56t-28 -60.5t-18 -52t-11.5 -42.5l-119 24q19 95 60.5 167.5t88.5 113t105.5 66t105 33.5t93.5 8q93 0 173 -33t132 -87 t81.5 -121.5t29.5 -137.5q0 -42 -10 -81.5t-25.5 -73.5t-47 -73.5t-60 -70t-81 -76t-93 -79t-111.5 -89.5q-265 -201 -359 -313q-39 -46 -65 -123h719l-25 -115h-858z" />
<glyph unicode="3" d="M100 340l125 18q54 -280 314 -280q85 0 156.5 34.5t116.5 91t70 124.5t25 137q0 64 -24 112.5t-65 76.5t-89 41.5t-102 13.5q-50 0 -70 -4l21 102q64 -8 108 -8q132 0 214.5 89t82.5 216q0 117 -73 194.5t-189 77.5q-47 0 -88.5 -12.5t-70.5 -29.5t-56 -46.5t-42 -50.5 t-31.5 -56.5t-22 -49t-15.5 -41.5l-116 26q9 25 12.5 34t18 42.5t26 52.5t34.5 52t45 54t56 46.5t69.5 40t83 25t99.5 10.5q168 0 276.5 -103t108.5 -262q0 -42 -10 -85.5t-36 -99t-84 -104t-142 -76.5q26 -11 43 -20t49.5 -34.5t52 -55t35.5 -80t16 -111.5 q0 -87 -35.5 -170t-99.5 -149.5t-163 -107t-216 -40.5q-48 0 -95 9t-101.5 34t-97.5 64t-77 105.5t-47 152.5z" />
<glyph unicode="4" d="M119 395l31 142l825 936h96l-205 -971h205l-22 -107h-203l-86 -395h-125l84 395h-600zM240 502h499l111 499l68 265l-5 4z" />
<glyph unicode="5" d="M131 383l121 12q3 -29 5.5 -45t12 -54.5t21 -63.5t34.5 -58.5t51.5 -53t72.5 -34t98 -14.5q74 0 140 31.5t113 83.5t81.5 117t51.5 133t17 130q0 142 -82.5 222.5t-197.5 80.5q-170 0 -328 -165l-109 10l211 731h701l-27 -107h-592l-145 -493l4 -4q138 131 313 131 q71 0 136 -25t119.5 -74t87 -131.5t32.5 -187.5q0 -152 -67.5 -284t-192 -214t-278.5 -82q-48 0 -95.5 8.5t-103.5 36t-98 70t-72.5 118.5t-34.5 175z" />
<glyph unicode="6" d="M190 502q0 69 9.5 150t32 175.5t55.5 184.5t84 174.5t113 147.5t147 101t182 38q32 0 66 -5.5t74.5 -18.5t78.5 -40t64 -66q53 -78 69 -196l-127 -17q-4 31 -9 53.5t-21 61t-38.5 63t-65 43.5t-97.5 19q-309 0 -448 -563q-3 -9 -3 -10l4 -4q59 64 123 102q111 66 232 66 q168 0 273.5 -117.5t105.5 -304.5q0 -147 -66 -277.5t-179.5 -208.5t-244.5 -78q-25 0 -51.5 3t-69.5 15.5t-80.5 33.5t-77.5 61.5t-69 94t-47.5 136t-18.5 183.5zM328 424q0 -161 78 -256.5t196 -95.5q77 0 147 42t117 108t75 147.5t28 160.5q0 148 -74.5 236t-198.5 88 q-72 0 -138 -29t-117.5 -82.5t-82 -136t-30.5 -182.5z" />
<glyph unicode="7" d="M303 1335l23 111h899l-29 -111q-160 -158 -281.5 -323t-206 -336.5t-140 -327.5t-105.5 -348h-139q54 208 123.5 389.5t138.5 314t155 254.5t159.5 205t164.5 172h-762z" />
<glyph unicode="8" d="M154 365q0 63 14.5 122t47.5 120.5t96.5 113t152.5 82.5q-25 14 -38.5 22.5t-43 34t-46 51t-30.5 69t-14 93.5q0 107 58 199t158.5 146.5t219.5 54.5q89 0 164 -30t124.5 -80t77 -113.5t27.5 -131.5q0 -21 -2 -42.5t-16 -67t-39 -82.5t-77 -77t-124 -63q28 -19 44 -30.5 t46.5 -42.5t48 -62t32 -81.5t14.5 -108.5q0 -63 -18 -129t-57.5 -130.5t-95 -114.5t-138 -81t-179.5 -31q-185 0 -296 106t-111 284zM279 375q0 -14 0.5 -28t6.5 -47t16 -59.5t31 -59.5t50.5 -55.5t76.5 -38t105 -15.5q71 0 132 26t102 68t70 95t42 107t13 105 q0 74 -25.5 129t-69 86t-93 45.5t-103.5 14.5q-148 0 -251 -111t-103 -262zM418 1079q0 -101 68 -170t208 -69q61 0 113.5 16.5t96 50.5t68.5 92t25 134q0 61 -23.5 108.5t-63 76t-87 43.5t-98.5 15q-141 0 -224 -88.5t-83 -208.5z" />
<glyph unicode="9" d="M154 301l127 16q4 -31 9 -53.5t21 -60.5t38.5 -62.5t65 -43.5t97.5 -19q309 0 449 566q1 5 2 7l-5 4q-60 -65 -122 -102q-111 -66 -232 -66q-168 0 -273.5 117.5t-105.5 304.5q0 147 66 277.5t179.5 208.5t244.5 78q25 0 51.5 -3t69 -15.5t80 -33.5t78 -61.5t69 -94 t47 -136t18.5 -183.5q0 -69 -9.5 -150t-32 -175.5t-55.5 -184.5t-83.5 -174.5t-112.5 -147.5t-147 -101t-182 -38q-75 0 -154.5 28.5t-128.5 100.5q-25 38 -41 80.5t-19.5 62t-8.5 54.5zM350 918q0 -148 74.5 -236t198.5 -88q72 0 138 29t117.5 82.5t82 136t30.5 182.5 q0 161 -78 256.5t-196 95.5q-77 0 -147 -42t-117 -108t-75 -147.5t-28 -160.5z" />
<glyph unicode=":" horiz-adv-x="569" d="M203 0l41 195h174l-41 -195h-174zM387 866l41 195h174l-41 -195h-174z" />
<glyph unicode=";" horiz-adv-x="569" d="M156 -195q72 34 94.5 68.5t40.5 126.5h-90l43 195h174l-41 -195q-12 -57 -30.5 -101t-34 -69.5t-41.5 -46.5t-40.5 -29t-42.5 -22zM387 866l41 195h174l-41 -195h-174z" />
<glyph unicode="&#x3c;" horiz-adv-x="1351" d="M211 678v82l1073 452v-100l-950 -393l950 -395v-101z" />
<glyph unicode="=" horiz-adv-x="1351" d="M211 426v94h1073v-94h-1073zM211 913v95h1073v-95h-1073z" />
<glyph unicode="&#x3e;" horiz-adv-x="1351" d="M211 223v101l950 395l-950 393v100l1073 -452v-82z" />
<glyph unicode="?" horiz-adv-x="1024" d="M250 1096q7 28 10 40.5t15 49t22.5 58t31.5 57.5t42.5 58.5t55 50.5t70.5 43.5t87 26.5t106 11q164 0 272.5 -99t108.5 -243q0 -79 -35.5 -151.5t-95 -134.5t-156.5 -136q-74 -57 -123.5 -104t-76 -77.5t-41 -66t-17.5 -54t-6 -56.5h-127q8 60 19.5 101t39 93t80.5 107 t136 121q150 119 210 192t60 162q0 99 -72.5 169t-187.5 70q-241 0 -309 -309zM303 0l43 199h170l-41 -199h-172z" />
<glyph unicode="@" horiz-adv-x="1638" d="M51 586q0 134 33 260.5t103 239.5t170.5 197t245.5 133.5t317 49.5q123 0 228 -27t179.5 -71.5t134 -105.5t96 -126.5t60.5 -138t33.5 -135.5t9.5 -123q0 -124 -35 -234.5t-90.5 -187.5t-124 -134t-137 -84t-127.5 -27q-121 0 -121 106q0 30 8 74l-4 4 q-152 -184 -338 -184q-152 0 -249 122t-97 300q0 110 37.5 220t102.5 198t162.5 143t207.5 55q56 0 105.5 -16t80 -36.5t58 -52t38 -48t23.5 -39.5l35 167h125l-170 -802l-4 -29q-8 -39 -8 -51q0 -19 13.5 -30t35.5 -11q40 0 90.5 24.5t103.5 74.5t97 116.5t72 162t28 199.5 q0 41 -5 86t-22.5 110.5t-45.5 124.5t-79.5 119.5t-119 104.5t-169.5 72t-225 28q-179 0 -327.5 -64t-246.5 -174t-152 -255t-54 -307q0 -163 53 -304t151.5 -246.5t249.5 -166t335 -60.5q69 0 132.5 8t114 20t99.5 32.5t83 38t71 45t57.5 45t47.5 46.5t36.5 41t29.5 36h103 q-257 -393 -774 -393q-263 0 -462 110t-304 304.5t-105 445.5zM473 487q0 -134 69.5 -227.5t186.5 -93.5q82 0 156 58t123 145t77.5 185.5t28.5 182.5q0 127 -73 206t-183 79q-75 0 -140 -37t-109 -95t-75.5 -130t-46 -142t-14.5 -131z" />
<glyph unicode="A" horiz-adv-x="1366" d="M-20 0l880 1466h148l268 -1466h-150l-69 438h-672l-264 -438h-141zM457 555h581l-125 766z" />
<glyph unicode="B" horiz-adv-x="1366" d="M111 0l317 1466h449q111 0 189.5 -18t111.5 -38t65 -52q100 -100 100 -248q0 -49 -13.5 -96t-42.5 -95.5t-84 -90t-130 -68.5v-4q29 -9 50.5 -17t59 -32t62 -53t43.5 -80.5t19 -114.5q0 -112 -62.5 -219t-159.5 -166q-43 -26 -91.5 -42.5t-102 -22.5t-85 -7.5t-81.5 -1.5 h-614zM272 117h480q155 0 247 45q78 37 124 123.5t46 169.5q0 38 -9.5 69.5t-24 54.5t-40 40.5t-48.5 29.5t-60 20t-63.5 12t-69 6t-67.5 2.5t-68 0.5h-322zM422 807h362q162 0 258 43q83 37 123.5 106.5t40.5 147.5q0 59 -26 120t-93 91q-82 35 -296 35h-252z" />
<glyph unicode="C" horiz-adv-x="1478" d="M182 604q0 117 27 236.5t88 237.5t147.5 209t216.5 147.5t285 56.5q29 0 60 -2.5t83.5 -13t99 -28t99.5 -52.5t93 -82t71 -119.5t41 -161.5l-135 -14q-13 80 -44.5 143t-71.5 102t-90 65t-97.5 36t-96.5 10q-116 0 -218.5 -42t-178.5 -116t-131 -172.5t-83 -214 t-28 -237.5q0 -115 30.5 -206t77 -144.5t108 -89t117.5 -48t112 -12.5q352 0 528 416l129 -21q-52 -139 -129 -242t-165.5 -160t-177.5 -83.5t-181 -26.5t-176 22t-159.5 70.5t-130.5 120.5t-87.5 178.5t-32.5 237.5z" />
<glyph unicode="D" horiz-adv-x="1478" d="M113 0l317 1466h424q215 0 320 -51q55 -27 103 -70.5t92 -109.5t69.5 -162t25.5 -209q0 -130 -33.5 -254t-90 -220.5t-125 -171t-142.5 -120.5q-64 -39 -172.5 -63.5t-168.5 -29.5t-89 -5h-530zM274 117h357q100 0 198.5 21.5t161.5 56.5q137 77 236.5 266.5t99.5 421.5 q0 299 -197 405q-113 62 -305 62h-282z" />
<glyph unicode="E" horiz-adv-x="1251" d="M106 0l316 1466h905l-24 -116h-768l-115 -535h747l-20 -117h-752l-127 -581h840l-18 -117h-984z" />
<glyph unicode="F" d="M111 0l315 1466h823l-26 -116h-684l-117 -537h700l-30 -117h-695l-149 -696h-137z" />
<glyph unicode="G" horiz-adv-x="1593" d="M199 592q0 125 31 250t97 242.5t158.5 207.5t227 144.5t291.5 54.5q100 0 183 -21.5t138 -53t99 -79t67.5 -86.5t41 -89.5t22.5 -74t10 -53.5l-133 -14q-37 171 -148.5 265.5t-279.5 94.5q-143 0 -259.5 -52t-190.5 -134t-125 -189t-72 -211.5t-21 -207.5 q0 -230 125.5 -362t345.5 -132q204 0 463 135l73 383h-446l25 117h589l-116 -571q-312 -181 -598 -181q-74 0 -148.5 15.5t-157.5 59t-146 109.5t-104.5 178t-41.5 255z" />
<glyph unicode="H" horiz-adv-x="1478" d="M111 0l313 1466h137l-135 -632h840l133 632h137l-309 -1466h-137l149 713h-840l-151 -713h-137z" />
<glyph unicode="I" horiz-adv-x="569" d="M137 0l324 1466h137l-324 -1466h-137z" />
<glyph unicode="J" horiz-adv-x="1024" d="M72 262q0 39 10 109l125 6q-12 -66 -12 -105q0 -54 18.5 -92.5t41.5 -56.5t57.5 -28.5t51 -11.5t37.5 -1q118 0 176.5 70.5t100.5 257.5l235 1056h138l-250 -1124q-20 -92 -47 -155t-71.5 -113.5t-111.5 -74.5t-159 -24q-80 0 -142.5 19.5t-99 49t-59.5 69.5t-31 76 t-8 73z" />
<glyph unicode="K" horiz-adv-x="1366" d="M109 0l317 1466h137l-166 -759l4 -5l899 764h195l-702 -583l501 -883h-145l-459 797l-332 -273l-114 -524h-135z" />
<glyph unicode="L" d="M106 0l314 1466h135l-289 -1349h768l-24 -117h-904z" />
<glyph unicode="M" horiz-adv-x="1705" d="M109 0l315 1466h180l219 -1306h4l740 1306h196l-307 -1466h-127l174 834l119 487h-8l-260 -479l-494 -842h-135l-152 897l-51 424h-8l-106 -522l-172 -799h-127z" />
<glyph unicode="N" horiz-adv-x="1478" d="M111 0l315 1466h143l559 -1294h7l274 1294h127l-311 -1466h-154l-553 1284h-4l-276 -1284h-127z" />
<glyph unicode="O" horiz-adv-x="1593" d="M201 602q0 128 30 253.5t94 240.5t153.5 203t218 140t278.5 52q273 0 435.5 -170.5t162.5 -464.5q0 -119 -28.5 -239.5t-90 -236.5t-149.5 -205.5t-217.5 -144.5t-282.5 -55q-105 0 -193 24.5t-149 64t-108.5 94.5t-76 111.5t-46.5 119.5t-24.5 114t-6.5 99zM338 600 q0 -110 28 -199t73.5 -147t106.5 -96.5t124.5 -55t130.5 -16.5q114 0 211.5 39t165 105.5t119 148.5t81 174t44 176t14.5 160q0 133 -53.5 243.5t-159.5 179t-246 68.5q-108 0 -200 -34.5t-156 -90.5t-115 -130t-81.5 -148t-51 -150t-28 -131.5t-7.5 -95.5z" />
<glyph unicode="P" horiz-adv-x="1251" d="M104 0l316 1466h395q154 0 232.5 -19t132.5 -61q61 -48 94 -124t33 -160q0 -132 -78.5 -262t-210.5 -181q-94 -34 -328 -34h-315l-133 -625h-138zM401 741h283q189 0 279 29q57 18 99.5 59t64.5 92t32 98.5t10 90.5q0 58 -13 100.5t-44.5 68.5t-60 41t-86 21t-94 7.5 t-109.5 1.5h-6h-224z" />
<glyph unicode="Q" horiz-adv-x="1593" d="M201 621q0 115 28.5 233t90.5 233t150.5 204.5t219.5 144.5t285 55q273 0 435.5 -170t162.5 -465q0 -90 -16.5 -181.5t-53.5 -191t-106.5 -196.5t-165.5 -176q19 -22 35 -37.5t58 -47.5t106 -75l-66 -96q-58 34 -108.5 74.5t-125.5 117.5q-151 -72 -325 -72 q-133 0 -239 39.5t-173 103t-111.5 150t-62.5 173.5t-18 180zM338 582q0 -218 127.5 -357t337.5 -139q122 0 244 53l-29 27q-59 55 -99.5 86t-56 39t-51.5 24l51 97q43 -16 70.5 -29.5t88 -61t130.5 -122.5q131 118 208 307t77 379q0 140 -55.5 252t-161 177.5t-242.5 65.5 q-101 0 -189 -31.5t-151.5 -83.5t-116 -121.5t-85.5 -143.5t-55.5 -151.5t-32 -144t-9.5 -122.5z" />
<glyph unicode="R" horiz-adv-x="1366" d="M109 0l317 1466h446q122 0 209 -16.5t154.5 -56t101 -111t33.5 -176.5q0 -78 -22.5 -143.5t-56 -108.5t-83.5 -77t-92.5 -52.5t-97.5 -32.5t-83.5 -18t-64.5 -8q108 -79 164.5 -180.5t207.5 -468.5q5 -11 7 -17h-162q-29 83 -62.5 172.5t-96 222t-109.5 183.5 q-88 88 -213 88h-217l-143 -666h-137zM416 782h356q86 0 152 8.5t126 30.5t99 58.5t61.5 95t22.5 137.5q0 96 -36 145.5t-126.5 71t-265.5 21.5h-268z" />
<glyph unicode="S" horiz-adv-x="1251" d="M123 438l133 13q6 -143 53 -220q91 -145 334 -145q170 0 289 84t119 217q0 104 -72 164t-301 156q-71 29 -120.5 54t-102.5 61.5t-84.5 75.5t-52.5 94t-21 120q0 55 16.5 108t54 102.5t92 86.5t137 59.5t183.5 22.5q71 0 132.5 -10t106.5 -25.5t82.5 -41t62.5 -49 t45.5 -58t31.5 -59.5t20.5 -61.5t12.5 -56t8 -51.5l-135 -18q-2 22 -3.5 33.5t-7 40t-12.5 47t-21.5 46.5t-32.5 47t-46 40.5t-62 34.5t-81.5 21.5t-102.5 8.5q-87 0 -156 -24.5t-108.5 -64.5t-59.5 -85t-20 -92q0 -95 73 -159t232 -128q66 -27 110 -46t95.5 -45.5t84.5 -50 t66 -55t51.5 -64.5t30 -75t11.5 -90q0 -83 -36.5 -159t-103.5 -136t-173 -95.5t-234 -35.5q-56 0 -106.5 5.5t-103 20.5t-96 37.5t-83 59t-67 83.5t-44 112.5t-18.5 144.5z" />
<glyph unicode="T" d="M266 1352l25 114h1048l-24 -114h-455l-291 -1352h-137l291 1352h-457z" />
<glyph unicode="U" horiz-adv-x="1478" d="M209 397q0 63 18 150l197 919h137l-176 -815q-39 -182 -39 -262q0 -56 17.5 -102.5t44.5 -77.5t64 -54.5t72 -36t73.5 -20.5t63.5 -10t46 -2q112 0 208.5 46t156.5 128q32 43 57 108.5t35 109t28 126.5l185 862h137l-193 -901q-64 -299 -190 -420q-177 -170 -446 -170 q-97 0 -180 25t-140 67t-97.5 97t-59.5 114t-19 119z" />
<glyph unicode="V" horiz-adv-x="1251" d="M231 1466h138l249 -1284l721 1284h148l-836 -1466h-135z" />
<glyph unicode="W" horiz-adv-x="1820" d="M223 1466h137l56 -1300h4l665 1300h142l61 -1300h4l641 1300h150l-746 -1466h-155l-58 1286h-4l-655 -1286h-156z" />
<glyph unicode="X" horiz-adv-x="1251" d="M-49 0l688 743l-412 723h158l340 -624l565 624h166l-670 -737l385 -729h-151l-326 629l-567 -629h-176z" />
<glyph unicode="Y" horiz-adv-x="1251" d="M242 1466h145l365 -786l610 786h168l-739 -909l-117 -557h-137l120 571z" />
<glyph unicode="Z" horiz-adv-x="1251" d="M90 0l23 115l1042 1235h-852l25 116h993l-16 -129l-1022 -1220h886l-22 -117h-1057z" />
<glyph unicode="[" horiz-adv-x="681" d="M47 -406l404 1872h469l-21 -98h-348l-361 -1675h347l-19 -99h-471z" />
<glyph unicode="\" horiz-adv-x="569" d="M104 1466h95l475 -1503h-96z" />
<glyph unicode="]" horiz-adv-x="681" d="M-127 -406l21 99h348l360 1675h-346l20 98h469l-403 -1872h-469z" />
<glyph unicode="^" horiz-adv-x="1351" d="M348 954l449 537l448 -537l-65 -55l-383 463l-385 -463z" />
<glyph unicode="_" horiz-adv-x="1024" d="M-12 -154h1048v-102h-1048v102z" />
<glyph unicode="`" horiz-adv-x="681" d="M338 1466h184l101 -262h-101z" />
<glyph unicode="a" d="M113 268q0 127 80 211q64 67 146.5 93t250.5 34q113 5 184.5 13t97 14.5t62.5 19.5l10 43q14 49 14 99q0 93 -79.5 143.5t-208.5 50.5q-59 0 -108 -11t-81.5 -31t-56 -41t-39.5 -50t-23.5 -47t-15.5 -43l-123 10q11 33 19.5 53.5t28 56.5t40.5 60t57 52.5t79 45.5 t104.5 29t134.5 12q101 0 179 -23.5t123.5 -63t68 -88t22.5 -103.5q0 -37 -14 -111l-88 -432q-21 -105 -21 -149q0 -40 21 -115h-135q-15 59 -15 137q-22 -23 -36.5 -37t-52.5 -40.5t-75.5 -42.5t-97 -29t-125.5 -13q-79 0 -139.5 22t-95 54t-56.5 74t-29 76t-7 67zM238 283 q0 -92 67.5 -151.5t169.5 -59.5q39 0 81 8t94.5 32t96 61t81.5 101t55 146l28 133q-119 -28 -331 -43q-137 -11 -203 -36q-139 -54 -139 -191z" />
<glyph unicode="b" horiz-adv-x="1251" d="M88 0l309 1466h125l-119 -557l5 -4q28 32 49.5 53.5t56.5 48t71.5 42t88.5 26t112 10.5q105 0 186 -36.5t130 -99.5t73.5 -142t24.5 -170q0 -81 -19.5 -167.5t-64 -176t-109.5 -159.5t-165 -114.5t-221 -44.5q-51 0 -94.5 8t-74.5 18.5t-60 31t-46 36t-36.5 43.5 t-28.5 43.5t-25 45.5l-43 -201h-125zM311 387q0 -129 84.5 -224t225.5 -95q88 0 164 35.5t128 93.5t89.5 131t55 148.5t17.5 146.5q0 72 -17.5 135.5t-53 116t-96.5 83.5t-140 31q-231 0 -360 -225q-50 -86 -73.5 -188.5t-23.5 -188.5z" />
<glyph unicode="c" d="M137 410q0 59 12.5 127.5t38 146t71 148t105 128t146 91.5t188.5 34q65 0 120 -14t92.5 -34.5t69 -52t49.5 -58t33 -62t20.5 -54t11.5 -44.5l-121 -12q-57 235 -283 235q-79 0 -146 -30t-112 -80.5t-79.5 -112t-53.5 -129.5t-28 -127t-9 -111q0 -13 1 -28.5t7.5 -49.5 t17 -64t33.5 -65.5t53.5 -60.5t79.5 -42t109 -17q251 0 361 280l123 -10q-13 -29 -18 -40.5t-23 -47t-31.5 -54.5t-39.5 -53t-51 -54t-62 -45t-76 -39t-90 -24t-107 -10q-73 0 -133.5 18t-102 46.5t-74 68t-51.5 79.5t-31 83.5t-16 76.5t-4 63z" />
<glyph unicode="d" horiz-adv-x="1251" d="M137 426q0 53 9 111t30.5 122.5t52.5 125t78.5 115.5t106 96t137.5 65t170 24q50 0 95 -10t77 -23t62.5 -37t47 -39.5t36.5 -44.5t25.5 -38t18.5 -33l134 606h124l-319 -1466h-123l35 152l-4 4q-20 -25 -38.5 -44.5t-54 -47t-73.5 -45.5t-94.5 -31t-120.5 -13 q-89 0 -161 27t-118 71t-76.5 104t-43.5 121.5t-13 127.5zM262 440q0 -56 10 -107.5t33 -99.5t57.5 -83.5t86.5 -56.5t116 -21q230 0 361 227q50 89 75 191t25 186q0 82 -35 153t-107 117.5t-167 46.5q-88 0 -164 -35.5t-128.5 -93t-90 -130.5t-55 -148t-17.5 -146z" />
<glyph unicode="e" d="M137 408q0 81 18 168.5t60.5 179.5t104.5 164t159.5 118.5t216.5 46.5q185 0 288 -120.5t103 -313.5q0 -35 -10 -137h-807q0 -6 -4 -51t-4 -64q0 -56 17 -111.5t50.5 -105t91.5 -80t132 -30.5q109 0 190 65t148 185l135 -9q-32 -62 -62.5 -108t-73 -91.5t-89.5 -74.5 t-111.5 -46.5t-140.5 -17.5q-109 0 -182 29t-127 94q-103 126 -103 310zM293 610h670q2 26 2 50q-1 68 -15 122q-20 74 -50.5 112t-74 61t-74.5 28.5t-61 5.5q-95 0 -178 -49q-151 -93 -219 -330z" />
<glyph unicode="f" horiz-adv-x="569" d="M123 0l211 971h-170l18 90h168l37 162q10 43 19.5 73.5t31 70.5t49.5 64.5t74 42t105 17.5q90 0 182 -25l-23 -104q-105 18 -153 18q-63 0 -100 -32t-58 -119l-39 -168h225l-18 -90h-223l-211 -971h-125z" />
<glyph unicode="g" horiz-adv-x="1251" d="M109 -139h118q7 -49 32 -86t55 -55.5t69.5 -29.5t65.5 -13.5t51 -2.5q99 0 171 26t115.5 76t67.5 104t41 130l31 133l-4 4q-31 -36 -56 -59.5t-70.5 -53t-109 -44.5t-143.5 -15q-89 0 -159 27.5t-114 72t-73 105t-40.5 121.5t-11.5 127q0 86 20.5 174.5t66.5 176 t111.5 155t163.5 109.5t214 42q136 0 215.5 -52.5t136.5 -158.5l6 -2l41 189h125l-229 -1061q-26 -120 -73.5 -205t-114 -133.5t-145 -70t-177.5 -21.5q-29 0 -54 1t-67.5 7.5t-76 17.5t-72 33t-64.5 51.5t-44 76t-19 104.5zM270 434q0 -178 86.5 -270t221.5 -92 q239 0 362 252q45 92 66.5 193t21.5 169q0 135 -88 221t-223 86q-130 0 -234 -81t-158.5 -208t-54.5 -270z" />
<glyph unicode="h" d="M90 0l311 1466h125l-127 -596l4 -4q163 219 392 219q63 0 113 -16.5t81.5 -43t52 -62.5t29 -73.5t8.5 -78.5q0 -68 -18 -156l-143 -655h-123l141 662q18 90 18 129q0 82 -51 130t-141 48q-86 0 -165.5 -45.5t-135.5 -114.5q-51 -63 -91.5 -165.5t-60.5 -194.5l-96 -449 h-123z" />
<glyph unicode="i" horiz-adv-x="454" d="M96 0l226 1061h124l-225 -1061h-125zM369 1274l39 192h124l-38 -192h-125z" />
<glyph unicode="j" horiz-adv-x="454" d="M-170 -408l31 103q52 -23 78 -23q37 1 59 20.5t39 63.5q8 24 53 226l229 1079h127l-247 -1153l-13.5 -60t-13.5 -56t-16 -55t-18.5 -47.5t-23 -43.5t-28.5 -34t-35.5 -28t-42 -15.5t-51.5 -6.5q-53 0 -127 30zM369 1274l39 192h124l-38 -192h-125z" />
<glyph unicode="k" horiz-adv-x="1024" d="M86 0l324 1466h125l-213 -964l4 -4l592 563h188l-451 -395l263 -666h-146l-219 578l-264 -234l-78 -344h-125z" />
<glyph unicode="l" horiz-adv-x="454" d="M96 0l312 1466h124l-311 -1466h-125z" />
<glyph unicode="m" horiz-adv-x="1705" d="M90 0l232 1061h120l-32 -150l4 -4q32 36 59.5 61t70 55t94.5 46t110 16q59 0 107.5 -17t76 -38t50.5 -53.5t30 -50t16 -41.5q31 37 57 62.5t73 62t106 56t125 19.5q119 0 197.5 -68t78.5 -192q0 -39 -10 -90q0 -19 -6 -37l-156 -698h-125l145 655q25 111 25 168 q0 69 -45 107.5t-123 38.5q-90 0 -167 -52.5t-134 -138.5q-69 -106 -111 -307l-104 -471h-125l139 627q29 149 29 196q0 79 -41 112.5t-104 33.5q-31 0 -65.5 -7t-79 -24.5t-91 -55t-84.5 -91.5q-34 -48 -69 -159.5t-56 -205.5l-92 -426h-125z" />
<glyph unicode="n" d="M90 0l229 1061h123l-39 -191l5 -4q163 219 387 219q63 0 113 -16.5t81.5 -43t52 -62.5t29 -73.5t8.5 -78.5q0 -68 -18 -156l-141 -655h-125l143 662q16 80 16 129q0 87 -54.5 132.5t-137.5 45.5q-88 0 -166.5 -44.5t-134.5 -115.5q-51 -63 -90.5 -164.5t-59.5 -195.5 l-96 -449h-125z" />
<glyph unicode="o" d="M135 399q0 68 12.5 141t38 151.5t70 147.5t103 125t143 88.5t184.5 32.5q188 0 301 -114t113 -328q0 -79 -17 -163.5t-59 -176.5t-103.5 -163.5t-161 -118t-222.5 -46.5q-70 0 -129 16.5t-99.5 43t-72 63.5t-50.5 75t-31 80.5t-16 77.5t-4 68zM260 412q0 -46 8.5 -90.5 t30 -90.5t53.5 -80.5t83.5 -56.5t115.5 -22q85 0 157 40t120 103.5t82 143t49.5 157.5t15.5 148q0 152 -85.5 238.5t-203.5 86.5q-73 0 -136.5 -28.5t-109 -76t-81 -107.5t-56.5 -125.5t-32 -126t-11 -113.5z" />
<glyph unicode="p" horiz-adv-x="1251" d="M-2 -406l315 1467h125l-35 -152l5 -4q33 39 59 63.5t71.5 55t107.5 46t140 15.5q105 0 186.5 -37.5t130 -101.5t73 -142t24.5 -167q0 -80 -19 -166.5t-64 -176t-109.5 -160t-165 -115t-221.5 -44.5q-51 0 -96 8.5t-76.5 19.5t-61 33t-46 37.5t-37 44t-27.5 41.5t-23 42 l-131 -607h-125zM311 387q0 -129 84.5 -224t225.5 -95q88 0 164 35.5t128 93.5t89.5 131t55 148.5t17.5 146.5q0 70 -17.5 133.5t-52.5 116.5t-96 84.5t-141 31.5q-118 0 -210 -62t-148 -163q-49 -88 -74 -191t-25 -186z" />
<glyph unicode="q" horiz-adv-x="1251" d="M139 426q0 53 9 111t30.5 122.5t52.5 125t78.5 115.5t106 96t137.5 65t170 24q50 0 95.5 -10t77 -23t62 -36.5t48 -40t37 -44t26 -38.5t18.5 -33l43 201h125l-317 -1467h-125l121 560l-4 4q-69 -72 -95 -93q-111 -90 -288 -90q-189 0 -298.5 125t-109.5 326zM264 440 q0 -56 10.5 -107.5t34.5 -99.5t59 -83.5t87 -56.5t116 -21q72 0 132 19.5t102.5 55t71 71t53.5 81.5q50 88 74 190t24 187q0 82 -35 153t-106.5 117.5t-165.5 46.5q-88 0 -164.5 -35.5t-129 -93t-90.5 -130.5t-55.5 -148t-17.5 -146z" />
<glyph unicode="r" horiz-adv-x="681" d="M96 0l226 1061h116l-41 -182l4 -5q11 25 23.5 47t37.5 54t52.5 54.5t69 39t86.5 16.5q46 0 82 -14t51.5 -28t36.5 -39l-70 -99q-67 60 -143 60q-59 0 -107.5 -35t-82.5 -96t-56.5 -124.5t-38.5 -138.5l-121 -571h-125z" />
<glyph unicode="s" horiz-adv-x="1024" d="M88 387l131 8q0 -26 0.5 -40t5.5 -52t14 -62.5t29.5 -58.5t49 -54t74.5 -35t104 -15q116 0 198 54.5t82 139.5q0 80 -64.5 132.5t-209.5 111.5q-68 28 -110.5 52t-79 56.5t-52.5 74.5t-16 98q0 132 100 210t270 78q199 0 297 -114q63 -74 78 -193l-123 -12 q-17 102 -75 159.5t-179 57.5q-129 0 -188 -49.5t-59 -116.5q0 -54 42 -97t162 -95q45 -20 70 -31.5t66.5 -33t65.5 -39t54 -44t45.5 -53t27 -61.5t11.5 -74q0 -17 -4.5 -40.5t-17.5 -62t-42 -73.5t-71 -67t-112.5 -51.5t-159.5 -19.5q-216 0 -318 105q-97 100 -96 288v19z " />
<glyph unicode="t" horiz-adv-x="569" d="M160 123q0 55 12 108l158 740h-148l19 90h147l58 270l143 82l-74 -352h197l-25 -90h-192l-156 -727q-12 -52 -12 -94q0 -68 73 -68q63 0 136 29l-21 -111q-88 -25 -153 -25q-78 0 -120 42t-42 106z" />
<glyph unicode="u" d="M156 250q0 59 20 156l143 655h125l-143 -660q-14 -65 -14 -131q0 -52 19 -89.5t49.5 -56t60 -26.5t59.5 -8q83 0 165 46t140 118q38 47 73.5 133.5t51 141t21.5 83.5l96 449h125l-229 -1061h-123l41 190l-5 5q-164 -220 -387 -220q-73 0 -128 22t-84.5 52.5t-47.5 71.5 t-23 71t-5 58z" />
<glyph unicode="v" horiz-adv-x="1024" d="M166 1061h119l153 -914l559 914h129l-647 -1061h-123z" />
<glyph unicode="w" horiz-adv-x="1478" d="M150 1061h122l138 -897h4l395 897h125l100 -897h4l441 897h131l-541 -1061h-119l-106 852h-4l-383 -852h-125z" />
<glyph unicode="x" horiz-adv-x="1024" d="M-10 0l483 537l-295 524h146l237 -426l383 426h148l-478 -524l297 -537h-139l-244 436l-393 -436h-145z" />
<glyph unicode="y" horiz-adv-x="1024" d="M-37 -391l14 115q73 -29 127 -29q64 0 119 90l127 215l-190 1061h123l157 -938l555 938h131l-766 -1282q-73 -123 -127.5 -166t-121.5 -43q-59 0 -148 39z" />
<glyph unicode="z" horiz-adv-x="1024" d="M45 0l25 115l770 831h-635l28 115h789l-25 -115l-764 -831h658l-25 -115h-821z" />
<glyph unicode="{" horiz-adv-x="681" d="M227 465v131q40 1 71.5 15t51.5 33t34.5 50.5t21.5 57t11 63t4.5 59t0.5 54.5q0 257 8 334.5t47 130.5q28 36 63.5 59t66 29.5t60.5 9.5t46 0v-113q-43 -1 -67.5 -4.5t-47.5 -16.5t-33 -32.5t-18 -59.5t-10 -89t-2 -129q0 -58 -0.5 -85.5t-2 -75t-5 -71.5t-10 -61.5 t-16.5 -58t-25 -48t-34.5 -45.5t-46 -37t-59.5 -35q33 -15 59.5 -34t46 -37.5t34.5 -45t25 -47t16.5 -53.5t10 -54.5t5.5 -60.5t2 -61v-65q0 -276 23.5 -329.5t154.5 -59.5v-113q-73 -2 -125.5 14.5t-84.5 45t-51 75t-25.5 95.5t-6.5 116q0 263 -4.5 332.5t-28.5 118.5 q-16 33 -35.5 54t-43.5 29.5t-39 11t-42 3.5z" />
<glyph unicode="|" horiz-adv-x="454" d="M272 -406v1872h103v-1872h-103z" />
<glyph unicode="}" horiz-adv-x="681" d="M164 -317q43 1 67.5 4.5t47.5 16.5t33 32.5t18 59.5t10 89t2 129q0 58 0.5 85.5t2 75t5 71.5t10 61t16.5 57.5t25 48t34.5 45.5t46 37t59.5 35q-42 19 -74 45t-52.5 50.5t-35 62.5t-22 65.5t-11 75.5t-4 76t-0.5 84q0 276 -23.5 329.5t-154.5 59.5v113q90 2 150 -22 t90 -74t41.5 -108.5t11.5 -141.5q0 -267 4 -334.5t28 -116.5q16 -34 35 -55t43.5 -29.5t38.5 -10.5t43 -3v-131q-40 -1 -71.5 -15t-51.5 -33t-34.5 -50.5t-21 -56.5t-10.5 -63.5t-4.5 -59t-0.5 -54.5q0 -255 -8.5 -333.5t-49.5 -131.5q-27 -36 -62.5 -59t-65 -29.5 t-59.5 -9.5t-46 0v113z" />
<glyph unicode="~" horiz-adv-x="1351" d="M174 618v111q161 119 281 119q63 0 116.5 -18t143.5 -62q164 -80 250 -80q119 0 278 137v-118q-62 -42 -95 -61.5t-83 -36.5t-100 -17q-41 0 -84.5 11t-76 25t-106.5 48q-165 76 -239 76q-61 0 -137.5 -38t-147.5 -96z" />
<glyph unicode="&#xa1;" horiz-adv-x="681" d="M119 -406l65 336l197 762h82l-113 -762l-76 -336h-155zM373 866l41 195h176l-45 -195h-172z" />
<glyph unicode="&#xa2;" d="M137 412q0 42 7 93.5t25.5 117.5t46 129t73.5 124t103 107t139 74t178 28q41 0 65 -4l158 385l86 -45l-150 -362q167 -65 226 -293l-121 -12q-7 26 -12.5 41t-17.5 41.5t-26 45t-38 39t-54 35.5l-358 -872l15 -4q16 -3 34.5 -5.5t40.5 -2.5q35 0 68 5.5t77 23.5t81.5 47 t75.5 81.5t65 122.5l123 -10q-19 -41 -32.5 -67.5t-39.5 -69t-51.5 -70.5t-65 -61t-82.5 -52.5t-102.5 -33t-126.5 -13.5q-29 0 -54.5 2.5t-45.5 6.5t-21 4l-158 -381l-84 35l156 381q-98 63 -150.5 170t-52.5 219zM262 403q0 -81 33 -161t86 -119l354 866 q-84 8 -155.5 -15.5t-122 -71t-89.5 -108.5t-61.5 -131.5t-33.5 -135.5t-11 -124z" />
<glyph unicode="&#xa3;" d="M86 141q72 43 124 88t98.5 108.5t69.5 149t19 191.5h-215l23 96h182q-20 132 -20 225q0 216 128.5 351t325.5 135q46 0 92.5 -9t99 -34.5t94 -64t73.5 -103.5t43 -148l-121 -18q-3 19 -6 33.5t-13 44.5t-22 52.5t-33.5 50.5t-48 46t-66 30.5t-86.5 12.5 q-149 0 -243.5 -101t-94.5 -267q0 -61 25 -236h293l-23 -96h-260q2 -84 -7.5 -147t-39.5 -129.5t-90 -129t-154 -127.5l5 -4q48 21 81.5 29t81.5 8q130 0 256 -55q64 -27 90 -34t70 -7q49 0 92 13.5t111 45.5l41 -106q-117 -60 -240 -60q-50 0 -88 9.5t-133 44.5 q-114 43 -215 43q-65 0 -121 -16.5t-84 -32.5t-74 -48z" />
<glyph unicode="&#xa4;" d="M170 313l129 129q-29 38 -46 64t-35.5 86t-18.5 129q0 50 9.5 94.5t29 82.5t30 54.5t31.5 46.5l-129 129l63 64l132 -131q43 31 71.5 48t86 34.5t120.5 17.5q64 0 123 -18.5t88 -36.5t64 -45l131 131l63 -64l-129 -129q98 -121 98 -278q0 -158 -98 -279l129 -129l-63 -63 l-129 129q-132 -100 -283 -100q-152 0 -277 98l-127 -127zM293 721q0 -145 100.5 -246.5t245.5 -101.5t246.5 101.5t101.5 246.5t-101.5 245.5t-246.5 100.5t-245.5 -100.5t-100.5 -245.5z" />
<glyph unicode="&#xa5;" d="M66 356l20 86h406l43 205h-404l16 86h371l-287 733h131l254 -700l529 700h151l-573 -733h364l-18 -86h-412l-41 -205h410l-22 -86h-406l-80 -356h-123l76 356h-405z" />
<glyph unicode="&#xa6;" horiz-adv-x="454" d="M272 346h103v-752h-103v752zM272 713v753h103v-753h-103z" />
<glyph unicode="&#xa7;" d="M88 -115l121 31q33 -128 116.5 -186t194.5 -58q134 0 206.5 63t72.5 144q0 31 -6 51t-34 61.5t-99 105.5t-189 157q-84 67 -127.5 105t-86 84t-59 86t-16.5 85q0 40 11.5 78t27.5 66.5t44 57.5t50.5 48t57.5 41t54.5 32.5t51.5 27.5q-96 117 -96 225q0 38 12 77.5 t41.5 80.5t72 72t110.5 51t151 20q68 0 125 -14t94 -34t66.5 -51t45 -57t27 -60t15 -51.5t6.5 -39.5l-123 -15q-19 104 -79 162t-179 58q-130 0 -199 -57.5t-69 -139.5q0 -50 22 -91t96 -114t232 -203q74 -60 112 -94t74 -74t49 -74t13 -73q0 -52 -23 -102t-52 -83.5 t-76.5 -69t-75.5 -52t-70 -39.5q29 -35 44.5 -55t36 -52t29.5 -63t9 -64q0 -139 -116 -229t-282 -90q-81 0 -163.5 25.5t-141.5 74.5q-42 35 -70.5 78t-38 70t-20.5 67zM301 641q0 -27 5.5 -50t21.5 -47t29 -40t45.5 -43.5t51 -42t64.5 -49.5q130 -98 219 -189 q114 58 178 118.5t64 139.5q0 42 -19 76t-79 88l-45 41q-26 24 -95 82l-102 86q-32 26 -107 92q-32 -16 -52.5 -27t-58.5 -37t-60.5 -51.5t-41 -64.5t-18.5 -82z" />
<glyph unicode="&#xa8;" horiz-adv-x="681" d="M268 1212l37 174h127l-37 -174h-127zM614 1212l37 174h127l-37 -174h-127z" />
<glyph unicode="&#xa9;" horiz-adv-x="1638" d="M127 727q0 155 60.5 296.5t163 244t244 163t296.5 60.5t296.5 -60.5t244 -163t163 -244t60.5 -296.5t-60.5 -296.5t-163 -244t-244 -163t-296.5 -60.5t-296.5 60.5t-244 163t-163 244t-60.5 296.5zM221 727q0 -137 53 -261t142.5 -213.5t213.5 -142.5t261 -53t261 53 t213.5 142.5t142.5 213.5t53 261t-53 261t-142.5 213.5t-213.5 142.5t-261 53t-261 -53t-213.5 -142.5t-142.5 -213.5t-53 -261zM512 729q0 74 23.5 145.5t69 133t122.5 99.5t174 38q64 0 117.5 -19t92 -53.5t64 -69.5t48.5 -79l-97 -29q-71 164 -225 164q-27 0 -58 -6 t-72 -27t-73 -54.5t-54.5 -95t-22.5 -141.5q0 -168 79 -263t191 -95q48 0 87.5 15t63.5 33.5t45.5 52t30.5 53.5t23 55l90 -33q-9 -26 -13.5 -37t-21 -44t-31 -51.5t-42.5 -46.5t-58.5 -43.5t-74.5 -27.5t-95 -12q-90 0 -164.5 38.5t-121 101.5t-72 140t-25.5 158z" />
<glyph unicode="&#xaa;" horiz-adv-x="684" d="M133 944q0 32 8 59.5t20 48t33.5 37t39.5 27.5t47.5 20.5t49 14t52.5 9t48.5 6t45.5 3.5q86 7 121 14.5t82 26.5q14 66 14 95q0 104 -180 104q-55 0 -93.5 -9.5t-62.5 -30t-37.5 -42t-27.5 -57.5l-92 12q16 41 35.5 72t55 65t93 53t133.5 19q18 0 35.5 -1.5t53 -6 t63.5 -17.5t56.5 -32.5t45 -54t16.5 -79.5q0 -53 -36 -202q-43 -175 -43 -254q0 -34 16 -84h-98q-13 50 -11 90q-142 -109 -268 -109q-92 0 -153.5 59.5t-61.5 143.5zM227 956q0 -55 43 -94t113 -39q19 0 42 4.5t54 17.5t58.5 34t53.5 58t40 85l31 102q-32 -17 -59.5 -21.5 t-141.5 -12.5q-44 -3 -71 -6t-61.5 -12t-54 -22.5t-33.5 -37t-14 -56.5z" />
<glyph unicode="&#xab;" d="M197 547l393 432h94l-356 -451l168 -456h-95zM594 549l383 430h96l-346 -451l158 -456h-97z" />
<glyph unicode="&#xac;" horiz-adv-x="1351" d="M211 913v95h1073v-582h-94v487h-979z" />
<glyph unicode="&#xad;" horiz-adv-x="681" d="M106 473l23 113h547l-25 -113h-545z" />
<glyph unicode="&#xae;" horiz-adv-x="1638" d="M127 727q0 155 60.5 296.5t163 244t244 163t296.5 60.5t296.5 -60.5t244 -163t163 -244t60.5 -296.5t-60.5 -296.5t-163 -244t-244 -163t-296.5 -60.5t-296.5 60.5t-244 163t-163 244t-60.5 296.5zM221 727q0 -137 53 -261t142.5 -213.5t213.5 -142.5t261 -53t261 53 t213.5 142.5t142.5 213.5t53 261t-53 261t-142.5 213.5t-213.5 142.5t-261 53t-261 -53t-213.5 -142.5t-142.5 -213.5t-53 -261zM582 317v803h333q56 0 100.5 -11t72.5 -27t48.5 -39t30 -42t15 -42t6 -32.5t0.5 -19.5q0 -54 -20 -95.5t-46 -64t-63 -38t-60.5 -20t-48.5 -7.5 v-4q47 -16 71.5 -30.5t56 -53.5t61.5 -100t80 -177h-121l-23 48q-50 105 -81.5 158.5t-71.5 89t-81 44.5t-112 9h-47v-349h-100zM682 748h133q46 0 78.5 2.5t68.5 11.5t58 24.5t36.5 44t14.5 68.5q0 38 -13 64.5t-32 41t-53.5 22t-64 9.5t-77.5 2h-149v-290z" />
<glyph unicode="&#xaf;" horiz-adv-x="681" d="M215 1227l25 110h600l-25 -110h-600z" />
<glyph unicode="&#xb0;" horiz-adv-x="819" d="M274 1204q0 119 83.5 203t203.5 84q119 0 203 -84.5t84 -202.5q0 -120 -84 -203t-203 -83q-120 0 -203.5 83t-83.5 203zM356 1204q0 -85 60 -145t145 -60t145 60t60 145t-60 145t-145 60t-145 -60t-60 -145z" />
<glyph unicode="&#xb1;" horiz-adv-x="1351" d="M211 0v92h1073v-92h-1073zM211 674v94h489v489h95v-489h489v-94h-489v-490h-95v490h-489z" />
<glyph unicode="&#xb2;" horiz-adv-x="681" d="M164 743q14 49 28.5 81.5t47.5 75.5t92 89.5t149 102.5q123 77 158 111.5t35 82.5q0 49 -48 84t-114 35q-42 0 -73.5 -10t-52.5 -32t-32 -39t-26 -48l-101 8q8 25 16 43t31.5 52t52.5 55.5t80.5 39t114.5 17.5q124 0 191 -62.5t67 -142.5q0 -44 -18.5 -83t-58 -74.5 t-78.5 -62t-101 -62.5q-74 -43 -116 -75t-55 -48.5t-34 -51.5h396l-19 -86h-532z" />
<glyph unicode="&#xb3;" horiz-adv-x="681" d="M168 934l113 12q10 -26 15.5 -38.5t20 -34.5t31 -33t45.5 -20t66 -9q66 0 118 39t52 106q0 142 -203 127l18 80l56 -2q71 0 119.5 41.5t48.5 87.5q0 13 -5 29t-18.5 37t-45 35t-77.5 14q-36 0 -64 -7.5t-44.5 -17t-31 -29t-20.5 -30.5t-16 -35l-100 19q7 18 15 35 t30.5 46.5t51 50.5t77.5 37.5t108 16.5q115 0 180.5 -59.5t65.5 -135.5q0 -33 -11.5 -60.5t-26 -44t-41.5 -32.5t-42 -22t-43 -17q21 -8 33.5 -14t32 -19.5t31 -28.5t20 -40.5t8.5 -56.5q0 -50 -19 -91.5t-48 -67.5t-67 -44t-73.5 -25.5t-68.5 -7.5q-61 0 -111.5 18 t-79.5 40t-52.5 56.5t-31 52t-16.5 42.5z" />
<glyph unicode="&#xb4;" horiz-adv-x="681" d="M414 1204l170 262h207l-273 -262h-104z" />
<glyph unicode="&#xb5;" d="M-4 -406l315 1467h125l-135 -629q-3 -13 -8.5 -39.5t-7.5 -35.5t-4.5 -25.5t-3.5 -29t-1 -26.5q0 -84 50.5 -135t132.5 -51q87 0 173.5 45t137.5 125q51 82 90 173.5t53 160.5l101 467h125l-228 -1061h-125l41 193l-4 4q-162 -222 -385 -222q-35 0 -66 8.5t-49.5 17.5 t-40.5 30t-29 29t-26 32l-106 -498h-125z" />
<glyph unicode="&#xb6;" horiz-adv-x="1331" d="M133 1047q0 184 125.5 301.5t353.5 117.5h693v-139h-197v-1733h-131v1733h-262v-1733h-131v1031q-108 -1 -192 30t-131 77t-77.5 106.5t-40.5 110.5t-10 98z" />
<glyph unicode="&#xb7;" horiz-adv-x="569" d="M276 627l43 194h175l-41 -194h-177z" />
<glyph unicode="&#xb8;" horiz-adv-x="681" d="M49 -395l51 88q66 -12 105 -12q198 0 198 92q0 41 -45 60.5t-112 21.5l65 163h95l-41 -104q41 -1 71.5 -13t46 -28t24.5 -37t11 -35t2 -28q0 -77 -79 -131t-220 -54q-53 0 -172 17z" />
<glyph unicode="&#xb9;" horiz-adv-x="681" d="M260 1208l16 86q186 55 297 197h74l-160 -746h-104l127 586l-4 4q-56 -50 -97 -71t-149 -56z" />
<glyph unicode="&#xba;" horiz-adv-x="684" d="M147 1049q0 28 7 67t21.5 90.5t43.5 100.5t67.5 91t98 67.5t131.5 25.5q125 0 205 -79.5t80 -225.5q0 -78 -25.5 -155.5t-72 -143t-121 -106t-164.5 -40.5q-117 0 -194 79t-77 229zM246 1032q0 -107 45.5 -160t126.5 -53q63 0 114 30t81.5 75t51.5 100.5t29 102.5t8 85 q0 94 -48.5 147.5t-133.5 53.5q-54 0 -99 -23t-73.5 -60.5t-49.5 -80.5t-31.5 -87.5t-15.5 -76.5t-5 -53z" />
<glyph unicode="&#xbb;" d="M104 72l365 454l-143 451h100l178 -477l-381 -428h-119zM502 72l364 442l-151 463h96l193 -477l-386 -428h-116z" />
<glyph unicode="&#xbc;" horiz-adv-x="1708" d="M199 -57l1407 1548h118l-1407 -1548h-118zM342 1208l16 86q186 55 297 197h74l-160 -746h-104l127 586l-4 4q-56 -50 -97 -71t-149 -56zM1036 141l17 78l520 494h80l-99 -494h115l-16 -78h-117l-35 -172h-106l37 172h-396zM1174 219h274l61 309l-4 4z" />
<glyph unicode="&#xbd;" horiz-adv-x="1708" d="M199 -57l1407 1548h118l-1407 -1548h-118zM342 1208l16 86q186 55 297 197h74l-160 -746h-104l127 586l-4 4q-56 -50 -97 -71t-149 -56zM1049 -31q13 48 28.5 81t48.5 75.5t91.5 89t148.5 102.5q123 77 158 111.5t35 83.5q0 50 -47.5 84.5t-114.5 34.5q-43 0 -74 -10 t-52 -31t-33 -39t-26 -49l-100 8q8 25 16 43t31.5 52t52.5 55.5t80.5 39t114.5 17.5q124 0 191 -62.5t67 -142.5q0 -44 -18.5 -83t-58 -75t-78 -62.5t-99.5 -62.5q-108 -64 -143.5 -95.5t-63.5 -78.5h395l-18 -86h-532z" />
<glyph unicode="&#xbe;" horiz-adv-x="1708" d="M211 936l113 12q10 -26 15.5 -38.5t20 -34.5t31 -33t45.5 -20t66 -9q66 0 118 39t52 106q0 142 -203 127l18 80l56 -2q71 0 119.5 41.5t48.5 87.5q0 7 -1.5 17t-9.5 28.5t-22.5 33t-43.5 25.5t-69 11q-36 0 -64 -7.5t-44.5 -17t-31 -29t-20.5 -30.5t-16 -35l-100 19 q7 18 15 35t30.5 46.5t51 50.5t77.5 37.5t108 16.5q115 0 180.5 -59.5t65.5 -135.5q0 -33 -11.5 -60.5t-26 -44t-41.5 -32.5t-42 -22t-43 -17q21 -8 33.5 -14t32 -19.5t31 -28.5t20 -40.5t8.5 -56.5q0 -50 -19 -91.5t-48 -67.5t-67 -44t-73.5 -25.5t-68.5 -7.5 q-61 0 -111.5 18t-79.5 40t-52.5 56.5t-31 52t-16.5 42.5zM313 -57l1407 1548h119l-1407 -1548h-119zM1036 141l17 78l520 494h80l-99 -494h115l-16 -78h-117l-35 -172h-106l37 172h-396zM1174 219h274l61 309l-4 4z" />
<glyph unicode="&#xbf;" horiz-adv-x="1024" d="M51 -88q0 79 35.5 151.5t95 134.5t156.5 136q62 47 106.5 86t72.5 72.5t44.5 56t25 51.5t10.5 44.5t5 47.5h127q-8 -61 -19 -101t-39 -92.5t-80.5 -107.5t-135.5 -121q-76 -61 -119.5 -99.5t-82 -82.5t-54 -84.5t-15.5 -87.5q0 -99 72.5 -169.5t187.5 -70.5 q242 0 310 310l118 -21q-7 -28 -10 -40.5t-15 -49t-22.5 -58t-31.5 -57.5t-42.5 -58.5t-55 -50.5t-70.5 -43.5t-87 -26.5t-106 -11q-164 0 -272.5 99t-108.5 243zM606 862l41 199h172l-43 -199h-170z" />
<glyph unicode="&#xc0;" horiz-adv-x="1366" d="M-20 0l880 1466h148l268 -1466h-150l-69 438h-672l-264 -438h-141zM457 555h581l-125 766zM741 1835h184l101 -262h-101z" />
<glyph unicode="&#xc1;" horiz-adv-x="1366" d="M-20 0l880 1466h148l268 -1466h-150l-69 438h-672l-264 -438h-141zM457 555h581l-125 766zM817 1573l170 262h207l-273 -262h-104z" />
<glyph unicode="&#xc2;" horiz-adv-x="1366" d="M-20 0l880 1466h148l268 -1466h-150l-69 438h-672l-264 -438h-141zM457 555h581l-125 766zM626 1573l264 262h170l125 -262h-125l-88 185l-188 -185h-158z" />
<glyph unicode="&#xc3;" horiz-adv-x="1366" d="M-20 0l880 1466h148l268 -1466h-150l-69 438h-672l-264 -438h-141zM457 555h581l-125 766zM614 1604q10 25 16.5 39.5t25 45.5t36.5 49.5t47 34t61 15.5q58 0 113 -24l80 -27q49 -16 65 -16q32 0 48.5 17.5t29.5 49.5h109q-16 -55 -39.5 -94t-49.5 -58t-47.5 -26.5 t-41.5 -7.5q-32 0 -91 20l-94 31q-1 0 -17 4.5t-36 9.5t-31 5q-18 0 -35 -12.5t-26 -24t-21 -31.5h-102z" />
<glyph unicode="&#xc4;" horiz-adv-x="1366" d="M-20 0l880 1466h148l268 -1466h-150l-69 438h-672l-264 -438h-141zM457 555h581l-125 766zM671 1581l37 174h127l-37 -174h-127zM1017 1581l37 174h127l-37 -174h-127z" />
<glyph unicode="&#xc5;" horiz-adv-x="1366" d="M-20 0l880 1466h148l268 -1466h-150l-69 438h-672l-264 -438h-141zM457 555h581l-125 766zM770 1721q0 75 53.5 127.5t128.5 52.5t128 -52.5t53 -127.5t-53 -129t-128 -54t-128.5 54t-53.5 129zM840 1721q0 -46 33 -79.5t79 -33.5t78.5 33.5t32.5 79.5t-32.5 78t-78.5 32 t-79 -32t-33 -78z" />
<glyph unicode="&#xc6;" horiz-adv-x="2048" d="M-25 0l951 1466h1200l-27 -116h-764l-116 -535h747l-22 -117h-750l-127 -581h844l-23 -117h-983l96 444h-587l-287 -444h-152zM487 561h539l172 789h-194z" />
<glyph unicode="&#xc7;" horiz-adv-x="1478" d="M182 596q0 123 28.5 246.5t90 241t149 207.5t216 145t280.5 55q29 0 60 -2.5t83.5 -13t99 -28t99.5 -52.5t93 -82t71 -119.5t41 -161.5l-135 -14q-13 80 -44.5 143t-71.5 102t-90 65t-97.5 36t-96.5 10q-117 0 -219.5 -42.5t-178.5 -117t-131 -173t-82.5 -213.5 t-27.5 -236q0 -116 31 -207t77.5 -145t108.5 -88.5t117.5 -47t110.5 -12.5q74 0 149 24t147 72.5t131.5 132t92.5 191.5l137 -25q-42 -111 -100 -199t-121.5 -145t-136.5 -95.5t-142 -55t-141 -17.5l-28 -55q172 -30 172 -153q0 -58 -43 -105q-50 -55 -129.5 -74.5 t-196.5 -19.5q-47 0 -149 10l49 88q43 -2 77 -2h44.5t45 1.5t46.5 4t41 7t38.5 11.5t28.5 17t20.5 24.5t6.5 32.5q0 22 -8 38.5t-24 27t-32.5 17t-40.5 10t-41 4.5t-41 2l60 121q-126 16 -223 72t-155 140.5t-87 185.5t-29 216z" />
<glyph unicode="&#xc8;" horiz-adv-x="1251" d="M106 0l316 1466h905l-24 -116h-768l-115 -535h747l-20 -117h-752l-127 -581h840l-18 -117h-984zM684 1835h184l101 -262h-101z" />
<glyph unicode="&#xc9;" horiz-adv-x="1251" d="M106 0l316 1466h905l-24 -116h-768l-115 -535h747l-20 -117h-752l-127 -581h840l-18 -117h-984zM760 1573l170 262h207l-273 -262h-104z" />
<glyph unicode="&#xca;" horiz-adv-x="1251" d="M106 0l316 1466h905l-24 -116h-768l-115 -535h747l-20 -117h-752l-127 -581h840l-18 -117h-984zM590 1573l264 262h170l125 -262h-125l-88 185l-188 -185h-158z" />
<glyph unicode="&#xcb;" horiz-adv-x="1251" d="M106 0l316 1466h905l-24 -116h-768l-115 -535h747l-20 -117h-752l-127 -581h840l-18 -117h-984zM635 1581l37 174h127l-37 -174h-127zM981 1581l37 174h127l-37 -174h-127z" />
<glyph unicode="&#xcc;" horiz-adv-x="569" d="M137 0l324 1466h137l-324 -1466h-137zM344 1835h184l101 -262h-101z" />
<glyph unicode="&#xcd;" horiz-adv-x="569" d="M137 0l324 1466h137l-324 -1466h-137zM420 1573l170 262h207l-273 -262h-104z" />
<glyph unicode="&#xce;" horiz-adv-x="569" d="M137 0l324 1466h137l-324 -1466h-137zM250 1573l264 262h170l125 -262h-125l-88 185l-188 -185h-158z" />
<glyph unicode="&#xcf;" horiz-adv-x="569" d="M137 0l324 1466h137l-324 -1466h-137zM295 1581l37 174h127l-37 -174h-127zM641 1581l37 174h127l-37 -174h-127z" />
<glyph unicode="&#xd0;" horiz-adv-x="1478" d="M94 676l29 117h164l143 673h424q215 0 320 -51q55 -27 103 -70.5t92 -109.5t69.5 -162t25.5 -209q0 -242 -110.5 -449.5t-274.5 -310.5q-170 -104 -436 -104h-530l147 676h-166zM276 117h355q62 0 106 3t119.5 22t138.5 55q132 75 232 264t100 422q0 299 -197 405 q-113 62 -305 62h-282l-119 -557h403l-24 -117h-406z" />
<glyph unicode="&#xd1;" horiz-adv-x="1478" d="M111 0l315 1466h143l559 -1294h7l274 1294h127l-311 -1466h-154l-553 1284h-4l-276 -1284h-127zM672 1604q10 25 16.5 39.5t25 45.5t36.5 49.5t47 34t61 15.5q58 0 113 -24l80 -27q49 -16 65 -16q32 0 48.5 17.5t29.5 49.5h109q-16 -55 -39.5 -94t-49.5 -58t-47.5 -26.5 t-41.5 -7.5q-32 0 -91 20l-94 31q-1 0 -17 4.5t-36 9.5t-31 5q-18 0 -35 -12.5t-26 -24t-21 -31.5h-102z" />
<glyph unicode="&#xd2;" horiz-adv-x="1593" d="M201 602q0 128 30 253.5t94 240.5t153.5 203t218 140t278.5 52q273 0 435.5 -170.5t162.5 -464.5q0 -119 -28.5 -239.5t-90 -236.5t-149.5 -205.5t-217.5 -144.5t-282.5 -55q-105 0 -193 24.5t-149 64t-108.5 94.5t-76 111.5t-46.5 119.5t-24.5 114t-6.5 99zM338 600 q0 -110 28 -199t73.5 -147t106.5 -96.5t124.5 -55t130.5 -16.5q114 0 211.5 39t165 105.5t119 148.5t81 174t44 176t14.5 160q0 133 -53.5 243.5t-159.5 179t-246 68.5q-108 0 -200 -34.5t-156 -90.5t-115 -130t-81.5 -148t-51 -150t-28 -131.5t-7.5 -95.5zM856 1835h184 l101 -262h-101z" />
<glyph unicode="&#xd3;" horiz-adv-x="1593" d="M201 602q0 128 30 253.5t94 240.5t153.5 203t218 140t278.5 52q273 0 435.5 -170.5t162.5 -464.5q0 -119 -28.5 -239.5t-90 -236.5t-149.5 -205.5t-217.5 -144.5t-282.5 -55q-105 0 -193 24.5t-149 64t-108.5 94.5t-76 111.5t-46.5 119.5t-24.5 114t-6.5 99zM338 600 q0 -110 28 -199t73.5 -147t106.5 -96.5t124.5 -55t130.5 -16.5q114 0 211.5 39t165 105.5t119 148.5t81 174t44 176t14.5 160q0 133 -53.5 243.5t-159.5 179t-246 68.5q-108 0 -200 -34.5t-156 -90.5t-115 -130t-81.5 -148t-51 -150t-28 -131.5t-7.5 -95.5zM932 1573 l170 262h207l-273 -262h-104z" />
<glyph unicode="&#xd4;" horiz-adv-x="1593" d="M201 602q0 128 30 253.5t94 240.5t153.5 203t218 140t278.5 52q273 0 435.5 -170.5t162.5 -464.5q0 -119 -28.5 -239.5t-90 -236.5t-149.5 -205.5t-217.5 -144.5t-282.5 -55q-105 0 -193 24.5t-149 64t-108.5 94.5t-76 111.5t-46.5 119.5t-24.5 114t-6.5 99zM338 600 q0 -110 28 -199t73.5 -147t106.5 -96.5t124.5 -55t130.5 -16.5q114 0 211.5 39t165 105.5t119 148.5t81 174t44 176t14.5 160q0 133 -53.5 243.5t-159.5 179t-246 68.5q-108 0 -200 -34.5t-156 -90.5t-115 -130t-81.5 -148t-51 -150t-28 -131.5t-7.5 -95.5zM762 1573 l264 262h170l125 -262h-125l-88 185l-188 -185h-158z" />
<glyph unicode="&#xd5;" horiz-adv-x="1593" d="M201 602q0 128 30 253.5t94 240.5t153.5 203t218 140t278.5 52q273 0 435.5 -170.5t162.5 -464.5q0 -119 -28.5 -239.5t-90 -236.5t-149.5 -205.5t-217.5 -144.5t-282.5 -55q-105 0 -193 24.5t-149 64t-108.5 94.5t-76 111.5t-46.5 119.5t-24.5 114t-6.5 99zM338 600 q0 -110 28 -199t73.5 -147t106.5 -96.5t124.5 -55t130.5 -16.5q114 0 211.5 39t165 105.5t119 148.5t81 174t44 176t14.5 160q0 133 -53.5 243.5t-159.5 179t-246 68.5q-108 0 -200 -34.5t-156 -90.5t-115 -130t-81.5 -148t-51 -150t-28 -131.5t-7.5 -95.5zM729 1604 q10 25 16.5 39.5t25 45.5t36.5 49.5t47 34t61 15.5q58 0 113 -24l80 -27q49 -16 65 -16q32 0 48.5 17.5t29.5 49.5h109q-16 -55 -39.5 -94t-49.5 -58t-47.5 -26.5t-41.5 -7.5q-32 0 -91 20l-94 31q-1 0 -17 4.5t-36 9.5t-31 5q-18 0 -35 -12.5t-26 -24t-21 -31.5h-102z" />
<glyph unicode="&#xd6;" horiz-adv-x="1593" d="M201 602q0 128 30 253.5t94 240.5t153.5 203t218 140t278.5 52q273 0 435.5 -170.5t162.5 -464.5q0 -119 -28.5 -239.5t-90 -236.5t-149.5 -205.5t-217.5 -144.5t-282.5 -55q-105 0 -193 24.5t-149 64t-108.5 94.5t-76 111.5t-46.5 119.5t-24.5 114t-6.5 99zM338 600 q0 -110 28 -199t73.5 -147t106.5 -96.5t124.5 -55t130.5 -16.5q114 0 211.5 39t165 105.5t119 148.5t81 174t44 176t14.5 160q0 133 -53.5 243.5t-159.5 179t-246 68.5q-108 0 -200 -34.5t-156 -90.5t-115 -130t-81.5 -148t-51 -150t-28 -131.5t-7.5 -95.5zM786 1581l37 174 h127l-37 -174h-127zM1132 1581l37 174h127l-37 -174h-127z" />
<glyph unicode="&#xd7;" horiz-adv-x="1351" d="M283 319l399 400l-399 397l65 66l400 -398l399 398l65 -66l-397 -397l397 -400l-65 -65l-399 399l-400 -399z" />
<glyph unicode="&#xd8;" horiz-adv-x="1593" d="M201 623q0 113 28 230.5t90.5 232.5t150.5 204.5t219 145t286 55.5q97 0 179.5 -22.5t122 -45.5t83.5 -57l121 141l69 -61l-123 -146q50 -58 82.5 -131.5t44.5 -143.5t15.5 -107t3.5 -68q0 -119 -29 -239.5t-91.5 -235.5t-150.5 -203.5t-217 -142.5t-280 -54 q-237 0 -389 123l-123 -143l-68 59l125 150q-83 94 -116 219.5t-33 239.5zM338 582q0 -188 94 -320l848 1008q-128 110 -303 110q-102 0 -190 -31.5t-152 -83.5t-116 -121.5t-85 -143.5t-55 -151.5t-31.5 -144t-9.5 -122.5zM496 195q125 -109 303 -109q98 0 184.5 29.5 t150 79t115.5 117t86 140.5t57.5 151t33.5 148.5t10 133.5q0 83 -24 169t-69 146z" />
<glyph unicode="&#xd9;" horiz-adv-x="1478" d="M209 397q0 63 18 150l197 919h137l-176 -815q-39 -182 -39 -262q0 -56 17.5 -102.5t44.5 -77.5t64 -54.5t72 -36t73.5 -20.5t63.5 -10t46 -2q112 0 208.5 46t156.5 128q32 43 57 108.5t35 109t28 126.5l185 862h137l-193 -901q-64 -299 -190 -420q-177 -170 -446 -170 q-97 0 -180 25t-140 67t-97.5 97t-59.5 114t-19 119zM799 1835h184l101 -262h-101z" />
<glyph unicode="&#xda;" horiz-adv-x="1478" d="M209 397q0 63 18 150l197 919h137l-176 -815q-39 -182 -39 -262q0 -56 17.5 -102.5t44.5 -77.5t64 -54.5t72 -36t73.5 -20.5t63.5 -10t46 -2q112 0 208.5 46t156.5 128q32 43 57 108.5t35 109t28 126.5l185 862h137l-193 -901q-64 -299 -190 -420q-177 -170 -446 -170 q-97 0 -180 25t-140 67t-97.5 97t-59.5 114t-19 119zM875 1573l170 262h207l-273 -262h-104z" />
<glyph unicode="&#xdb;" horiz-adv-x="1478" d="M209 397q0 63 18 150l197 919h137l-176 -815q-39 -182 -39 -262q0 -56 17.5 -102.5t44.5 -77.5t64 -54.5t72 -36t73.5 -20.5t63.5 -10t46 -2q112 0 208.5 46t156.5 128q32 43 57 108.5t35 109t28 126.5l185 862h137l-193 -901q-64 -299 -190 -420q-177 -170 -446 -170 q-97 0 -180 25t-140 67t-97.5 97t-59.5 114t-19 119zM684 1573l264 262h170l125 -262h-125l-88 185l-188 -185h-158z" />
<glyph unicode="&#xdc;" horiz-adv-x="1478" d="M209 397q0 63 18 150l197 919h137l-176 -815q-39 -182 -39 -262q0 -56 17.5 -102.5t44.5 -77.5t64 -54.5t72 -36t73.5 -20.5t63.5 -10t46 -2q112 0 208.5 46t156.5 128q32 43 57 108.5t35 109t28 126.5l185 862h137l-193 -901q-64 -299 -190 -420q-177 -170 -446 -170 q-97 0 -180 25t-140 67t-97.5 97t-59.5 114t-19 119zM729 1581l37 174h127l-37 -174h-127zM1075 1581l37 174h127l-37 -174h-127z" />
<glyph unicode="&#xdd;" horiz-adv-x="1251" d="M242 1466h145l365 -786l610 786h168l-739 -909l-117 -557h-137l120 571zM760 1573l170 262h207l-273 -262h-104z" />
<glyph unicode="&#xde;" horiz-adv-x="1251" d="M102 0l314 1466h137l-64 -292h261q153 0 230.5 -18.5t133.5 -61.5q62 -48 94.5 -124t32.5 -161q0 -83 -32.5 -170t-100 -162.5t-156.5 -109.5q-91 -33 -327 -33h-316l-69 -334h-138zM336 451h282q198 0 279 28q57 19 99.5 60t64.5 91.5t32.5 97.5t10.5 89q0 70 -23.5 117 t-53.5 71t-94.5 36.5t-107.5 14t-131 1.5h-6h-223z" />
<glyph unicode="&#xdf;" horiz-adv-x="1024" d="M51 0l230 1032q45 198 96 283q49 79 143 127.5t197 48.5q136 0 211.5 -66t75.5 -170q0 -71 -40 -136t-200 -266q-3 -3 -4 -5q-37 -52 -37 -76q0 -23 20 -49.5t95 -101.5q91 -91 123 -160.5t32 -147.5q0 -139 -96.5 -238.5t-241.5 -99.5q-51 0 -97 15t-74 33t-57 49 t-39.5 46.5t-27.5 41.5l103 71q13 -21 22.5 -35.5t29 -37t38.5 -36.5t46.5 -25t57.5 -11q86 0 148.5 67.5t62.5 157.5q0 28 -4.5 51t-30.5 68t-75 94q-99 99 -131.5 145.5t-32.5 108.5q0 40 24.5 81t114.5 147q73 87 109.5 146t36.5 110q0 59 -50.5 91.5t-123.5 32.5 q-173 0 -251 -189q-27 -66 -59 -210l-219 -987h-125z" />
<glyph unicode="&#xe0;" d="M113 268q0 127 80 211q64 67 146.5 93t250.5 34q113 5 184.5 13t97 14.5t62.5 19.5l10 43q14 49 14 99q0 93 -79.5 143.5t-208.5 50.5q-59 0 -108 -11t-81.5 -31t-56 -41t-39.5 -50t-23.5 -47t-15.5 -43l-123 10q11 33 19.5 53.5t28 56.5t40.5 60t57 52.5t79 45.5 t104.5 29t134.5 12q101 0 179 -23.5t123.5 -63t68 -88t22.5 -103.5q0 -37 -14 -111l-88 -432q-21 -105 -21 -149q0 -40 21 -115h-135q-15 59 -15 137q-22 -23 -36.5 -37t-52.5 -40.5t-75.5 -42.5t-97 -29t-125.5 -13q-79 0 -139.5 22t-95 54t-56.5 74t-29 76t-7 67zM238 283 q0 -92 67.5 -151.5t169.5 -59.5q39 0 81 8t94.5 32t96 61t81.5 101t55 146l28 133q-119 -28 -331 -43q-137 -11 -203 -36q-139 -54 -139 -191zM567 1466h184l101 -262h-101z" />
<glyph unicode="&#xe1;" d="M113 268q0 127 80 211q64 67 146.5 93t250.5 34q113 5 184.5 13t97 14.5t62.5 19.5l10 43q14 49 14 99q0 93 -79.5 143.5t-208.5 50.5q-59 0 -108 -11t-81.5 -31t-56 -41t-39.5 -50t-23.5 -47t-15.5 -43l-123 10q11 33 19.5 53.5t28 56.5t40.5 60t57 52.5t79 45.5 t104.5 29t134.5 12q101 0 179 -23.5t123.5 -63t68 -88t22.5 -103.5q0 -37 -14 -111l-88 -432q-21 -105 -21 -149q0 -40 21 -115h-135q-15 59 -15 137q-22 -23 -36.5 -37t-52.5 -40.5t-75.5 -42.5t-97 -29t-125.5 -13q-79 0 -139.5 22t-95 54t-56.5 74t-29 76t-7 67zM238 283 q0 -92 67.5 -151.5t169.5 -59.5q39 0 81 8t94.5 32t96 61t81.5 101t55 146l28 133q-119 -28 -331 -43q-137 -11 -203 -36q-139 -54 -139 -191zM643 1204l170 262h207l-273 -262h-104z" />
<glyph unicode="&#xe2;" d="M113 268q0 127 80 211q64 67 146.5 93t250.5 34q113 5 184.5 13t97 14.5t62.5 19.5l10 43q14 49 14 99q0 93 -79.5 143.5t-208.5 50.5q-59 0 -108 -11t-81.5 -31t-56 -41t-39.5 -50t-23.5 -47t-15.5 -43l-123 10q11 33 19.5 53.5t28 56.5t40.5 60t57 52.5t79 45.5 t104.5 29t134.5 12q101 0 179 -23.5t123.5 -63t68 -88t22.5 -103.5q0 -37 -14 -111l-88 -432q-21 -105 -21 -149q0 -40 21 -115h-135q-15 59 -15 137q-22 -23 -36.5 -37t-52.5 -40.5t-75.5 -42.5t-97 -29t-125.5 -13q-79 0 -139.5 22t-95 54t-56.5 74t-29 76t-7 67zM238 283 q0 -92 67.5 -151.5t169.5 -59.5q39 0 81 8t94.5 32t96 61t81.5 101t55 146l28 133q-119 -28 -331 -43q-137 -11 -203 -36q-139 -54 -139 -191zM452 1204l264 262h170l125 -262h-125l-88 185l-188 -185h-158z" />
<glyph unicode="&#xe3;" d="M113 268q0 127 80 211q64 67 146.5 93t250.5 34q113 5 184.5 13t97 14.5t62.5 19.5l10 43q14 49 14 99q0 93 -79.5 143.5t-208.5 50.5q-59 0 -108 -11t-81.5 -31t-56 -41t-39.5 -50t-23.5 -47t-15.5 -43l-123 10q11 33 19.5 53.5t28 56.5t40.5 60t57 52.5t79 45.5 t104.5 29t134.5 12q101 0 179 -23.5t123.5 -63t68 -88t22.5 -103.5q0 -37 -14 -111l-88 -432q-21 -105 -21 -149q0 -40 21 -115h-135q-15 59 -15 137q-22 -23 -36.5 -37t-52.5 -40.5t-75.5 -42.5t-97 -29t-125.5 -13q-79 0 -139.5 22t-95 54t-56.5 74t-29 76t-7 67zM238 283 q0 -92 67.5 -151.5t169.5 -59.5q39 0 81 8t94.5 32t96 61t81.5 101t55 146l28 133q-119 -28 -331 -43q-137 -11 -203 -36q-139 -54 -139 -191zM440 1235q10 25 16.5 39.5t25 45.5t36.5 49.5t47 34t61 15.5q58 0 113 -24l80 -27q49 -16 65 -16q32 0 48.5 17.5t29.5 49.5h109 q-16 -55 -39.5 -94t-49.5 -58t-47.5 -26.5t-41.5 -7.5q-32 0 -91 20l-94 31q-1 0 -17 5t-36 9.5t-31 4.5q-18 0 -35 -12.5t-26 -24t-21 -31.5h-102z" />
<glyph unicode="&#xe4;" d="M113 268q0 127 80 211q64 67 146.5 93t250.5 34q113 5 184.5 13t97 14.5t62.5 19.5l10 43q14 49 14 99q0 93 -79.5 143.5t-208.5 50.5q-59 0 -108 -11t-81.5 -31t-56 -41t-39.5 -50t-23.5 -47t-15.5 -43l-123 10q11 33 19.5 53.5t28 56.5t40.5 60t57 52.5t79 45.5 t104.5 29t134.5 12q101 0 179 -23.5t123.5 -63t68 -88t22.5 -103.5q0 -37 -14 -111l-88 -432q-21 -105 -21 -149q0 -40 21 -115h-135q-15 59 -15 137q-22 -23 -36.5 -37t-52.5 -40.5t-75.5 -42.5t-97 -29t-125.5 -13q-79 0 -139.5 22t-95 54t-56.5 74t-29 76t-7 67zM238 283 q0 -92 67.5 -151.5t169.5 -59.5q39 0 81 8t94.5 32t96 61t81.5 101t55 146l28 133q-119 -28 -331 -43q-137 -11 -203 -36q-139 -54 -139 -191zM497 1212l37 174h127l-37 -174h-127zM843 1212l37 174h127l-37 -174h-127z" />
<glyph unicode="&#xe5;" d="M113 268q0 127 80 211q64 67 146.5 93t250.5 34q113 5 184.5 13t97 14.5t62.5 19.5l10 43q14 49 14 99q0 93 -79.5 143.5t-208.5 50.5q-59 0 -108 -11t-81.5 -31t-56 -41t-39.5 -50t-23.5 -47t-15.5 -43l-123 10q11 33 19.5 53.5t28 56.5t40.5 60t57 52.5t79 45.5 t104.5 29t134.5 12q101 0 179 -23.5t123.5 -63t68 -88t22.5 -103.5q0 -37 -14 -111l-88 -432q-21 -105 -21 -149q0 -40 21 -115h-135q-15 59 -15 137q-22 -23 -36.5 -37t-52.5 -40.5t-75.5 -42.5t-97 -29t-125.5 -13q-79 0 -139.5 22t-95 54t-56.5 74t-29 76t-7 67zM238 283 q0 -92 67.5 -151.5t169.5 -59.5q39 0 81 8t94.5 32t96 61t81.5 101t55 146l28 133q-119 -28 -331 -43q-137 -11 -203 -36q-139 -54 -139 -191zM616 1352q0 75 53.5 127.5t128.5 52.5t128 -52.5t53 -127.5t-53 -129t-128 -54t-128.5 54t-53.5 129zM686 1352q0 -46 33 -79.5 t79 -33.5t78.5 33.5t32.5 79.5t-32.5 78t-78.5 32t-79 -32t-33 -78z" />
<glyph unicode="&#xe6;" horiz-adv-x="1820" d="M115 268q0 56 18.5 113t50.5 96q48 61 133.5 92t280.5 39q93 4 154.5 10.5t84 11t60.5 15.5q25 85 25 139q0 37 -13 72t-40 66.5t-77 51t-116 19.5q-76 0 -135.5 -18t-91.5 -40.5t-56.5 -59t-31.5 -55.5t-15 -48l-123 6q34 123 96 183q63 60 158.5 92t192.5 32 q246 0 360 -170q21 25 36 41t48.5 43.5t67.5 43.5t87 29t113 13q173 0 277 -111.5t104 -332.5q0 -73 -6 -127h-762q-14 -110 -14 -152q0 -122 72 -205t188 -83q209 0 342 252l123 -15q-39 -87 -86.5 -151t-91 -98.5t-94.5 -55t-89 -26t-83 -5.5q-279 0 -373 256 q-73 -129 -187 -192.5t-253 -63.5q-82 0 -147.5 25.5t-105 68t-60.5 94t-21 105.5zM240 287q0 -25 5 -50.5t21 -56t41 -54t68.5 -39t99.5 -15.5q197 0 309 194q59 103 88 281q-96 -19 -135 -24t-129 -9q-30 -2 -42 -2.5t-47.5 -4t-55 -8t-53 -13.5t-53.5 -19.5t-45 -28 t-38.5 -38.5t-23.5 -50t-10 -63zM1016 610h631q4 68 -3.5 125t-23.5 95.5t-39 68.5t-47.5 47.5t-52 28.5t-49 14.5t-41.5 3.5q-113 0 -195 -65q-41 -32 -72.5 -72.5t-53 -90.5t-31 -77.5t-23.5 -77.5z" />
<glyph unicode="&#xe7;" d="M137 412q0 45 7.5 99t26.5 119.5t47.5 128t74 122.5t102.5 105t137 72t173 27q62 0 114.5 -13t88.5 -32t67 -49.5t49 -56t33.5 -62t22 -56.5t14.5 -50l-121 -12q-8 30 -15.5 51.5t-29.5 59.5t-50 62t-77 43t-111 19q-95 0 -171.5 -44t-123 -109.5t-78 -148t-43.5 -154 t-12 -132.5q0 -12 0.5 -26t6.5 -49t16.5 -65t32.5 -66.5t52.5 -62t80 -43t110.5 -17.5q33 0 66 5.5t76 23.5t80.5 47t75.5 81.5t65 122.5l123 -10q-39 -86 -77 -144t-93.5 -110.5t-133 -80.5t-178.5 -32l-30 -75q157 -36 157 -138q0 -63 -59.5 -110t-196.5 -47 q-87 0 -157 24l38 76q92 -18 127 -18q144 0 144 80q0 25 -22 47t-50 30q-23 4 -78 4l49 132q-79 8 -141.5 40.5t-100.5 78t-63.5 102.5t-35 108.5t-9.5 102.5z" />
<glyph unicode="&#xe8;" d="M137 408q0 81 18 168.5t60.5 179.5t104.5 164t159.5 118.5t216.5 46.5q185 0 288 -120.5t103 -313.5q0 -35 -10 -137h-807q0 -6 -4 -51t-4 -64q0 -56 17 -111.5t50.5 -105t91.5 -80t132 -30.5q109 0 190 65t148 185l135 -9q-32 -62 -62.5 -108t-73 -91.5t-89.5 -74.5 t-111.5 -46.5t-140.5 -17.5q-109 0 -182 29t-127 94q-103 126 -103 310zM293 610h670q7 98 -12.5 171.5t-50.5 112t-74.5 61.5t-74.5 28.5t-61 5.5q-95 0 -178 -49q-151 -93 -219 -330zM567 1466h184l101 -262h-101z" />
<glyph unicode="&#xe9;" d="M137 408q0 81 18 168.5t60.5 179.5t104.5 164t159.5 118.5t216.5 46.5q185 0 288 -120.5t103 -313.5q0 -35 -10 -137h-807q0 -6 -4 -51t-4 -64q0 -56 17 -111.5t50.5 -105t91.5 -80t132 -30.5q109 0 190 65t148 185l135 -9q-32 -62 -62.5 -108t-73 -91.5t-89.5 -74.5 t-111.5 -46.5t-140.5 -17.5q-109 0 -182 29t-127 94q-103 126 -103 310zM293 610h670q7 98 -12.5 171.5t-50.5 112t-74.5 61.5t-74.5 28.5t-61 5.5q-95 0 -178 -49q-151 -93 -219 -330zM643 1204l170 262h207l-273 -262h-104z" />
<glyph unicode="&#xea;" d="M137 408q0 81 18 168.5t60.5 179.5t104.5 164t159.5 118.5t216.5 46.5q185 0 288 -120.5t103 -313.5q0 -35 -10 -137h-807q0 -6 -4 -51t-4 -64q0 -56 17 -111.5t50.5 -105t91.5 -80t132 -30.5q109 0 190 65t148 185l135 -9q-32 -62 -62.5 -108t-73 -91.5t-89.5 -74.5 t-111.5 -46.5t-140.5 -17.5q-109 0 -182 29t-127 94q-103 126 -103 310zM293 610h670q7 98 -12.5 171.5t-50.5 112t-74.5 61.5t-74.5 28.5t-61 5.5q-95 0 -178 -49q-151 -93 -219 -330zM452 1204l264 262h170l125 -262h-125l-88 185l-188 -185h-158z" />
<glyph unicode="&#xeb;" d="M137 408q0 81 18 168.5t60.5 179.5t104.5 164t159.5 118.5t216.5 46.5q185 0 288 -120.5t103 -313.5q0 -35 -10 -137h-807q0 -6 -4 -51t-4 -64q0 -56 17 -111.5t50.5 -105t91.5 -80t132 -30.5q109 0 190 65t148 185l135 -9q-32 -62 -62.5 -108t-73 -91.5t-89.5 -74.5 t-111.5 -46.5t-140.5 -17.5q-109 0 -182 29t-127 94q-103 126 -103 310zM293 610h670q7 98 -12.5 171.5t-50.5 112t-74.5 61.5t-74.5 28.5t-61 5.5q-95 0 -178 -49q-151 -93 -219 -330zM497 1212l37 174h127l-37 -174h-127zM843 1212l37 174h127l-37 -174h-127z" />
<glyph unicode="&#xec;" horiz-adv-x="454" d="M96 0l226 1061h124l-225 -1061h-125zM225 1466h184l101 -262h-101z" />
<glyph unicode="&#xed;" horiz-adv-x="454" d="M96 0l226 1061h124l-225 -1061h-125zM301 1204l170 262h207l-273 -262h-104z" />
<glyph unicode="&#xee;" horiz-adv-x="454" d="M96 0l226 1061h124l-225 -1061h-125zM110 1204l264 262h170l125 -262h-125l-88 185l-188 -185h-158z" />
<glyph unicode="&#xef;" horiz-adv-x="454" d="M96 0l226 1061h124l-225 -1061h-125zM155 1212l37 174h127l-37 -174h-127zM501 1212l37 174h127l-37 -174h-127z" />
<glyph unicode="&#xf0;" d="M131 399q0 88 20.5 180.5t64 181t103.5 157.5t146.5 111t185.5 42q147 0 260 -96l4 4q-36 114 -53.5 157t-64.5 128l-293 -105l-29 82l270 100q-43 62 -96 125h125q38 -45 70 -88l239 88l29 -88l-217 -75q203 -313 203 -644q0 -70 -12.5 -144t-38 -152t-70.5 -146.5 t-104.5 -123.5t-145 -86.5t-186.5 -31.5q-219 0 -316 127q-94 124 -94 297zM256 422q0 -95 27 -166t71.5 -109.5t93.5 -56.5t101 -18q81 0 152 37.5t120 98t84 136t51.5 150.5t16.5 143q0 160 -85.5 249t-207.5 89q-79 0 -149 -33.5t-119 -89.5t-85 -127.5t-53.5 -149 t-17.5 -153.5z" />
<glyph unicode="&#xf1;" d="M90 0l229 1061h123l-39 -191l5 -4q163 219 387 219q63 0 113 -16.5t81.5 -43t52 -62.5t29 -73.5t8.5 -78.5q0 -68 -18 -156l-141 -655h-125l143 662q16 80 16 129q0 87 -54.5 132.5t-137.5 45.5q-88 0 -166.5 -44.5t-134.5 -115.5q-51 -63 -90.5 -164.5t-59.5 -195.5 l-96 -449h-125zM440 1235q10 25 16.5 39.5t25 45.5t36.5 49.5t47 34t61 15.5q58 0 113 -24l80 -27q49 -16 65 -16q32 0 48.5 17.5t29.5 49.5h109q-16 -55 -39.5 -94t-49.5 -58t-47.5 -26.5t-41.5 -7.5q-32 0 -91 20l-94 31q-1 0 -17 5t-36 9.5t-31 4.5q-18 0 -35 -12.5 t-26 -24t-21 -31.5h-102z" />
<glyph unicode="&#xf2;" d="M135 399q0 68 12.5 141t38 151.5t70 147.5t103 125t143 88.5t184.5 32.5q188 0 301 -114t113 -328q0 -79 -17 -163.5t-59 -176.5t-103.5 -163.5t-161 -118t-222.5 -46.5q-70 0 -129 16.5t-99.5 43t-72 63.5t-50.5 75t-31 80.5t-16 77.5t-4 68zM260 412q0 -46 8.5 -90.5 t30 -90.5t53.5 -80.5t83.5 -56.5t115.5 -22q85 0 157 40t120 103.5t82 143t49.5 157.5t15.5 148q0 152 -85.5 238.5t-203.5 86.5q-73 0 -136.5 -28.5t-109 -76t-81 -107.5t-56.5 -125.5t-32 -126t-11 -113.5zM567 1466h184l101 -262h-101z" />
<glyph unicode="&#xf3;" d="M135 399q0 68 12.5 141t38 151.5t70 147.5t103 125t143 88.5t184.5 32.5q188 0 301 -114t113 -328q0 -79 -17 -163.5t-59 -176.5t-103.5 -163.5t-161 -118t-222.5 -46.5q-70 0 -129 16.5t-99.5 43t-72 63.5t-50.5 75t-31 80.5t-16 77.5t-4 68zM260 412q0 -46 8.5 -90.5 t30 -90.5t53.5 -80.5t83.5 -56.5t115.5 -22q85 0 157 40t120 103.5t82 143t49.5 157.5t15.5 148q0 152 -85.5 238.5t-203.5 86.5q-73 0 -136.5 -28.5t-109 -76t-81 -107.5t-56.5 -125.5t-32 -126t-11 -113.5zM643 1204l170 262h207l-273 -262h-104z" />
<glyph unicode="&#xf4;" d="M135 399q0 68 12.5 141t38 151.5t70 147.5t103 125t143 88.5t184.5 32.5q188 0 301 -114t113 -328q0 -79 -17 -163.5t-59 -176.5t-103.5 -163.5t-161 -118t-222.5 -46.5q-70 0 -129 16.5t-99.5 43t-72 63.5t-50.5 75t-31 80.5t-16 77.5t-4 68zM260 412q0 -46 8.5 -90.5 t30 -90.5t53.5 -80.5t83.5 -56.5t115.5 -22q85 0 157 40t120 103.5t82 143t49.5 157.5t15.5 148q0 152 -85.5 238.5t-203.5 86.5q-73 0 -136.5 -28.5t-109 -76t-81 -107.5t-56.5 -125.5t-32 -126t-11 -113.5zM452 1204l264 262h170l125 -262h-125l-88 185l-188 -185h-158z " />
<glyph unicode="&#xf5;" d="M135 399q0 68 12.5 141t38 151.5t70 147.5t103 125t143 88.5t184.5 32.5q188 0 301 -114t113 -328q0 -79 -17 -163.5t-59 -176.5t-103.5 -163.5t-161 -118t-222.5 -46.5q-70 0 -129 16.5t-99.5 43t-72 63.5t-50.5 75t-31 80.5t-16 77.5t-4 68zM260 412q0 -46 8.5 -90.5 t30 -90.5t53.5 -80.5t83.5 -56.5t115.5 -22q85 0 157 40t120 103.5t82 143t49.5 157.5t15.5 148q0 152 -85.5 238.5t-203.5 86.5q-73 0 -136.5 -28.5t-109 -76t-81 -107.5t-56.5 -125.5t-32 -126t-11 -113.5zM440 1235q10 25 16.5 39.5t25 45.5t36.5 49.5t47 34t61 15.5 q58 0 113 -24l80 -27q49 -16 65 -16q32 0 48.5 17.5t29.5 49.5h109q-16 -55 -39.5 -94t-49.5 -58t-47.5 -26.5t-41.5 -7.5q-32 0 -91 20l-94 31q-1 0 -17 5t-36 9.5t-31 4.5q-18 0 -35 -12.5t-26 -24t-21 -31.5h-102z" />
<glyph unicode="&#xf6;" d="M135 399q0 68 12.5 141t38 151.5t70 147.5t103 125t143 88.5t184.5 32.5q188 0 301 -114t113 -328q0 -79 -17 -163.5t-59 -176.5t-103.5 -163.5t-161 -118t-222.5 -46.5q-70 0 -129 16.5t-99.5 43t-72 63.5t-50.5 75t-31 80.5t-16 77.5t-4 68zM260 412q0 -46 8.5 -90.5 t30 -90.5t53.5 -80.5t83.5 -56.5t115.5 -22q85 0 157 40t120 103.5t82 143t49.5 157.5t15.5 148q0 152 -85.5 238.5t-203.5 86.5q-73 0 -136.5 -28.5t-109 -76t-81 -107.5t-56.5 -125.5t-32 -126t-11 -113.5zM497 1212l37 174h127l-37 -174h-127zM843 1212l37 174h127 l-37 -174h-127z" />
<glyph unicode="&#xf7;" horiz-adv-x="1351" d="M211 674v94h1073v-94h-1073zM674 305v148h147v-148h-147zM674 989v148h147v-148h-147z" />
<glyph unicode="&#xf8;" d="M59 16l136 140q-64 110 -64 260q0 58 12 126t37.5 144.5t70 146.5t103.5 127t145 91t187 34q67 0 122.5 -13t94 -37t53.5 -36t35 -32l119 118l57 -57l-127 -129q60 -102 60 -260q0 -75 -16.5 -158t-58 -175t-103 -164t-162 -119.5t-223.5 -47.5q-187 0 -291 113 l-129 -129zM256 410q0 -78 31 -162l620 633q-80 108 -221 108q-84 0 -156.5 -39t-121.5 -101.5t-84.5 -140t-51.5 -154t-16 -144.5zM328 174q82 -102 223 -102q85 0 157 40t120 103.5t82 143t49.5 157t15.5 146.5q0 90 -23 147z" />
<glyph unicode="&#xf9;" d="M156 250q0 59 20 156l143 655h125l-143 -660q-14 -65 -14 -131q0 -52 19 -89.5t49.5 -56t60 -26.5t59.5 -8q83 0 165 46t140 118q38 47 73.5 133.5t51 141t21.5 83.5l96 449h125l-229 -1061h-123l41 190l-5 5q-164 -220 -387 -220q-73 0 -128 22t-84.5 52.5t-47.5 71.5 t-23 71t-5 58zM567 1466h184l101 -262h-101z" />
<glyph unicode="&#xfa;" d="M156 250q0 59 20 156l143 655h125l-143 -660q-14 -65 -14 -131q0 -52 19 -89.5t49.5 -56t60 -26.5t59.5 -8q83 0 165 46t140 118q38 47 73.5 133.5t51 141t21.5 83.5l96 449h125l-229 -1061h-123l41 190l-5 5q-164 -220 -387 -220q-73 0 -128 22t-84.5 52.5t-47.5 71.5 t-23 71t-5 58zM643 1204l170 262h207l-273 -262h-104z" />
<glyph unicode="&#xfb;" d="M156 250q0 59 20 156l143 655h125l-143 -660q-14 -65 -14 -131q0 -52 19 -89.5t49.5 -56t60 -26.5t59.5 -8q83 0 165 46t140 118q38 47 73.5 133.5t51 141t21.5 83.5l96 449h125l-229 -1061h-123l41 190l-5 5q-164 -220 -387 -220q-73 0 -128 22t-84.5 52.5t-47.5 71.5 t-23 71t-5 58zM452 1204l264 262h170l125 -262h-125l-88 185l-188 -185h-158z" />
<glyph unicode="&#xfc;" d="M156 250q0 59 20 156l143 655h125l-143 -660q-14 -65 -14 -131q0 -52 19 -89.5t49.5 -56t60 -26.5t59.5 -8q83 0 165 46t140 118q38 47 73.5 133.5t51 141t21.5 83.5l96 449h125l-229 -1061h-123l41 190l-5 5q-164 -220 -387 -220q-73 0 -128 22t-84.5 52.5t-47.5 71.5 t-23 71t-5 58zM497 1212l37 174h127l-37 -174h-127zM843 1212l37 174h127l-37 -174h-127z" />
<glyph unicode="&#xfd;" horiz-adv-x="1024" d="M-37 -391l14 115q73 -29 127 -29q64 0 119 90l127 215l-190 1061h123l157 -938l555 938h131l-766 -1282q-73 -123 -127.5 -166t-121.5 -43q-59 0 -148 39zM586 1204l170 262h207l-273 -262h-104z" />
<glyph unicode="&#xfe;" horiz-adv-x="1251" d="M-2 -406l403 1872h125l-123 -557l5 -4q29 37 55 61.5t71.5 55.5t109 47t142.5 16q107 0 189 -38t130 -102.5t71.5 -142t23.5 -165.5q0 -81 -19.5 -167.5t-64.5 -176t-110 -159.5t-165 -114.5t-220 -44.5q-70 0 -130.5 19t-96 41.5t-68.5 60.5t-44.5 56.5t-27.5 48.5 l-133 -607h-123zM311 387q0 -129 84.5 -224t225.5 -95q88 0 164 35.5t128 93.5t89.5 131t55 148.5t17.5 146.5q0 70 -17.5 133.5t-52.5 116.5t-96 84.5t-141 31.5q-118 0 -210 -62t-148 -163q-49 -88 -74 -191t-25 -186z" />
<glyph unicode="&#xff;" horiz-adv-x="1024" d="M-37 -391l14 115q73 -29 127 -29q64 0 119 90l127 215l-190 1061h123l157 -938l555 938h131l-766 -1282q-73 -123 -127.5 -166t-121.5 -43q-59 0 -148 39zM440 1212l37 174h127l-37 -174h-127zM786 1212l37 174h127l-37 -174h-127z" />
<glyph unicode="&#x152;" horiz-adv-x="2048" d="M164 588q0 130 31 259t93.5 245t148.5 205t205 141.5t255 52.5q28 0 56 -2t84 -16.5t102.5 -39.5t96 -77.5t79.5 -124.5h4l49 235h770l-24 -116h-633l-113 -535h621l-23 -117h-623l-124 -581h720l-24 -117h-862l32 145l-4 5q-29 -34 -55.5 -57.5t-73.5 -54t-113 -47 t-145 -16.5q-113 0 -204 35.5t-151 94.5t-100 139t-57.5 166t-17.5 178zM301 578q0 -74 10.5 -140t38 -132t70.5 -113.5t113.5 -77t160.5 -29.5q123 0 217.5 56.5t175.5 203.5q77 140 121.5 356.5t44.5 315.5q0 94 -42.5 175.5t-128 134t-197.5 52.5q-124 0 -226.5 -55.5 t-167 -141t-109 -195t-63 -212.5t-18.5 -198z" />
<glyph unicode="&#x153;" horiz-adv-x="1933" d="M141 434q0 73 17.5 155.5t60 172t104 160.5t159.5 117t216 46q126 0 214 -54.5t149 -196.5q19 33 35 57t54.5 64t80 65.5t109 45t145.5 19.5q73 0 133.5 -18t101.5 -46.5t72 -68t49 -78.5t29 -82t14.5 -74.5t3.5 -60.5q0 -52 -12 -145h-797q-10 -83 -10 -106 q0 -144 76.5 -239t200.5 -95q52 0 101.5 19t83 43t68.5 63.5t51 62.5t38 57l135 -10q-22 -45 -43 -80t-64 -85.5t-91 -84t-122.5 -58t-159.5 -24.5q-72 0 -132.5 18.5t-96 41t-69 62.5t-45 61t-31.5 59q-68 -106 -181 -174t-245 -68q-92 0 -165 31t-116 79t-71.5 111 t-39 121.5t-10.5 116.5zM266 426q0 -37 6.5 -79t25.5 -92.5t48.5 -89.5t81 -66t117.5 -27q184 0 301 166t117 417q0 95 -26 163.5t-69.5 104t-88.5 51t-93 15.5q-84 0 -155 -38t-119 -98t-81.5 -135.5t-49 -149.5t-15.5 -142zM1098 608h659q5 79 -7 143t-36 103.5t-53 68 t-63.5 42t-61.5 19t-53 5.5q-58 0 -108.5 -17.5t-86 -41.5t-67.5 -64t-49.5 -70t-35.5 -75t-23.5 -63t-14.5 -50z" />
<glyph unicode="&#x178;" horiz-adv-x="1251" d="M242 1466h145l365 -786l610 786h168l-739 -909l-117 -557h-137l120 571zM635 1581l37 174h127l-37 -174h-127zM981 1581l37 174h127l-37 -174h-127z" />
<glyph unicode="&#x2c6;" horiz-adv-x="681" d="M223 1204l264 262h170l125 -262h-125l-88 185l-188 -185h-158z" />
<glyph unicode="&#x2dc;" horiz-adv-x="681" d="M211 1235q10 25 16.5 39.5t25 45.5t36.5 49.5t47 34t61 15.5q58 0 113 -24l80 -27q49 -16 65 -16q32 0 48.5 17.5t29.5 49.5h109q-16 -55 -39.5 -94t-49.5 -58t-47.5 -26.5t-41.5 -7.5q-32 0 -91 20l-94 31q-1 0 -17 5t-36 9.5t-31 4.5q-18 0 -35 -12.5t-26 -24 t-21 -31.5h-102z" />
<glyph unicode="&#x2000;" horiz-adv-x="950" />
<glyph unicode="&#x2001;" horiz-adv-x="1901" />
<glyph unicode="&#x2002;" horiz-adv-x="950" />
<glyph unicode="&#x2003;" horiz-adv-x="1901" />
<glyph unicode="&#x2004;" horiz-adv-x="633" />
<glyph unicode="&#x2005;" horiz-adv-x="475" />
<glyph unicode="&#x2006;" horiz-adv-x="316" />
<glyph unicode="&#x2007;" horiz-adv-x="316" />
<glyph unicode="&#x2008;" horiz-adv-x="237" />
<glyph unicode="&#x2009;" horiz-adv-x="380" />
<glyph unicode="&#x200a;" horiz-adv-x="105" />
<glyph unicode="&#x2010;" horiz-adv-x="681" d="M106 473l23 113h547l-25 -113h-545z" />
<glyph unicode="&#x2011;" horiz-adv-x="681" d="M106 473l23 113h547l-25 -113h-545z" />
<glyph unicode="&#x2012;" horiz-adv-x="681" d="M106 473l23 113h547l-25 -113h-545z" />
<glyph unicode="&#x2013;" horiz-adv-x="1024" d="M23 465v94h1048v-94h-1048z" />
<glyph unicode="&#x2014;" horiz-adv-x="2048" d="M23 465v94h2072v-94h-2072z" />
<glyph unicode="&#x2018;" horiz-adv-x="454" d="M295 1028l41 195q12 57 30 101.5t33.5 69.5t41.5 46t40 29t43 22l33 -72q-72 -34 -95.5 -69.5t-41.5 -126.5h92l-43 -195h-174z" />
<glyph unicode="&#x2019;" horiz-adv-x="454" d="M295 1102q72 34 94.5 68t40.5 126h-90l43 195h174l-41 -195q-12 -57 -30 -101t-34 -69.5t-41.5 -46.5t-40 -29t-42.5 -22z" />
<glyph unicode="&#x201a;" horiz-adv-x="454" d="M98 -195q72 34 94.5 68.5t40.5 126.5h-90l43 195h174l-41 -195q-12 -57 -30 -101t-34 -69.5t-41.5 -46.5t-40 -29t-42.5 -22z" />
<glyph unicode="&#x201c;" horiz-adv-x="796" d="M295 1028l41 195q12 57 30 101.5t33.5 69.5t41.5 46t40 29t43 22l33 -72q-72 -34 -95.5 -69.5t-41.5 -126.5h92l-43 -195h-174zM637 1028l41 195q12 57 30 101.5t33.5 69.5t41.5 46t40 29t43 22l33 -72q-72 -34 -95.5 -69.5t-41.5 -126.5h92l-43 -195h-174z" />
<glyph unicode="&#x201d;" horiz-adv-x="796" d="M295 1102q72 34 94.5 68t40.5 126h-90l43 195h174l-41 -195q-12 -57 -30 -101t-34 -69.5t-41.5 -46.5t-40 -29t-42.5 -22zM637 1102q72 34 94.5 68t40.5 126h-90l43 195h174l-41 -195q-12 -57 -30 -101t-34 -69.5t-41.5 -46.5t-40 -29t-42.5 -22z" />
<glyph unicode="&#x201e;" horiz-adv-x="796" d="M98 -195q72 34 94.5 68.5t40.5 126.5h-90l43 195h174l-41 -195q-12 -57 -30 -101t-34 -69.5t-41.5 -46.5t-40 -29t-42.5 -22zM440 -195q72 34 94.5 68.5t40.5 126.5h-90l43 195h174l-40 -195q-12 -57 -30.5 -101t-34 -69.5t-41.5 -46.5t-40.5 -29t-42.5 -22z" />
<glyph unicode="&#x2022;" horiz-adv-x="1024" d="M334 717q0 103 73.5 176.5t176.5 73.5t176.5 -73.5t73.5 -176.5q0 -104 -73.5 -177t-176.5 -73t-176.5 73t-73.5 177z" />
<glyph unicode="&#x2026;" horiz-adv-x="2048" d="M211 0l43 195h174l-41 -195h-176zM895 0l43 195h174l-41 -195h-176zM1579 0l43 195h174l-41 -195h-176z" />
<glyph unicode="&#x202f;" horiz-adv-x="380" />
<glyph unicode="&#x2039;" horiz-adv-x="796" d="M182 549l393 432h95l-359 -451l168 -458h-94z" />
<glyph unicode="&#x203a;" horiz-adv-x="796" d="M106 72l363 454l-141 449h98l178 -475l-379 -428h-119z" />
<glyph unicode="&#x205f;" horiz-adv-x="475" />
<glyph unicode="&#x20ac;" d="M90 586l16 86h80q3 45 13 106h-109l16 86h113q36 134 101 244t155 192t210.5 127.5t260.5 45.5q59 0 126.5 -15t117.5 -41l-31 -94q-37 24 -95.5 38.5t-105.5 14.5q-113 0 -213 -40.5t-176 -111.5t-132 -162t-89 -198h699l-19 -86h-700q-10 -43 -17 -106h703l-19 -86 h-688v-4q0 -93 27.5 -182.5t78 -163t131.5 -119t179 -45.5q87 0 159.5 24t151.5 74l-12 -119q-53 -34 -139 -55t-156 -21q-130 0 -234.5 48.5t-171.5 132.5t-102.5 194t-36.5 236h-92z" />
<glyph unicode="&#x2122;" horiz-adv-x="1925" d="M227 1378v88h635v-88h-268v-729h-100v729h-267zM956 649v817h154l203 -653h4l211 653h153v-817h-92v729h-4l-237 -729h-70l-225 729h-4v-729h-93z" />
<glyph unicode="&#x25fc;" horiz-adv-x="1064" d="M0 0v1065h1065v-1065h-1065z" />
</font>
</defs>
</svg>
